<svg width="803" height="514" viewBox="0 0 803 514" fill="none" xmlns="http://www.w3.org/2000/svg">
<path d="M325.404 306.323L175.797 406.389L28.4536 186.099L178.061 86.0334L325.404 306.323Z" fill="#F3F2F1"/>
<path d="M248.115 295.877L246.417 306.385L172.045 295.671L173.744 285.164L248.115 295.877Z" fill="#DADBD8"/>
<path d="M210.66 258.393L221.332 259.932L209.5 333.155L198.828 331.617L210.66 258.393Z" fill="#DADBD8"/>
<path d="M142.158 165.325C142.264 165.485 127.272 175.7 108.676 188.139C90.0721 200.581 74.9095 210.536 74.8038 210.376C74.6971 210.217 89.6866 200.004 108.289 187.561C126.886 175.123 142.052 165.167 142.158 165.325Z" fill="#DADBD8"/>
<path d="M197.176 151.515C197.283 151.675 172.351 168.537 141.497 189.173C110.632 209.819 85.5334 226.419 85.4266 226.259C85.3198 226.1 110.246 209.24 141.111 188.597C171.965 167.96 197.069 151.355 197.176 151.515Z" fill="#DADBD8"/>
<path d="M208.204 168.003C208.312 168.163 183.38 185.025 152.526 205.661C121.661 226.307 96.5617 242.907 96.4554 242.748C96.3486 242.588 121.275 225.729 152.14 205.085C182.994 184.448 208.098 167.844 208.204 168.003Z" fill="#DADBD8"/>
<path d="M219.233 184.491C219.34 184.651 194.408 201.513 163.555 222.151C132.689 242.795 107.59 259.395 107.483 259.236C107.377 259.077 132.303 242.217 163.168 221.573C194.021 200.936 219.127 184.332 219.233 184.491Z" fill="#DADBD8"/>
<path d="M230.261 200.98C230.368 201.14 205.436 218.003 174.583 238.639C143.717 259.283 118.619 275.884 118.512 275.724C118.405 275.565 143.332 258.707 174.196 238.063C205.051 217.425 230.155 200.821 230.261 200.98Z" fill="#DADBD8"/>
<path d="M802.064 418.677L676.419 502.715L552.677 317.709L678.321 233.671L802.064 418.677Z" fill="#F3F2F1"/>
<path d="M737.154 409.904L735.728 418.729L673.27 409.731L674.696 400.907L737.154 409.904Z" fill="#DADBD8"/>
<path d="M705.7 378.425L714.661 379.715L704.724 441.211L695.761 439.92L705.7 378.425Z" fill="#DADBD8"/>
<path d="M648.168 300.264C648.275 300.423 635.699 309.021 620.08 319.468C604.456 329.919 591.708 338.257 591.601 338.097C591.495 337.937 604.071 329.34 619.695 318.891C635.311 308.444 648.061 300.103 648.168 300.264Z" fill="#DADBD8"/>
<path d="M694.373 288.664C694.48 288.823 673.556 303.005 647.644 320.337C621.722 337.675 600.631 351.597 600.524 351.436C600.417 351.277 621.337 337.099 647.257 319.761C673.171 302.429 694.266 288.504 694.373 288.664Z" fill="#DADBD8"/>
<path d="M703.638 302.512C703.744 302.671 682.818 316.853 656.907 334.185C630.986 351.523 609.892 365.443 609.786 365.284C609.68 365.125 630.599 350.945 656.522 333.608C682.432 316.276 703.531 302.352 703.638 302.512Z" fill="#DADBD8"/>
<path d="M712.899 316.36C713.006 316.519 692.082 330.701 666.168 348.033C640.248 365.371 619.155 379.291 619.048 379.132C618.942 378.973 639.862 364.793 665.783 347.456C691.695 330.124 712.792 316.2 712.899 316.36Z" fill="#DADBD8"/>
<path d="M722.16 330.207C722.267 330.367 701.343 344.548 675.431 361.88C649.51 379.217 628.418 393.139 628.311 392.98C628.203 392.82 649.123 378.641 675.044 361.303C700.956 343.972 722.054 330.047 722.16 330.207Z" fill="#DADBD8"/>
<path d="M371.587 295.969L234.496 222.651L342.455 20.7881L479.547 94.1067L371.587 295.969Z" fill="#F3F2F1"/>
<path d="M348.118 232.823L339.42 235.801L317.344 174.769L326.041 171.791L348.118 232.823Z" fill="#DADBD8"/>
<path d="M361.453 189.039L364.621 197.796L304.009 218.555L300.841 209.796L361.453 189.039Z" fill="#DADBD8"/>
<path d="M404.521 98.9894C404.415 99.1908 390.509 91.9628 373.468 82.8494C356.421 73.7334 342.695 66.1828 342.801 65.9814C342.908 65.7801 356.811 73.0068 373.857 82.1228C390.897 91.2374 404.629 98.7894 404.521 98.9894Z" fill="#DADBD8"/>
<path d="M437.419 135.3C437.311 135.501 414.299 123.404 386.027 108.283C357.743 93.156 334.911 80.736 335.017 80.536C335.124 80.3347 358.132 92.4307 386.415 107.556C414.688 122.677 437.525 135.1 437.419 135.3Z" fill="#DADBD8"/>
<path d="M429.337 150.409C429.231 150.611 406.219 138.513 377.945 123.392C349.663 108.267 326.829 95.8454 326.937 95.6441C327.044 95.4441 350.052 107.539 378.335 122.665C406.607 137.787 429.445 150.209 429.337 150.409Z" fill="#DADBD8"/>
<path d="M421.256 165.519C421.149 165.72 398.139 153.623 369.865 138.501C341.583 123.375 318.749 110.955 318.856 110.753C318.964 110.553 341.971 122.648 370.253 137.775C398.526 152.895 421.365 165.319 421.256 165.519Z" fill="#DADBD8"/>
<path d="M413.176 180.628C413.069 180.829 390.057 168.731 361.784 153.611C333.501 138.484 310.668 126.064 310.776 125.863C310.882 125.661 333.89 137.757 362.173 152.883C390.445 168.004 413.284 180.428 413.176 180.628Z" fill="#DADBD8"/>
<path d="M769.777 509.436C769.777 509.628 597.443 509.784 384.907 509.784C172.297 509.784 0 509.628 0 509.436C0 509.245 172.297 509.089 384.907 509.089C597.443 509.089 769.777 509.245 769.777 509.436Z" fill="#17282F"/>
<path d="M42.6028 425.935C47.1112 426.092 51.3424 428.54 54.3164 431.932C57.2899 435.324 59.1128 439.59 60.2784 443.947C62.5347 452.378 61.1482 462.328 58.7435 470.718C49.6159 467.456 43.9867 457.721 41.4419 452.604C37.4191 444.516 35.0602 427.455 42.6028 425.935Z" fill="#3C1361"/>
<path d="M71.8775 480.936C68.9972 476.802 68.9296 471.052 71.2067 466.556C73.4832 462.06 77.8567 458.819 82.6739 457.339C84.9009 456.656 87.4859 456.368 89.4233 457.661C91.2343 458.872 92.0171 461.245 91.7832 463.412C91.5504 465.577 90.452 467.559 89.1583 469.311C84.7201 475.32 79.3223 480.321 71.8775 480.936Z" fill="#3C1361"/>
<path d="M72.8824 509.111C72.8382 509.118 72.7002 508.492 72.4742 507.36C72.2304 506.109 71.9142 504.494 71.5356 502.553C70.8152 498.513 69.672 492.768 70.5366 486.416C71.3674 480.094 73.8851 474.687 76.5236 471.459C77.8231 469.825 79.0658 468.669 79.9862 467.959C80.4314 467.585 80.8242 467.355 81.0726 467.178C81.3278 467.011 81.4679 466.932 81.4804 466.949C81.5799 467.061 79.3466 468.437 76.8788 471.731C74.3788 474.969 71.9819 480.283 71.1638 486.5C70.3127 492.723 71.3663 498.416 71.9756 502.478C72.3023 504.518 72.5658 506.171 72.7174 507.32C72.869 508.467 72.9242 509.104 72.8824 509.111Z" fill="#17282F"/>
<path d="M45.5471 438.768C45.5674 438.759 45.6928 438.996 45.9147 439.459C46.158 439.984 46.4699 440.656 46.8548 441.489C47.6616 443.26 48.796 445.835 50.1699 449.028C52.9199 455.413 56.596 464.288 60.433 474.178C64.2684 484.075 67.5382 493.108 69.8122 499.677C70.9502 502.963 71.8486 505.628 72.4455 507.478C72.7226 508.354 72.9466 509.061 73.1204 509.613C73.2684 510.103 73.3362 510.365 73.3152 510.372C73.2955 510.378 73.1871 510.132 73.0002 509.656C72.7971 509.113 72.5362 508.419 72.2132 507.559C71.5199 505.659 70.5622 503.037 69.3908 499.828C67.01 493.299 63.6762 484.296 59.8434 474.408C56.009 464.524 52.4012 455.628 49.758 449.201C48.459 446.041 47.398 443.459 46.6294 441.588C46.2882 440.735 46.0127 440.045 45.7975 439.509C45.6142 439.032 45.5278 438.775 45.5471 438.768Z" fill="#17282F"/>
<path d="M62.0471 490.471C56.6638 481.312 46.6138 475.066 36.0181 474.299C33.3195 474.101 30.0743 474.556 28.8711 476.98C27.6654 479.407 29.2774 482.278 31.1159 484.27C38.7643 492.555 51.7019 495.443 62.1471 491.197" fill="#3C1361"/>
<path d="M40.127 481.521C40.1302 481.478 40.7302 481.502 41.8166 481.584C42.3598 481.621 43.0259 481.669 43.7879 481.813C44.5473 481.953 45.4322 482.037 46.3734 482.299C47.3207 482.532 48.3671 482.764 49.4494 483.153C50.553 483.48 51.6863 483.952 52.877 484.456C55.2291 485.524 57.725 486.923 60.1005 488.739C62.4587 490.577 64.4515 492.632 66.0707 494.647C66.8505 495.68 67.5937 496.657 68.1739 497.653C68.815 498.609 69.2911 499.57 69.7385 500.437C70.2177 501.289 70.4999 502.133 70.8125 502.84C71.1291 503.548 71.3254 504.187 71.4833 504.708C71.8067 505.749 71.9645 506.327 71.9229 506.34C71.7879 506.387 71.1395 504.056 69.3411 500.642C68.8739 499.8 68.3827 498.865 67.7322 497.935C67.1426 496.968 66.3937 496.017 65.6161 495.011C63.9978 493.049 62.0306 491.045 59.7139 489.24C57.3806 487.456 54.939 486.068 52.6374 484.988C51.4718 484.477 50.363 483.992 49.2817 483.651C48.2229 483.244 47.1969 482.99 46.2677 482.733C42.5254 481.787 40.113 481.659 40.127 481.521Z" fill="#17282F"/>
<path d="M645.37 63.632C641.45 64.5347 639.54 69.0454 639.17 73.0507C638.799 77.0574 639.31 81.288 637.627 84.9427C635.732 89.056 631.21 92.088 631.059 96.6134C630.968 99.3734 632.606 101.968 632.528 104.727C632.399 109.26 627.776 112.684 627.534 117.212C627.36 120.472 629.532 123.6 629.01 126.823C628.602 129.332 626.65 131.308 625.824 133.711C624.179 138.501 627.47 143.775 631.756 146.472C636.534 149.476 642.651 150.252 648.027 148.535C653.403 146.817 657.936 142.637 660.087 137.42C662.459 131.661 661.94 125.177 661.424 118.971C659.818 99.6307 658.624 80.256 657.844 60.864" fill="#17282F"/>
<path d="M633.988 131.884C633.904 131.807 635.06 131.464 635.778 129.753C636.128 128.916 636.306 127.792 636.236 126.499C636.19 125.196 635.746 123.779 635.262 122.181C634.816 120.596 634.234 118.759 634.568 116.713C634.904 114.637 636.389 112.933 637.745 111.257C638.426 110.408 639.113 109.527 639.545 108.521C640 107.528 640.096 106.391 639.754 105.324C639.065 103.145 636.93 101.544 635.95 99.028C635.465 97.768 635.46 96.384 635.737 95.1374C636 93.8787 636.51 92.7374 637.024 91.648C638.068 89.4774 639.217 87.4867 639.673 85.3747C640.608 81.1454 640.172 77.108 640.809 73.792C641.385 70.4694 642.789 67.9707 644.18 66.6867C644.857 66.0227 645.513 65.6694 645.941 65.432C646.397 65.236 646.638 65.1454 646.646 65.1667C646.692 65.2414 645.658 65.5587 644.37 66.8774C643.085 68.1774 641.796 70.6214 641.292 73.8734C641.028 75.4907 640.988 77.3094 640.921 79.2614C640.853 81.212 640.792 83.3307 640.296 85.52C639.832 87.7387 638.65 89.808 637.638 91.94C636.636 94.0347 635.714 96.4907 636.601 98.7867C637.448 101.056 639.596 102.668 640.402 105.12C640.797 106.34 640.668 107.692 640.153 108.785C639.664 109.897 638.937 110.807 638.242 111.66C636.848 113.345 635.453 114.949 635.134 116.815C634.801 118.671 635.314 120.461 635.736 122.045C636.182 123.632 636.613 125.125 636.624 126.481C636.658 127.825 636.433 128.996 636.028 129.861C635.625 130.732 635.074 131.269 634.661 131.544C634.25 131.825 633.988 131.884 633.988 131.884Z" fill="#33535F"/>
<path d="M623.49 163.487L611.455 198.183L561.263 200.873L552.894 219.497L605.295 224.799C615.744 229.119 627.682 223.824 631.495 213.18L645.479 174.147L623.49 163.487Z" fill="#C0776A"/>
<path d="M727.308 490.596C727.308 490.596 690.525 373.771 689.745 369.979C689.039 366.551 703.093 282.481 704.864 260.723L655.164 262.576C655.164 262.576 655.163 262.708 655.16 262.937L634.035 264.109L652.956 503.035H675.827L673.559 423.766C687.661 461.628 707.871 500.212 707.871 500.212L727.308 490.596Z" fill="#C0776A"/>
<path d="M674.492 452.176C674.512 451.451 674.215 425.617 674.215 425.617C673.929 427.163 665.447 403.187 665.652 401.729C665.757 400.975 674.492 452.176 674.492 452.176Z" fill="#AC584F"/>
<path d="M664.685 390.377C664.632 390.377 664.583 390.892 664.537 391.825C664.488 392.76 664.477 394.115 664.568 395.787C664.6 396.625 664.688 397.539 664.796 398.519C664.921 399.496 665.055 400.544 665.281 401.631C665.696 403.812 666.336 406.171 667.151 408.592C668.811 413.424 670.644 417.652 671.945 420.719C672.561 422.118 673.091 423.321 673.536 424.331C673.927 425.177 674.167 425.637 674.215 425.618C674.264 425.599 674.117 425.101 673.811 424.22C673.505 423.339 673.037 422.073 672.443 420.518C671.268 417.399 669.516 413.139 667.871 408.349C667.064 405.951 666.413 403.633 665.968 401.492C665.725 400.427 665.571 399.397 665.421 398.436C665.287 397.473 665.169 396.575 665.104 395.748C664.947 394.099 664.875 392.755 664.833 391.824C664.788 390.895 664.737 390.378 664.685 390.377Z" fill="#AC584F"/>
<path d="M652.527 504.212L652.517 502.064L675.943 501.044L676.008 509.904L674.563 510C668.132 510.377 641.84 511.461 637.536 510.172C632.737 508.732 652.527 504.212 652.527 504.212Z" fill="#33535F"/>
<path d="M676.335 509.368C676.335 509.377 676.198 509.392 675.934 509.412C675.588 509.433 675.21 509.459 674.783 509.487C673.632 509.54 672.218 509.606 670.548 509.684C666.971 509.824 662.026 509.955 656.563 509.98C651.098 510.002 646.151 509.916 642.574 509.807C640.903 509.743 639.487 509.689 638.336 509.645C637.91 509.621 637.531 509.6 637.186 509.582C636.922 509.564 636.784 509.549 636.784 509.542C636.784 509.531 636.923 509.525 637.187 509.525C637.534 509.528 637.912 509.532 638.339 509.536C639.491 509.555 640.907 509.579 642.578 509.606C646.155 509.665 651.099 509.72 656.562 509.697C662.022 509.672 666.964 509.575 670.542 509.484C672.212 509.442 673.628 509.406 674.779 509.376C675.206 509.368 675.586 509.361 675.931 509.355C676.196 509.354 676.333 509.357 676.335 509.368Z" fill="#17282F"/>
<path d="M644.937 510.121C644.851 510.133 644.781 509.121 644.139 508.103C643.513 507.072 642.641 506.559 642.689 506.487C642.704 506.416 643.705 506.852 644.379 507.954C645.064 509.048 645.007 510.139 644.937 510.121Z" fill="#17282F"/>
<path d="M651.801 506.608C651.736 506.651 651.405 506.251 651.064 505.716C650.721 505.183 650.497 504.715 650.564 504.672C650.629 504.631 650.96 505.031 651.301 505.564C651.644 506.1 651.867 506.565 651.801 506.608Z" fill="#17282F"/>
<path d="M653.686 505.603C653.634 505.661 653.264 505.418 652.863 505.057C652.459 504.699 652.175 504.36 652.227 504.302C652.278 504.244 652.647 504.488 653.049 504.847C653.452 505.207 653.738 505.544 653.686 505.603Z" fill="#17282F"/>
<path d="M654.869 503.399C654.871 503.477 654.327 503.548 653.655 503.559C652.981 503.568 652.436 503.513 652.435 503.435C652.433 503.357 652.977 503.287 653.651 503.276C654.323 503.266 654.868 503.321 654.869 503.399Z" fill="#17282F"/>
<path d="M655.273 501.847C655.301 501.916 654.708 502.185 653.919 502.247C653.129 502.311 652.501 502.137 652.517 502.064C652.529 501.984 653.145 502.027 653.896 501.964C654.645 501.908 655.249 501.768 655.273 501.847Z" fill="#17282F"/>
<path d="M651.004 504.578C651.005 504.609 650.431 504.682 649.505 504.573C649.044 504.52 648.497 504.413 647.911 504.228C647.617 504.125 647.312 504.048 646.996 503.856C646.848 503.757 646.683 503.619 646.624 503.39C646.561 503.166 646.68 502.915 646.848 502.792C648.277 502.044 649.713 502.845 650.248 503.583C650.541 503.96 650.677 504.327 650.74 504.582C650.801 504.836 650.797 504.983 650.78 504.985C650.728 505.004 650.677 504.396 650.093 503.711C649.807 503.375 649.369 503.047 648.811 502.883C648.281 502.728 647.529 502.689 647.027 503.011C646.789 503.188 646.883 503.468 647.148 503.624C647.395 503.783 647.713 503.877 647.991 503.982C648.559 504.173 649.088 504.299 649.535 504.377C650.432 504.532 651.004 504.532 651.004 504.578Z" fill="#17282F"/>
<path d="M650.616 504.653C650.595 504.669 650.372 504.288 650.439 503.613C650.475 503.283 650.593 502.89 650.844 502.519C651.107 502.185 651.445 501.725 652.088 501.751C652.435 501.794 652.607 502.188 652.552 502.44C652.527 502.704 652.409 502.93 652.301 503.109C652.08 503.485 651.828 503.789 651.596 504.019C651.128 504.48 650.757 504.656 650.741 504.628C650.715 504.592 651.039 504.359 651.451 503.883C651.655 503.645 651.876 503.344 652.075 502.983C652.279 502.664 652.417 502.096 652.04 502.03C651.667 501.994 651.285 502.37 651.057 502.668C650.823 502.994 650.693 503.343 650.637 503.644C650.525 504.255 650.665 504.643 650.616 504.653Z" fill="#17282F"/>
<path d="M675.835 502.99C675.831 503.044 675.168 502.931 674.115 503.059C673.072 503.178 671.621 503.612 670.364 504.62C669.105 505.632 668.369 506.953 668.028 507.947C667.676 508.947 667.644 509.619 667.591 509.612C667.573 509.611 667.565 509.442 667.588 509.142C667.612 508.84 667.683 508.406 667.837 507.884C668.14 506.849 668.875 505.454 670.187 504.4C671.499 503.348 673.019 502.932 674.095 502.86C674.637 502.821 675.077 502.845 675.376 502.888C675.676 502.931 675.839 502.975 675.835 502.99Z" fill="#17282F"/>
<path d="M664.616 507.511C664.627 507.584 663.105 507.827 661.212 507.833C659.317 507.847 657.796 507.62 657.805 507.547C657.812 507.465 659.335 507.564 661.211 507.552C663.088 507.544 664.607 507.43 664.616 507.511Z" fill="#17282F"/>
<path d="M669.182 507.461C669.24 507.517 669.058 507.784 668.905 508.133C668.746 508.483 668.666 508.793 668.588 508.788C668.512 508.788 668.465 508.421 668.646 508.018C668.826 507.615 669.133 507.404 669.182 507.461Z" fill="#17282F"/>
<path d="M670.898 505.312C670.952 505.368 670.803 505.609 670.563 505.854C670.322 506.1 670.083 506.256 670.027 506.201C669.972 506.147 670.12 505.903 670.362 505.657C670.6 505.412 670.842 505.259 670.898 505.312Z" fill="#17282F"/>
<path d="M673.356 504.324C673.34 504.404 673.03 504.401 672.689 504.524C672.344 504.637 672.1 504.828 672.038 504.776C671.977 504.733 672.172 504.401 672.597 504.257C673.021 504.109 673.38 504.252 673.356 504.324Z" fill="#17282F"/>
<path d="M675.108 503.856C675.137 503.929 675.003 504.048 674.811 504.124C674.617 504.201 674.437 504.203 674.409 504.13C674.38 504.057 674.515 503.937 674.707 503.863C674.9 503.785 675.08 503.784 675.108 503.856Z" fill="#17282F"/>
<path d="M707.413 502.147L706.524 500.19L727.477 489.663L731.164 497.719L729.885 498.4C724.175 501.377 700.633 513.136 696.179 513.721C691.211 514.375 707.413 502.147 707.413 502.147Z" fill="#33535F"/>
<path d="M731.243 497.096C731.248 497.104 731.128 497.175 730.896 497.301C730.591 497.463 730.256 497.64 729.876 497.839C728.849 498.36 727.585 498.999 726.093 499.755C722.888 501.349 718.429 503.494 713.457 505.755C708.48 508.013 703.932 509.96 700.623 511.325C699.073 511.952 697.76 512.483 696.693 512.915C696.293 513.068 695.939 513.204 695.616 513.328C695.368 513.42 695.237 513.464 695.233 513.455C695.231 513.445 695.355 513.384 695.595 513.275C695.912 513.137 696.257 512.985 696.649 512.813C697.708 512.359 699.011 511.801 700.545 511.142C703.835 509.73 708.368 507.755 713.34 505.496C718.311 503.237 722.779 501.123 726.007 499.576C727.512 498.852 728.789 498.24 729.827 497.742C730.215 497.559 730.557 497.397 730.869 497.251C731.111 497.142 731.239 497.088 731.243 497.096Z" fill="#17282F"/>
<path d="M702.911 510.645C702.836 510.69 702.357 509.797 701.355 509.13C700.363 508.447 699.354 508.335 699.368 508.249C699.356 508.178 700.447 508.165 701.513 508.896C702.587 509.613 702.98 510.632 702.911 510.645Z" fill="#17282F"/>
<path d="M707.732 504.628C707.691 504.694 707.224 504.464 706.695 504.118C706.163 503.77 705.767 503.435 705.811 503.371C705.854 503.304 706.318 503.533 706.85 503.88C707.379 504.228 707.775 504.563 707.732 504.628Z" fill="#17282F"/>
<path d="M709.039 502.94C709.016 503.015 708.58 502.942 708.065 502.78C707.549 502.617 707.151 502.425 707.176 502.351C707.2 502.276 707.636 502.348 708.149 502.511C708.664 502.673 709.063 502.865 709.039 502.94Z" fill="#17282F"/>
<path d="M709.217 500.442C709.251 500.515 708.783 500.802 708.175 501.088C707.564 501.372 707.044 501.544 707.011 501.475C706.979 501.404 707.446 501.116 708.055 500.831C708.664 500.545 709.185 500.373 709.217 500.442Z" fill="#17282F"/>
<path d="M708.949 498.863C709.003 498.915 708.573 499.403 707.876 499.782C707.183 500.164 706.539 500.263 706.524 500.19C706.503 500.111 707.083 499.897 707.741 499.535C708.403 499.175 708.895 498.801 708.949 498.863Z" fill="#17282F"/>
<path d="M706.173 503.103C706.188 503.13 705.693 503.433 704.805 503.712C704.363 503.852 703.818 503.978 703.206 504.051C702.898 504.077 702.589 504.132 702.221 504.085C702.044 504.056 701.837 503.997 701.692 503.815C701.541 503.636 701.547 503.357 701.651 503.175C702.648 501.909 704.286 502.049 705.076 502.504C705.498 502.728 705.772 503.008 705.933 503.213C706.093 503.423 706.149 503.556 706.136 503.565C706.095 503.604 705.8 503.071 704.987 502.684C704.588 502.495 704.056 502.376 703.478 502.454C702.932 502.53 702.229 502.802 701.903 503.302C701.759 503.561 701.959 503.777 702.264 503.812C702.555 503.854 702.885 503.812 703.18 503.792C703.777 503.736 704.311 503.633 704.751 503.52C705.633 503.295 706.153 503.06 706.173 503.103Z" fill="#17282F"/>
<path d="M705.851 503.331C705.837 503.354 705.479 503.097 705.263 502.454C705.16 502.139 705.108 501.731 705.184 501.289C705.288 500.877 705.409 500.32 706.004 500.08C706.339 499.976 707.12 500.649 707.175 500.901C707.257 501.152 706.779 501.023 706.756 501.233C706.707 501.665 706.601 502.045 706.484 502.351C706.247 502.963 705.982 503.275 705.955 503.257C705.916 503.233 706.116 502.888 706.296 502.285C706.384 501.985 706.464 501.619 706.496 501.209C706.552 500.835 706.445 500.26 706.076 500.353C705.719 500.475 705.525 500.972 705.439 501.339C705.36 501.731 705.384 502.103 705.456 502.401C705.603 503.002 705.891 503.3 705.851 503.331Z" fill="#17282F"/>
<path d="M728.176 491.485C728.194 491.535 727.541 491.703 726.635 492.251C725.732 492.787 724.587 493.776 723.852 495.211C723.119 496.649 722.988 498.156 723.084 499.203C723.172 500.26 723.419 500.885 723.368 500.901C723.351 500.907 723.274 500.759 723.172 500.473C723.071 500.188 722.956 499.763 722.884 499.223C722.736 498.155 722.836 496.583 723.6 495.084C724.367 493.587 725.583 492.583 726.535 492.077C727.012 491.819 727.424 491.661 727.715 491.577C728.006 491.492 728.172 491.468 728.176 491.485Z" fill="#17282F"/>
<path d="M719.792 500.203C719.83 500.265 718.544 501.108 716.82 501.892C715.096 502.68 713.616 503.097 713.593 503.027C713.568 502.948 714.996 502.416 716.702 501.635C718.412 500.86 719.752 500.131 719.792 500.203Z" fill="#17282F"/>
<path d="M723.937 498.287C724.013 498.315 723.957 498.632 723.961 499.013C723.957 499.396 724.013 499.712 723.937 499.741C723.869 499.772 723.677 499.456 723.677 499.013C723.677 498.572 723.868 498.256 723.937 498.287Z" fill="#17282F"/>
<path d="M724.622 495.624C724.695 495.652 724.658 495.933 724.539 496.257C724.422 496.578 724.264 496.819 724.192 496.79C724.119 496.766 724.155 496.482 724.274 496.159C724.392 495.836 724.548 495.597 724.622 495.624Z" fill="#17282F"/>
<path d="M726.461 493.715C726.479 493.795 726.196 493.92 725.933 494.171C725.665 494.416 725.523 494.69 725.444 494.666C725.369 494.655 725.412 494.27 725.74 493.965C726.067 493.656 726.452 493.64 726.461 493.715Z" fill="#17282F"/>
<path d="M727.868 492.571C727.924 492.625 727.85 492.789 727.704 492.937C727.56 493.087 727.397 493.161 727.341 493.107C727.285 493.052 727.358 492.888 727.502 492.74C727.648 492.592 727.812 492.516 727.868 492.571Z" fill="#17282F"/>
<path d="M701.641 221.18L697.74 173.583L717.777 173.94C717.777 173.94 718.705 166.923 715.753 151.528C713.943 142.089 707.656 136.299 700.605 132.859L700.607 132.733L699.996 132.573C691.029 128.376 681.643 127.784 681.643 127.784L657.047 128.068C657.047 128.068 638.257 125.724 627.857 139.119C623.851 144.277 611.455 179.592 611.455 179.592L640.976 193.811L638.167 174.228C638.167 174.228 638.725 188.425 640.537 192.924C641.547 195.431 644.471 203.212 644.471 203.212L644.088 226.699L701.641 221.18Z" fill="#3C1361"/>
<path d="M688.071 166.673L684.421 182.228H718.863L716.596 156.151L688.071 166.673Z" fill="#3C1361"/>
<path d="M718.863 182.228C718.865 182.125 717.125 181.943 714.304 181.776C711.48 181.611 707.575 181.471 703.257 181.491C698.94 181.512 695.035 181.699 692.213 181.923C689.393 182.145 687.659 182.384 687.667 182.484C687.675 182.593 689.421 182.544 692.243 182.459C695.064 182.373 698.957 182.271 703.261 182.249C707.565 182.231 711.461 182.285 714.284 182.313C717.107 182.343 718.857 182.335 718.863 182.228Z" fill="#17282F"/>
<path d="M686.586 156.023C686.481 156.027 686.445 157.539 686.472 159.98C686.497 162.42 686.586 165.789 686.73 169.509C686.874 173.229 687.048 176.596 687.211 179.032C687.373 181.467 687.528 182.971 687.633 182.967C687.737 182.963 687.773 181.451 687.748 179.011C687.721 176.571 687.634 173.2 687.489 169.48C687.345 165.76 687.172 162.393 687.008 159.959C686.845 157.524 686.692 156.02 686.586 156.023Z" fill="#17282F"/>
<path d="M683.585 224.779C681.645 224.779 679.82 224.301 678.108 223.436L693.935 221.919C689.893 224.684 684.421 224.749 684.421 224.749C684.14 224.769 683.861 224.779 683.585 224.779Z" fill="#A7A9A8"/>
<path d="M678.108 223.436C661.381 214.985 655.247 169.495 655.247 169.495L697.224 215.66V218.195C696.451 219.795 695.271 221.004 693.935 221.919L678.108 223.436Z" fill="#1E0C2E"/>
<path d="M685.135 192.075L682.467 187.192L686.473 160.131C686.501 162.557 686.589 165.865 686.731 169.509C686.763 170.344 686.797 171.16 686.832 171.952L684.421 182.228H687.479C687.536 182.707 687.589 182.967 687.632 182.967H687.633C687.667 182.965 687.693 182.807 687.713 182.509C687.816 182.536 688.089 182.547 688.511 182.547C688.785 182.547 689.124 182.541 689.521 182.533L685.135 192.075Z" fill="#1E0C2E"/>
<path d="M687.479 182.228H684.421L686.832 171.952C686.952 174.693 687.085 177.143 687.211 179.032C687.307 180.452 687.397 181.556 687.479 182.228Z" fill="#1E0C2E"/>
<path d="M688.511 182.547C688.089 182.547 687.816 182.536 687.713 182.509C687.713 182.501 687.713 182.493 687.715 182.484L689.524 182.528L689.521 182.533C689.124 182.541 688.785 182.547 688.511 182.547Z" fill="#0F191D"/>
<path d="M687.632 182.967C687.589 182.967 687.536 182.707 687.478 182.228C687.397 181.556 687.307 180.452 687.211 179.032C687.085 177.143 686.952 174.693 686.832 171.952C686.797 171.16 686.763 170.344 686.731 169.509C686.589 165.865 686.501 162.557 686.473 160.131L686.586 159.368L687.667 182.484H687.714C687.713 182.493 687.713 182.501 687.713 182.509C687.693 182.807 687.667 182.965 687.633 182.967H687.632Z" fill="#0F191D"/>
<path d="M644.471 203.212C644.424 203.228 644.22 202.755 643.888 201.884C643.555 201.015 643.109 199.741 642.595 198.157C641.567 194.991 640.296 190.557 639.301 185.564C638.311 180.568 637.827 175.973 637.669 172.643C637.588 170.977 637.564 169.629 637.588 168.697C637.607 167.765 637.641 167.251 637.689 167.249C637.799 167.248 637.873 169.304 638.159 172.609C638.441 175.915 638.999 180.464 639.981 185.429C640.972 190.391 642.159 194.821 643.065 198.016C643.488 199.497 643.848 200.76 644.144 201.799C644.397 202.695 644.516 203.197 644.471 203.212Z" fill="#17282F"/>
<path d="M653.171 219.523C652.987 219.577 652.455 218.353 651.981 216.788C651.508 215.221 651.272 213.907 651.456 213.851C651.64 213.796 652.172 215.02 652.645 216.587C653.12 218.152 653.355 219.467 653.171 219.523Z" fill="#17282F"/>
<path d="M656.145 219.305C655.969 219.351 655.388 217.513 655.36 215.156C655.319 212.8 655.846 210.945 656.024 210.987C656.222 211.023 656.014 212.872 656.054 215.147C656.08 217.42 656.343 219.264 656.145 219.305Z" fill="#17282F"/>
<path d="M641.576 194.46C641.49 194.632 634.62 191.372 626.232 187.181C617.841 182.988 611.11 179.451 611.197 179.28C611.282 179.108 618.152 182.367 626.542 186.56C634.929 190.751 641.661 194.289 641.576 194.46Z" fill="#17282F"/>
<path d="M653.683 132.669C653.836 125.924 653.873 118.821 653.873 118.821C653.873 118.821 645.223 117.153 643.715 105.769C642.277 94.9134 646.299 69.4401 646.299 69.4401C658.936 64.6628 672.069 68.9934 680.728 79.2334L678.579 133.999C678.329 140.356 672.664 145.205 665.859 144.887C658.984 144.564 653.536 139.097 653.683 132.669Z" fill="#C0776A"/>
<path d="M645.643 89.7987C645.595 90.5654 646.205 91.2387 647.005 91.3014C647.805 91.3654 648.491 90.7961 648.537 90.0294C648.585 89.2627 647.975 88.5894 647.176 88.5254C646.375 88.4614 645.689 89.032 645.643 89.7987Z" fill="#17282F"/>
<path d="M645.1 87.8881C645.276 88.0828 646.399 87.2948 647.963 87.3401C649.527 87.3628 650.653 88.1974 650.828 88.0094C650.915 87.9268 650.74 87.5801 650.249 87.2028C649.765 86.8281 648.935 86.4534 647.961 86.4334C646.985 86.4121 646.157 86.7508 645.676 87.1054C645.187 87.4614 645.015 87.8001 645.1 87.8881Z" fill="#17282F"/>
<path d="M661.516 90.7867C661.47 91.5533 662.08 92.2254 662.88 92.2907C663.679 92.3534 664.367 91.7853 664.414 91.0173C664.46 90.2507 663.85 89.5773 663.05 89.5133C662.251 89.4493 661.563 90.02 661.516 90.7867Z" fill="#17282F"/>
<path d="M661.411 88.8774C661.587 89.072 662.709 88.2854 664.273 88.3294C665.836 88.3521 666.964 89.1867 667.14 89C667.224 88.916 667.051 88.5707 666.559 88.1934C666.076 87.8174 665.247 87.444 664.271 87.4227C663.297 87.4027 662.468 87.7401 661.987 88.0961C661.497 88.4521 661.324 88.7907 661.411 88.8774Z" fill="#17282F"/>
<path d="M655.433 100.333C655.443 100.245 654.475 100.052 652.904 99.8108C652.505 99.7588 652.129 99.6694 652.069 99.3948C651.981 99.1041 652.16 98.6774 652.367 98.2174C652.767 97.2614 653.187 96.2574 653.627 95.2067C655.379 90.9174 656.659 87.3868 656.484 87.3174C656.311 87.2481 654.751 90.6681 652.997 94.9574C652.576 96.0161 652.172 97.0241 651.788 97.9881C651.624 98.4388 651.351 98.9468 651.539 99.5508C651.64 99.8521 651.927 100.076 652.181 100.152C652.435 100.237 652.66 100.247 652.857 100.264C654.441 100.391 655.424 100.423 655.433 100.333Z" fill="#17282F"/>
<path d="M653.873 118.821C653.873 118.821 661.488 119.509 669.161 115.161C669.161 115.161 665.277 122.855 653.958 121.501L653.873 118.821Z" fill="#AC584F"/>
<path d="M666.419 84.3641C666.097 84.8534 664.908 84.6361 663.575 84.3961C662.247 84.1281 661.06 83.8921 660.941 83.3188C660.809 82.7694 662.187 82.0094 663.965 82.3494C665.744 82.6868 666.744 83.9014 666.419 84.3641Z" fill="#17282F"/>
<path d="M650.862 82.068C650.741 82.6374 649.466 82.8454 647.997 82.9214C646.526 82.9814 645.24 82.8907 645.066 82.3334C644.89 81.7947 646.133 80.9187 647.901 80.84C649.669 80.756 650.986 81.5147 650.862 82.068Z" fill="#17282F"/>
<path d="M655.459 104.079C655.128 103.988 654.757 104.175 654.592 104.475C654.395 104.831 654.485 105.321 654.797 105.584C655.108 105.847 655.607 105.853 655.924 105.6C656.244 105.345 656.347 104.859 656.16 104.496C655.973 104.135 655.516 103.937 655.124 104.051" fill="#AC584F"/>
<path d="M655.824 104.233C655.895 104.171 655.575 103.787 654.891 103.935C654.576 104.005 654.161 104.289 654.035 104.773C653.911 105.229 654.024 105.821 654.507 106.191C655.007 106.544 655.609 106.471 656.007 106.2C656.432 105.92 656.553 105.408 656.487 105.088C656.349 104.385 655.829 104.273 655.815 104.372C655.756 104.46 655.996 104.703 655.951 105.119C655.927 105.323 655.831 105.512 655.633 105.608C655.44 105.715 655.133 105.713 654.957 105.579C654.773 105.449 654.679 105.157 654.717 104.933C654.745 104.711 654.895 104.543 655.076 104.44C655.447 104.231 655.776 104.329 655.824 104.233Z" fill="#17282F"/>
<path d="M675.488 92.6093C674.14 95.7347 670.848 98.1427 671.305 101.516C671.599 103.695 672.996 105.725 672.724 107.905C672.383 110.645 669.537 112.544 669.136 115.273C668.641 118.623 671.899 121.225 673.2 124.351C675.095 128.903 672.671 134.02 672.613 138.949C672.527 146.5 678.948 153.553 686.473 154.173C689.517 154.424 692.945 153.505 694.524 150.891C695.825 148.732 695.565 145.992 696.347 143.596C697.509 140.027 700.911 137.416 701.628 133.732C702.935 127.016 694.817 121.459 695.352 114.637C695.58 111.724 697.379 109.181 698.145 106.36C699.145 102.664 698.228 98.5013 695.763 95.5707C693.76 93.188 690.855 91.6213 689.148 89.0187C687.213 86.0667 687.147 82.324 686.417 78.8707C684.64 70.4573 678.32 63.1467 670.252 60.1707C662.183 57.1947 652.631 58.6507 645.813 63.896C645.813 63.896 643.875 72.684 652.896 74.1533C661.916 75.6227 666.096 73.9267 667.113 77.5427C667.113 77.5427 666.087 81.7667 669.815 85.8C673.545 89.8347 677.049 88.9907 675.488 92.6093Z" fill="#17282F"/>
<path d="M689.883 153.559C689.879 153.583 689.598 153.552 689.06 153.472C688.524 153.389 687.738 153.211 686.766 152.853C684.839 152.149 682.111 150.616 679.786 147.687C678.631 146.236 677.548 144.475 676.819 142.405C676.072 140.348 675.646 138.016 675.606 135.56C675.548 133.101 675.897 130.525 676.568 127.947C676.903 126.655 677.338 125.368 677.844 124.089C678.343 122.805 678.956 121.568 679.308 120.259C679.687 118.953 679.636 117.62 679.295 116.348C678.947 115.075 678.355 113.88 677.778 112.697C677.198 111.516 676.606 110.337 676.224 109.084C675.836 107.841 675.692 106.501 675.944 105.252C676.476 102.74 678.001 100.881 678.901 98.9747C679.855 97.084 680.152 95.088 680.108 93.2947C679.947 89.6627 678.399 86.9774 677.136 85.4294C675.818 83.8787 674.819 83.2894 674.87 83.224C674.87 83.224 675.927 83.7227 677.34 85.2534C678.695 86.7814 680.367 89.504 680.599 93.2733C680.679 95.1307 680.395 97.2347 679.42 99.2254C678.5 101.203 677.028 103.075 676.573 105.373C676.104 107.689 677.2 110.075 678.388 112.396C678.97 113.58 679.586 114.805 679.962 116.167C680.335 117.519 680.39 119.045 679.978 120.439C679.599 121.837 678.974 123.091 678.486 124.345C677.987 125.599 677.558 126.859 677.226 128.121C676.56 130.643 676.207 133.157 676.247 135.551C676.262 140.356 677.912 144.559 680.171 147.383C682.385 150.273 685.003 151.833 686.866 152.601C688.752 153.365 689.9 153.48 689.883 153.559Z" fill="#33535F"/>
<path d="M688.555 86.2774C688.559 86.3214 687.856 86.4481 686.568 86.5734C685.285 86.6801 683.391 86.8281 681.077 86.4294C678.817 86.0161 675.957 84.9054 674.147 82.2241C673.259 80.8788 672.907 79.2507 672.328 77.7481C671.784 76.2281 670.732 74.9121 669.291 74.0001C666.373 72.1521 662.941 71.9241 659.939 71.5588C656.921 71.2188 654.088 70.5787 652.168 69.1374C650.233 67.7614 649.241 65.9734 648.985 64.6854C648.841 64.0414 648.853 63.5227 648.883 63.1827C648.931 62.8401 648.968 62.6654 648.992 62.6681C649.077 62.6694 648.9 63.4014 649.249 64.6201C649.571 65.8254 650.573 67.4734 652.449 68.7361C654.299 70.0454 657.009 70.6188 660.015 70.9228C662.989 71.2588 666.543 71.4441 669.668 73.4174C671.209 74.3787 672.404 75.8894 672.963 77.5027C673.556 79.0894 673.888 80.6521 674.685 81.8774C676.311 84.3587 679 85.4934 681.171 85.9467C683.397 86.3961 685.273 86.3267 686.552 86.3041C687.836 86.2627 688.549 86.2267 688.555 86.2774Z" fill="#33535F"/>
<path d="M685.247 75.4187C685.255 75.4534 684.708 75.6227 683.684 75.6494C682.668 75.6774 681.147 75.4974 679.475 74.7014C678.64 74.3054 677.784 73.7374 676.997 72.9787C676.197 72.224 675.541 71.2481 674.928 70.2187C673.725 68.1907 672.569 65.6894 670.076 64.6547C667.633 63.6081 664.943 63.8414 662.605 63.9987C660.245 64.232 658.033 64.3 656.229 63.9454C654.413 63.6294 653.051 62.8774 652.296 62.1814C651.913 61.8361 651.653 61.5294 651.511 61.3014C651.361 61.076 651.293 60.9547 651.312 60.94C651.368 60.8974 651.687 61.3694 652.468 61.972C653.244 62.5734 654.555 63.2174 656.311 63.4614C658.067 63.7414 660.18 63.6294 662.551 63.3614C664.9 63.1761 667.671 62.8814 670.357 64.0201C671.685 64.5854 672.769 65.5827 673.54 66.664C674.325 67.7454 674.888 68.8761 675.48 69.8961C676.069 70.9161 676.673 71.8494 677.403 72.5694C678.124 73.2974 678.916 73.8587 679.695 74.2627C681.257 75.0734 682.704 75.3254 683.691 75.3787C684.683 75.436 685.239 75.3587 685.247 75.4187Z" fill="#33535F"/>
<path d="M693.863 150.681C693.795 150.651 694.219 149.793 694.711 148.152C695.2 146.516 695.685 144.056 695.599 141.005C695.495 137.973 694.765 134.307 692.757 130.824C691.781 129.077 690.3 127.521 689.092 125.604C688.492 124.647 687.976 123.573 687.749 122.385C687.527 121.196 687.661 119.933 688.044 118.787C688.792 116.485 690.132 114.545 690.42 112.429C690.776 110.307 689.704 108.371 688.689 106.649C688.176 105.772 687.661 104.905 687.261 103.999C686.863 103.092 686.608 102.137 686.508 101.215C686.305 99.3614 686.521 97.6587 686.659 96.1307C687.043 93.0854 686.76 90.5827 686.027 89.0454C685.315 87.488 684.384 87.0214 684.453 86.9587L684.615 87.0347C684.712 87.0987 684.868 87.1827 685.039 87.3387C685.395 87.628 685.869 88.1414 686.269 88.9267C687.113 90.4841 687.476 93.1 687.147 96.172C687.039 97.7067 686.861 99.3894 687.079 101.144C687.256 102.916 688.169 104.589 689.24 106.323C689.759 107.201 690.307 108.117 690.692 109.156C691.087 110.188 691.265 111.367 691.092 112.523C690.768 114.855 689.395 116.828 688.705 118.996C688.348 120.077 688.233 121.189 688.428 122.26C688.631 123.328 689.099 124.325 689.671 125.245C690.813 127.088 692.304 128.675 693.311 130.504C695.357 134.124 696.047 137.896 696.091 140.993C696.113 144.112 695.543 146.601 694.969 148.233C694.669 149.048 694.419 149.672 694.201 150.075C694 150.484 693.884 150.692 693.863 150.681Z" fill="#33535F"/>
<path d="M639.549 399.116C639.549 399.116 630.571 313.992 630.055 282.54C629.539 251.085 644.197 220.051 644.197 220.051L701.641 217.621C701.641 217.621 712.995 249.536 713.199 262.94C713.593 288.992 706.276 314.719 707.12 335.384L709.04 399.116" fill="#17282F"/>
<path d="M710.963 294.469C710.975 294.489 710.648 294.735 710.025 295.179C709.865 295.292 709.691 295.416 709.501 295.548C709.321 295.701 709.147 295.892 708.945 296.085C708.541 296.473 708.072 296.912 707.666 297.519C705.811 299.791 704.458 303.848 703.172 308.912C702.463 311.427 701.746 314.248 700.263 317.009C699.867 317.684 699.511 318.399 698.988 319.027C698.739 319.345 698.512 319.689 698.239 319.996L697.353 320.88C696.153 322.06 694.635 322.949 693.034 323.652C689.818 325.061 686.188 325.729 682.871 327.393C679.533 329.019 677.032 332.169 675.499 335.797C673.882 339.411 672.9 343.204 671.551 346.745C670.225 350.259 668.422 353.679 665.555 355.839C662.711 358.077 659.197 358.589 656.153 358.785C653.061 358.965 650.197 358.877 647.628 359.265C645.069 359.62 642.802 360.432 641.199 361.692C639.59 362.956 638.651 364.541 638.209 365.899C637.755 367.272 637.836 368.431 637.987 369.168C638.136 369.917 638.347 370.275 638.3 370.295C638.3 370.295 638.048 369.957 637.852 369.201C637.651 368.455 637.52 367.256 637.952 365.82C638.37 364.399 639.304 362.737 640.956 361.388C642.613 360.039 644.946 359.175 647.555 358.78C650.171 358.353 653.067 358.415 656.115 358.211C659.129 357.992 662.492 357.464 665.166 355.329C667.874 353.271 669.614 349.981 670.916 346.503C672.242 343.003 673.216 339.204 674.867 335.512C676.415 331.821 679.068 328.469 682.564 326.787C686.012 325.075 689.644 324.428 692.779 323.064C694.34 322.388 695.791 321.548 696.937 320.433L697.787 319.599C698.051 319.307 698.269 318.977 698.512 318.672C699.017 318.076 699.368 317.384 699.758 316.736C701.218 314.071 701.963 311.28 702.699 308.78C704.042 303.744 705.489 299.62 707.453 297.351C707.884 296.747 708.38 296.312 708.807 295.933C709.019 295.745 709.204 295.557 709.394 295.412C709.592 295.287 709.776 295.171 709.944 295.064C710.603 294.652 710.951 294.448 710.963 294.469Z" fill="#FAFAF9"/>
<path d="M711.316 255.077C711.34 255.076 711.367 255.467 711.391 256.217C711.403 256.967 711.312 258.079 710.992 259.475C710.325 262.249 708.299 266.06 704.503 269.508C702.628 271.24 700.364 272.915 697.776 274.423C695.201 275.949 692.363 277.403 689.453 279.047C686.555 280.696 683.565 282.559 680.939 285.035C678.277 287.48 676.284 290.693 674.489 294.097C672.676 297.495 671.071 300.955 668.897 303.949C667.819 305.445 666.6 306.812 665.252 307.981C663.895 309.143 662.417 310.087 660.916 310.869C657.903 312.433 654.833 313.4 651.989 314.291C649.14 315.172 646.48 315.952 644.156 316.927C641.828 317.887 639.811 318.973 638.181 320.127C636.551 321.28 635.311 322.491 634.431 323.585C632.655 325.784 632.281 327.377 632.181 327.324C632.159 327.317 632.285 326.947 632.551 326.244C632.86 325.563 633.336 324.548 634.219 323.419C635.081 322.279 636.317 321.016 637.955 319.812C639.591 318.608 641.623 317.476 643.967 316.475C646.311 315.459 648.981 314.645 651.816 313.741C654.647 312.829 657.68 311.848 660.619 310.303C662.083 309.529 663.513 308.604 664.819 307.479C666.119 306.343 667.295 305.017 668.345 303.552C670.463 300.623 672.053 297.191 673.876 293.771C675.677 290.352 677.729 287.045 680.472 284.54C683.172 282.009 686.215 280.133 689.14 278.489C692.075 276.852 694.919 275.42 697.484 273.925C700.06 272.453 702.303 270.829 704.172 269.147C707.951 265.795 709.995 262.108 710.732 259.405C711.448 256.676 711.209 255.071 711.316 255.077Z" fill="#FAFAF9"/>
<path d="M630.345 287.047C630.333 287.051 630.295 286.965 630.228 286.789C630.171 286.611 630.048 286.355 629.971 285.995C629.808 285.283 629.705 284.157 630.104 282.799C630.845 280.084 633.795 276.707 638.547 275.013C640.912 274.201 643.595 273.711 646.389 272.98C649.152 272.235 652.163 271.192 654.412 268.881C655.528 267.741 656.472 266.384 657.256 264.892C658.023 263.387 658.653 261.771 659.249 260.103C660.444 256.777 661.447 253.163 663.476 249.879C665.491 246.568 668.775 244.268 672.173 243.116C675.564 241.871 678.981 241.319 682.153 240.587C685.335 239.895 688.308 238.999 690.832 237.632C693.319 236.219 695.301 234.337 696.704 232.343C699.581 228.343 700.333 224.247 700.436 221.541C700.499 218.791 700.061 217.293 700.152 217.28C700.152 217.28 700.685 218.752 700.705 221.547C700.685 224.293 700 228.489 697.104 232.627C695.691 234.689 693.675 236.651 691.112 238.135C688.525 239.567 685.489 240.497 682.296 241.211C679.108 241.963 675.709 242.529 672.411 243.753C669.091 244.896 666.007 247.073 664.064 250.247C662.105 253.411 661.099 256.984 659.889 260.331C659.285 262.011 658.639 263.655 657.845 265.199C657.032 266.733 656.04 268.147 654.863 269.336C652.475 271.759 649.329 272.808 646.535 273.536C643.7 274.252 641.033 274.711 638.701 275.48C634.079 277.057 631.144 280.295 630.363 282.879C629.94 284.175 629.992 285.263 630.107 285.968C630.256 286.669 630.376 287.037 630.345 287.047Z" fill="#FAFAF9"/>
<path d="M706.376 359.024C706.4 359.021 706.431 359.308 706.469 359.86C706.5 360.411 706.457 361.236 706.223 362.267C705.753 364.321 704.167 367.132 701.184 369.471C699.715 370.655 697.937 371.741 695.896 372.609C693.861 373.483 691.609 374.173 689.257 374.905C686.909 375.639 684.444 376.407 682.047 377.539C679.633 378.644 677.404 380.263 675.484 382.325C673.539 384.363 671.861 386.589 669.999 388.554C668.144 390.531 666.037 392.159 663.855 393.363C659.467 395.785 654.917 396.618 651.173 396.659C647.403 396.701 644.409 395.908 642.447 395.209C641.456 394.864 640.72 394.519 640.232 394.26C639.74 394.013 639.487 393.876 639.497 393.854C639.508 393.832 639.781 393.93 640.291 394.133C640.793 394.349 641.54 394.652 642.533 394.954C644.501 395.566 647.464 396.271 651.165 396.168C654.839 396.064 659.281 395.197 663.541 392.804C665.667 391.611 667.693 390.03 669.504 388.087C671.327 386.152 672.999 383.927 674.981 381.845C676.935 379.741 679.284 378.041 681.755 376.924C684.217 375.772 686.715 375.012 689.071 374.295C691.427 373.579 693.668 372.912 695.673 372.08C697.675 371.255 699.427 370.216 700.879 369.085C703.829 366.848 705.423 364.175 705.963 362.199C706.488 360.203 706.28 359.021 706.376 359.024Z" fill="#FAFAF9"/>
<path d="M699.828 182.284L688.721 182.547C687.992 186.288 686.209 188.848 686.209 188.848C676.921 172.725 669.72 151.125 667.932 142.444C668.193 141.576 668.501 140.617 668.887 139.544C669.331 138.307 668.949 135.964 668.74 134.663C668.428 132.731 667.888 130.129 667.725 128.925C667.231 125.257 666.64 124.681 665.36 125.096C663.62 125.66 666.073 135.399 664.647 135.609C663.88 135.723 662.943 132.387 662.672 129.649C662.4 126.912 661.161 118.492 660.256 117.931C658.931 117.108 657.775 118.409 658.109 121.135C658.448 123.895 658.876 132.121 657.429 132.233C656.004 132.343 654.808 118.383 654.808 118.383C654.808 118.383 655.033 115.345 653.359 115.417C650.337 115.549 652.699 130.267 652.956 131.66C653.137 132.631 651.568 132.808 651.429 131.756C651.288 130.672 650.559 117.795 647.483 117.899C645.121 117.979 649.311 130.027 647.985 132.82C646.66 135.612 645.74 123.335 643.485 123.504C642.647 123.567 642.027 123.731 643.568 130.679C644.397 134.413 646.831 141.28 648.959 146.964C652.531 166.232 668.207 227.867 692.785 216.584C706.537 210.271 712.119 182.291 712.119 182.291L699.828 182.284Z" fill="#C0776A"/>
<path d="M652.431 132.604C652.431 132.604 652.543 132.625 652.752 132.56C652.939 132.503 653.311 132.268 653.253 131.791C653.221 130.963 653.091 129.757 652.9 128.199C652.757 126.629 652.288 124.747 652.287 122.517C652.268 121.401 652.297 120.201 652.361 118.929C652.403 118.293 652.415 117.633 652.555 117.009C652.66 116.405 653.064 115.715 653.531 115.797L653.583 115.807L653.604 115.805C654.079 115.784 654.449 116.153 654.601 116.717C654.768 117.259 654.811 117.896 654.776 118.503L654.775 118.528L654.777 118.545C655.088 121.957 655.424 125.691 656.201 129.679C656.311 130.176 656.421 130.677 656.576 131.183C656.652 131.436 656.743 131.691 656.853 131.947C656.924 132.079 656.971 132.204 657.08 132.343C657.175 132.459 657.295 132.661 657.637 132.692C658.191 132.651 658.351 132.232 658.476 131.992C658.595 131.715 658.669 131.443 658.725 131.172C658.84 130.629 658.897 130.089 658.939 129.544C659.087 127.371 659.011 125.151 658.851 122.876C658.799 121.725 658.516 120.577 658.711 119.536C658.804 119.023 659.017 118.505 659.367 118.292C659.537 118.188 659.731 118.165 659.941 118.219L660.257 118.356C660.345 118.441 660.325 118.403 660.405 118.553C660.851 119.507 661.08 120.751 661.33 121.905C661.567 123.084 661.771 124.287 661.96 125.503C662.147 126.719 662.319 127.949 662.464 129.189C662.584 130.428 662.763 131.729 663.079 132.981C663.239 133.612 663.416 134.241 663.68 134.865C663.815 135.179 663.956 135.489 664.23 135.808C664.328 135.944 664.64 136.199 665.028 136.099C665.404 135.973 665.511 135.675 665.572 135.5C665.788 134.733 665.724 134.096 665.713 133.425C665.685 132.764 665.631 132.109 665.575 131.456C665.479 130.333 665.372 129.223 665.333 128.127C665.316 127.581 665.315 127.037 665.373 126.523C665.407 126.272 665.449 126.015 665.535 125.828L665.664 125.629L665.716 125.596L665.888 125.547C666.773 125.181 667.067 126.412 667.303 127.404C667.507 128.437 667.637 129.507 667.845 130.559C668.197 132.659 668.644 134.745 668.879 136.751C668.976 137.745 669.047 138.779 668.761 139.621C668.447 140.585 668.135 141.539 667.825 142.481L667.799 142.567L667.817 142.656C669.443 149.825 671.695 156.24 673.784 161.935C675.895 167.624 678.005 172.541 679.868 176.563C681.725 180.587 683.392 183.688 684.543 185.803C685.127 186.805 685.588 187.599 685.93 188.187C686.252 188.724 686.427 188.999 686.445 188.988C686.464 188.977 686.323 188.684 686.035 188.127C685.717 187.525 685.291 186.716 684.751 185.692C683.667 183.544 682.065 180.42 680.269 176.379C678.468 172.343 676.413 167.416 674.352 161.727C672.312 156.037 670.099 149.605 668.519 142.512L668.511 142.687C668.817 141.757 669.131 140.816 669.444 139.865C669.804 138.777 669.697 137.715 669.608 136.675C669.369 134.589 668.933 132.564 668.587 130.453C668.38 129.411 668.255 128.34 668.039 127.247C667.913 126.703 667.795 126.152 667.495 125.596C667.351 125.327 667.128 125.02 666.759 124.855C666.387 124.693 666.007 124.739 665.707 124.812L665.483 124.876L665.18 125.047C665.011 125.196 664.913 125.364 664.843 125.521C664.703 125.841 664.663 126.137 664.621 126.432C664.555 127.017 664.559 127.587 664.576 128.152C664.615 129.283 664.723 130.401 664.817 131.52C664.872 132.172 664.927 132.82 664.955 133.459C664.977 134.081 664.999 134.768 664.856 135.251C664.823 135.391 664.756 135.364 664.833 135.432L664.836 135.437L664.844 135.488L664.841 135.473L664.845 135.428L664.866 135.365L664.784 135.292C664.639 135.123 664.491 134.845 664.377 134.569C664.14 134.011 663.965 133.404 663.811 132.799C663.505 131.576 663.333 130.363 663.209 129.103C663.061 127.849 662.885 126.612 662.695 125.388C662.501 124.164 662.293 122.955 662.051 121.759C661.776 120.556 661.599 119.4 661.036 118.197C661.003 118.076 660.764 117.808 660.619 117.729C660.469 117.64 660.303 117.571 660.123 117.52C659.763 117.421 659.324 117.467 658.995 117.677C658.333 118.115 658.129 118.809 658.009 119.412C657.903 120.033 657.919 120.647 657.987 121.239C658.053 121.808 658.109 122.367 658.153 122.929C658.321 125.175 658.407 127.384 658.273 129.496C658.237 130.021 658.183 130.544 658.081 131.036C658.033 131.284 657.965 131.521 657.879 131.727L657.733 131.976C657.684 132.088 657.643 131.951 657.645 132.131C657.713 131.993 657.648 132.071 657.596 131.956L657.437 131.679C657.343 131.461 657.26 131.232 657.187 130.995C657.037 130.521 656.924 130.032 656.816 129.547C656.025 125.631 655.653 121.887 655.311 118.5V118.543C655.339 117.857 655.295 117.204 655.092 116.56C654.991 116.244 654.841 115.923 654.572 115.672C654.307 115.416 653.924 115.3 653.584 115.312L653.656 115.32C653.121 115.224 652.729 115.549 652.507 115.871C652.279 116.201 652.176 116.56 652.097 116.905C651.951 117.605 651.953 118.272 651.92 118.909C651.871 120.192 651.862 121.399 651.899 122.527C651.942 124.801 652.453 126.685 652.635 128.235C652.867 129.784 653.039 130.987 653.115 131.797C653.199 132.183 652.888 132.431 652.725 132.495C652.539 132.576 652.428 132.588 652.431 132.604Z" fill="#AC584F"/>
<path d="M565.597 200.641C565.597 200.641 561.908 200.465 557.873 201.527C550.988 203.339 539.101 210.543 538.609 219.441H547.243C547.243 219.441 542.408 229.733 543.828 228.78C547.515 226.307 554.853 218.851 554.853 218.851L565.597 200.641Z" fill="#C0776A"/>
<path d="M683.367 45.7241C683.175 45.7401 682.391 38.6014 681.616 29.7814C680.84 20.9588 680.367 13.7948 680.557 13.7774C680.749 13.7614 681.532 20.8974 682.308 29.7214C683.084 38.5414 683.557 45.7068 683.367 45.7241Z" fill="#17282F"/>
<path d="M721.243 14.2134C721.399 14.3254 715.565 22.7907 708.215 33.1201C700.864 43.4534 694.777 51.7374 694.621 51.6281C694.465 51.5161 700.297 43.0521 707.649 32.7187C715 22.3881 721.087 14.1014 721.243 14.2134Z" fill="#17282F"/>
<path d="M736.978 52.5827C737.018 52.7707 730.21 54.3293 721.777 56.0627C713.34 57.796 706.472 59.0493 706.432 58.8613C706.394 58.6733 713.201 57.116 721.637 55.3827C730.072 53.6493 736.941 52.396 736.978 52.5827Z" fill="#17282F"/>
<path d="M283.5 235.724L236.352 478.123L230.18 509.854L544.931 508.302C559.056 508.232 571.575 495.69 576.119 477.056L631.931 248.207C635.381 234.061 627.811 219.348 617.089 219.359L298.524 219.693C291.491 219.701 285.34 226.264 283.5 235.724Z" fill="#3C1361"/>
<path d="M548.953 507.943C551.218 507.397 553.146 506.792 554.789 506.161C552.904 506.992 550.952 507.592 548.953 507.943Z" fill="#180D38"/>
<path d="M552.173 500.802C518.033 500.802 514.741 461.728 514.738 461.7L484.681 219.497L617.089 219.359C617.093 219.359 617.096 219.359 617.101 219.359C626.037 219.359 632.781 229.589 632.774 241.187C632.772 243.496 632.504 245.859 631.93 248.207L607.904 346.724L598.333 385.97L576.118 477.056C573.776 486.664 569.313 494.652 563.602 500.147C563.89 499.69 563.978 499.42 563.978 499.42C559.684 500.371 555.756 500.802 552.173 500.802Z" fill="#1E0C2E"/>
<path d="M514.739 461.7L481.413 193.156C480.048 182.153 471.283 173.945 460.933 173.979L387.859 174.217C382.449 174.236 377.264 176.535 373.423 180.619L338.724 217.504L135.488 218.565C123.069 218.629 113.527 230.381 115.173 243.585L146.115 491.788C147.484 502.776 156.233 510.973 166.568 510.953L520.763 510.253C560.212 511.071 563.979 499.42 563.979 499.42C518.768 509.439 514.743 461.731 514.739 461.7Z" fill="#3C1361"/>
<path d="M350.065 420.784L310.665 385.34L322.611 372.509L362.012 407.955L350.065 420.784ZM297.462 373.463L258.062 338.019L270.008 325.188L309.408 360.632L297.462 373.463Z" fill="#AA85CC"/>
<path d="M275.015 423.629L261.813 411.752L297.463 373.463L309.408 360.632L345.059 322.343L358.261 334.22L322.611 372.509L310.665 385.34L275.015 423.629Z" fill="#AA85CC"/>
<path d="M565.315 61.3774C564.464 61.0134 563.852 60.1841 563.808 59.1961L563.276 46.8187C563.241 46.0401 563.575 45.2894 564.175 44.7948C564.775 44.2974 565.575 44.1107 566.332 44.2907C568.321 44.7601 570.516 44.3281 572.352 43.1014C574.043 41.9734 575.177 40.3121 575.465 38.5427C575.753 36.7801 575.207 34.8281 573.969 33.1881C572.641 31.4334 570.681 30.2494 568.715 30.0254C564.7 29.5628 560.365 32.6387 559.249 36.7414C558.889 38.0681 557.523 38.8507 556.197 38.4907C554.849 38.1201 554.088 36.7627 554.448 35.4374C556.2 28.9867 562.856 24.3414 569.285 25.0814C572.619 25.4654 575.777 27.3281 577.937 30.1881C579.993 32.9081 580.881 36.2441 580.376 39.3441C579.867 42.4707 577.949 45.3481 575.115 47.2401C573.067 48.6067 570.716 49.3601 568.367 49.4427L568.78 58.9841C568.839 60.3561 567.773 61.5174 566.401 61.5747C566.016 61.5921 565.647 61.5201 565.315 61.3774Z" fill="#3C1361"/>
<path d="M568.963 66.4347C569.039 67.556 568.193 68.528 567.072 68.6053C565.951 68.6827 564.977 67.836 564.901 66.7133C564.824 65.5933 565.671 64.6213 566.792 64.544C567.915 64.4667 568.885 65.3133 568.963 66.4347Z" fill="#3C1361"/>
<path d="M522.47 43.9241C522.486 43.9241 522.528 43.6494 522.59 43.1121C522.653 42.5321 522.741 41.7428 522.852 40.7281C522.912 39.6734 523.181 38.3988 523.497 36.8961C523.672 36.1494 523.764 35.3187 524.037 34.4787C524.297 33.6334 524.573 32.7361 524.865 31.7867C526.154 28.0414 528.144 23.5521 531.494 19.0841C534.82 14.6267 539.496 10.2241 545.498 6.88675C548.453 5.12408 551.834 3.89607 555.377 2.81207C558.977 1.95874 562.792 1.22942 566.777 1.32275C568.77 1.21608 570.78 1.50807 572.826 1.68007C573.85 1.77874 574.857 2.05206 575.884 2.23072C576.912 2.42139 577.945 2.6214 578.952 2.97073C583.068 4.02673 587.066 5.96807 590.877 8.37474C598.526 13.1881 604.968 21.0161 608.501 30.5081C610.273 35.2561 611.121 40.4614 611.114 45.7187C611.22 50.9867 610.2 56.3387 608.325 61.3747L607.724 62.8974L607.644 63.0987L607.726 63.2867C611.07 70.9894 614.35 78.5441 617.529 85.8628L618.088 85.2268C611.202 82.5801 604.526 80.0161 598.121 77.5548L597.873 77.4601L597.68 77.6481C592.14 83.0147 585.524 86.6441 578.824 88.5334C572.104 90.4281 565.336 90.5254 559.18 89.4321C553.01 88.3387 547.456 85.9787 542.824 82.9454C538.178 79.9121 534.453 76.2241 531.581 72.4774C528.73 68.6867 526.852 64.8014 525.434 61.3321C524.186 57.7854 523.421 54.6374 523.05 52.0321C522.893 50.7307 522.753 49.5734 522.632 48.5641C522.605 47.5667 522.584 46.7187 522.565 46.0161C522.542 45.3614 522.526 44.8441 522.513 44.4548C522.497 44.1041 522.482 43.9241 522.47 43.9241C522.458 43.9241 522.448 44.1014 522.438 44.4534C522.433 44.8441 522.425 45.3601 522.418 46.0187C522.417 46.7241 522.414 47.5774 522.413 48.5801C522.516 49.5987 522.633 50.7654 522.765 52.0774C523.094 54.7081 523.822 57.8934 525.044 61.4934C526.437 65.0148 528.302 68.9654 531.157 72.8268C534.034 76.6468 537.786 80.4121 542.481 83.5188C547.162 86.6254 552.79 89.0534 559.053 90.1921C565.302 91.3308 572.182 91.2588 579.028 89.3534C585.852 87.4521 592.602 83.7734 598.262 78.3121L597.821 78.4054C604.224 80.8761 610.896 83.4507 617.778 86.1081L618.785 86.4961L618.34 85.4707C615.166 78.1481 611.89 70.5934 608.55 62.8881L608.553 63.2761L609.168 61.7214C611.085 56.5721 612.124 51.1001 612.016 45.7161C612.02 40.3427 611.144 35.0214 609.329 30.1721C605.709 20.4774 599.12 12.5108 591.316 7.62809C587.429 5.18542 583.352 3.22542 579.16 2.16142C578.134 1.81209 577.084 1.61075 576.037 1.42008C574.99 1.24141 573.966 0.968067 572.926 0.8734C570.845 0.7054 568.801 0.418728 566.777 0.534728C562.726 0.456062 558.852 1.2134 555.204 2.1014C551.609 3.22006 548.186 4.48675 545.198 6.29342C539.129 9.71609 534.422 14.2161 531.096 18.7588C527.745 23.3094 525.781 27.8734 524.532 31.6667C524.252 32.6281 523.985 33.5388 523.737 34.3948C523.476 35.2441 523.396 36.0841 523.233 36.8387C522.944 38.3587 522.701 39.6441 522.67 40.7067C522.597 41.7267 522.54 42.5227 522.498 43.1067C522.465 43.6467 522.454 43.9228 522.47 43.9241Z" fill="#17282F"/>
</svg>
