<svg width="186" height="300" viewBox="0 0 186 300" fill="none" xmlns="http://www.w3.org/2000/svg">
<defs>
<linearGradient id="paint0_linear_12_238" x1="4.36974" y1="28.5513" x2="150.13" y2="281.015" gradientUnits="userSpaceOnUse">
<stop stop-color="#D22A24"/>
<stop offset="1" stop-color="#941A1F"/>
</linearGradient>
<linearGradient id="paint1_linear_12_238" x1="34.6998" y1="117.93" x2="126.577" y2="277.066" gradientUnits="userSpaceOnUse">
<stop stop-color="#F14E1C"/>
<stop offset="1" stop-color="#F68C11"/>
</linearGradient>
<linearGradient id="paint2_linear_12_238" x1="68.4135" y1="213.451" x2="102.938" y2="273.25" gradientUnits="userSpaceOnUse">
<stop stop-color="#F68C11"/>
<stop offset="0.00512821" stop-color="#F68C11"/>
<stop offset="0.994872" stop-color="#F2F13B"/>
<stop offset="1" stop-color="#F2F13B"/>
</linearGradient>
</defs>
<mask id="mask0_12_238" style="mask-type:luminance" maskUnits="userSpaceOnUse" x="0" y="0" width="186" height="300">
<path d="M152.962 83.558C158.326 89.55 161.683 98.0806 161.683 107.553C161.683 125.683 149.398 140.381 134.244 140.381C119.09 140.381 105.414 125.63 106.804 107.553C110.235 62.9633 111.215 35.034 53.3964 0.245983C70.0564 12.0046 109.744 35.5246 71.0364 92.3633C62.2924 105.202 58.2964 116.371 60.9404 138.207C46.1244 108.234 54.3631 64.8446 65.6044 47.0046C51.3564 65.338 34.1351 83.7286 20.9458 108.342C7.75643 132.955 -1.40091 163.791 0.477757 207.019C0.685758 211.789 1.19641 216.329 1.93375 220.683C8.37508 265.322 46.7711 299.626 93.1937 299.626C144.128 299.626 185.226 258.335 185.419 207.401C185.656 145.45 176.463 103.337 152.962 83.558Z" fill="white"/>
</mask>
<g mask="url(#mask0_12_238)">
<path d="M152.962 83.558C158.326 89.55 161.683 98.0806 161.683 107.553C161.683 125.683 149.398 140.381 134.244 140.381C119.09 140.381 105.414 125.63 106.804 107.553C110.235 62.9633 111.215 35.034 53.3964 0.245983C70.0564 12.0046 109.744 35.5246 71.0364 92.3633C62.2924 105.202 58.2964 116.371 60.9404 138.207C46.1244 108.234 54.3631 64.8446 65.6044 47.0046C51.3564 65.338 34.1351 83.7286 20.9458 108.342C7.75643 132.955 -1.40091 163.791 0.477757 207.019C0.685758 211.789 1.19641 216.329 1.93375 220.683C8.37508 265.322 46.7711 299.626 93.1937 299.626C144.128 299.626 185.226 258.335 185.419 207.401C185.656 145.45 176.463 103.337 152.962 83.558Z" fill="url(#paint0_linear_12_238)"/>
</g>
<mask id="mask1_12_238" style="mask-type:luminance" maskUnits="userSpaceOnUse" x="31" y="93" width="120" height="196">
<path d="M129.517 155.205C132.948 158.887 135.095 164.13 135.095 169.951C135.095 181.095 127.237 190.129 117.545 190.129C107.853 190.129 99.1065 181.062 99.9958 169.951C102.191 142.547 101.273 105.351 77.2732 93.3513C87.9278 100.578 101.877 125.682 77.1199 160.615C71.5279 168.506 68.9718 175.371 70.6638 188.793C61.1878 170.37 66.4572 143.703 73.6452 132.738C64.5332 144.006 53.5185 155.309 45.0839 170.437C36.6479 185.565 30.7918 204.517 31.9932 231.085C32.1265 234.015 32.4865 236.801 32.9238 239.483C37.3918 266.863 61.6012 288.002 91.2918 288.002C123.868 288.002 150.152 262.623 150.276 231.319C150.427 193.243 144.548 167.361 129.517 155.205Z" fill="white"/>
</mask>
<g mask="url(#mask1_12_238)">
<path d="M129.517 155.205C132.948 158.887 135.095 164.13 135.095 169.951C135.095 181.095 127.237 190.129 117.545 190.129C107.853 190.129 99.1065 181.062 99.9958 169.951C102.191 142.547 101.273 105.351 77.2732 93.3513C87.9278 100.578 101.877 125.682 77.1199 160.615C71.5279 168.506 68.9718 175.371 70.6638 188.793C61.1878 170.37 66.4572 143.703 73.6452 132.738C64.5332 144.006 53.5185 155.309 45.0839 170.437C36.6479 185.565 30.7918 204.517 31.9932 231.085C32.1265 234.015 32.4865 236.801 32.9238 239.483C37.3918 266.863 61.6012 288.002 91.2918 288.002C123.868 288.002 150.152 262.623 150.276 231.319C150.427 193.243 144.548 167.361 129.517 155.205Z" fill="url(#paint1_linear_12_238)"/>
</g>
<mask id="mask2_12_238" style="mask-type:luminance" maskUnits="userSpaceOnUse" x="63" y="207" width="53" height="70">
<path d="M106.074 226.85C107.57 228.225 108.507 230.179 108.507 232.35C108.507 236.506 105.078 239.875 100.848 239.875C96.6175 239.875 92.8002 236.494 93.1882 232.35C94.1469 222.13 94.4202 215.729 78.2802 207.754C82.9309 210.45 94.0095 215.841 83.2042 228.869C80.7642 231.811 79.6482 234.371 80.3869 239.377C76.2509 232.507 78.5509 222.561 81.6882 218.471C77.7109 222.674 72.9042 226.89 69.2229 232.531C65.5415 238.173 62.9855 245.242 63.5095 255.15C63.5669 256.243 63.7095 257.283 63.9162 258.282C65.7135 268.514 76.4309 276.377 89.3895 276.377C103.607 276.377 115.079 266.913 115.134 255.237C115.199 241.037 112.632 231.385 106.074 226.85Z" fill="white"/>
</mask>
<g mask="url(#mask2_12_238)">
<path d="M106.074 226.85C107.57 228.225 108.507 230.179 108.507 232.35C108.507 236.506 105.078 239.875 100.848 239.875C96.6175 239.875 92.8002 236.494 93.1882 232.35C94.1469 222.13 94.4202 215.729 78.2802 207.754C82.9309 210.45 94.0095 215.841 83.2042 228.869C80.7642 231.811 79.6482 234.371 80.3869 239.377C76.2509 232.507 78.5509 222.561 81.6882 218.471C77.7109 222.674 72.9042 226.89 69.2229 232.531C65.5415 238.173 62.9855 245.242 63.5095 255.15C63.5669 256.243 63.7095 257.283 63.9162 258.282C65.7135 268.514 76.4309 276.377 89.3895 276.377C103.607 276.377 115.079 266.913 115.134 255.237C115.199 241.037 112.632 231.385 106.074 226.85Z" fill="url(#paint2_linear_12_238)"/>
</g>

</svg>
