<svg width="174" height="372" viewBox="0 0 174 372" fill="none" xmlns="http://www.w3.org/2000/svg">
<path d="M173.031 184.548V371.722C124.591 371.722 85.3213 332.453 85.3213 284.013V184.548C109.545 184.548 131.459 194.369 147.331 210.24C163.201 226.112 173.023 248.033 173.023 272.257V184.548H173.031Z" fill="#1D82CD"/>
<path d="M106.968 341.718C93.4883 326.292 85.3149 306.118 85.3149 284.012V184.545C94.8496 184.545 104.028 186.068 112.619 188.881C104.03 186.068 94.8549 184.548 85.3216 184.548V284.013C85.3216 306.096 93.4829 326.273 106.952 341.692C106.958 341.701 106.963 341.709 106.968 341.718ZM165.668 237.046C161.38 227.277 155.362 218.44 148.003 210.92C148.008 210.925 148.012 210.93 148.019 210.936C148.023 210.941 148.03 210.946 148.034 210.952C148.043 210.961 148.054 210.972 148.063 210.982C148.07 210.988 148.075 210.993 148.08 211C148.09 211.009 148.099 211.018 148.11 211.029C148.115 211.034 148.122 211.041 148.127 211.048C148.136 211.056 148.146 211.066 148.154 211.074C148.16 211.081 148.167 211.089 148.174 211.096C148.183 211.104 148.191 211.113 148.199 211.121C148.206 211.128 148.214 211.137 148.22 211.144C148.228 211.152 148.236 211.16 148.244 211.168C148.252 211.176 148.259 211.182 148.268 211.192C148.275 211.198 148.283 211.206 148.29 211.214C148.296 211.221 148.307 211.232 148.314 211.24C148.32 211.246 148.327 211.253 148.334 211.26C148.343 211.269 148.351 211.277 148.36 211.286C148.366 211.293 148.374 211.3 148.379 211.306C148.388 211.316 148.398 211.325 148.407 211.336C148.412 211.341 148.418 211.346 148.423 211.353C148.434 211.364 148.442 211.372 148.452 211.382C148.458 211.388 148.463 211.393 148.468 211.398C148.479 211.409 148.488 211.42 148.499 211.43C148.503 211.436 148.508 211.44 148.512 211.445C148.524 211.457 148.534 211.466 148.546 211.478C148.55 211.482 148.554 211.486 148.556 211.49C148.568 211.502 148.58 211.516 148.591 211.526C148.595 211.53 148.598 211.533 148.6 211.536C148.614 211.55 148.626 211.562 148.638 211.576C148.642 211.578 148.642 211.58 148.644 211.582C148.658 211.596 148.671 211.61 148.684 211.624C148.686 211.625 148.687 211.626 148.688 211.628C148.702 211.642 148.718 211.658 148.731 211.672V211.673C155.76 219.024 161.523 227.6 165.668 237.046Z" fill="#80838A"/>
<path d="M106.952 341.692C93.4826 326.273 85.3213 306.096 85.3213 284.013V184.548C94.8546 184.548 104.029 186.068 112.619 188.881C125.859 193.216 137.705 200.616 147.328 210.239C147.344 210.255 147.359 210.269 147.375 210.285C147.377 210.288 147.379 210.289 147.381 210.293C147.395 210.305 147.408 210.319 147.421 210.332C147.423 210.333 147.423 210.333 147.424 210.335C147.453 210.365 147.484 210.395 147.513 210.425L147.515 210.427C147.531 210.441 147.544 210.456 147.56 210.471C147.561 210.473 147.564 210.476 147.567 210.477C147.58 210.491 147.592 210.504 147.605 210.517C147.608 210.52 147.609 210.521 147.612 210.524C147.625 210.537 147.639 210.551 147.652 210.564C147.655 210.567 147.657 210.569 147.66 210.572C147.673 210.585 147.684 210.597 147.697 210.611C147.7 210.612 147.703 210.616 147.705 210.617C147.719 210.632 147.731 210.644 147.744 210.657C147.747 210.66 147.749 210.663 147.752 210.665C147.764 210.679 147.777 210.691 147.789 210.704C147.793 210.707 147.796 210.711 147.8 210.713C147.811 210.725 147.824 210.737 147.835 210.749C147.84 210.755 147.845 210.76 147.849 210.764C147.86 210.775 147.871 210.785 147.881 210.796C147.885 210.801 147.891 210.807 147.896 210.811C147.907 210.821 147.916 210.832 147.927 210.843C147.932 210.848 147.937 210.853 147.943 210.859C147.953 210.869 147.961 210.879 147.972 210.889C147.979 210.895 147.981 210.899 147.987 210.904C147.992 210.909 147.997 210.915 148.003 210.92C155.361 218.44 161.38 227.277 165.668 237.047C166.264 238.405 166.827 239.783 167.355 241.177V241.185C167.871 242.544 168.353 243.917 168.803 245.307C171.429 253.456 172.897 262.125 173.008 271.119V282.252C173.008 258.039 164.208 236.105 149.955 220.239C137.404 206.255 120.649 196.963 101.963 194.955C101.711 194.927 101.459 194.913 101.209 194.913C97.4546 194.913 94.3146 197.944 94.3146 201.792V294.012C94.3146 311.6 98.9626 327.977 106.952 341.692Z" fill="#1B4E7A"/>
<path d="M173.022 184.545V272.252C173.022 248.039 163.208 226.105 147.328 210.239C131.462 194.372 109.542 184.545 85.315 184.545V184.505C73.3683 184.185 62.0216 181.479 51.7283 176.839C21.235 163.105 0.00830078 132.452 0.00830078 96.8386H45.0216C70.0083 96.8386 95.6616 94.212 119.382 103.759C149.008 115.692 169.728 145.159 172.662 176.839C172.902 179.399 173.022 181.972 173.022 184.545Z" fill="#1EB6E6"/>
<path d="M173.022 184.545V272.252C173.022 248.039 163.208 226.105 147.328 210.239C131.462 194.372 109.542 184.545 85.315 184.545V184.505C73.3683 184.185 62.0216 181.479 51.7283 176.839C21.235 163.105 0.00830078 132.452 0.00830078 96.8386H45.0216C70.0083 96.8386 95.6616 94.212 119.382 103.759C149.008 115.692 169.728 145.159 172.662 176.839C172.902 179.399 173.022 181.972 173.022 184.545Z" fill="#1EB6E6"/>
<path d="M170.287 250.435C169.478 247.276 168.496 244.185 167.355 241.175V241.171C168.496 244.183 169.478 247.276 170.287 250.435ZM0.188298 102.505H0.181641C0.150974 101.979 0.124311 101.451 0.101644 100.921C0.125644 101.452 0.154964 101.977 0.188298 102.505ZM0.00830078 96.9319C0.00830078 96.8999 0.00830078 96.8693 0.00830078 96.8386C0.00830078 96.8693 0.00830078 96.9012 0.00830078 96.9319Z" fill="white"/>
<path d="M173.022 272.116C173.022 272.108 173.022 272.1 173.022 272.09C173.022 272.098 173.022 272.109 173.022 272.116ZM173.022 272.048C173.022 272.04 173.022 272.03 173.022 272.022C173.022 272.032 173.022 272.038 173.022 272.048ZM173.022 271.98C173.022 271.97 173.022 271.962 173.022 271.954C173.022 271.961 173.022 271.972 173.022 271.98ZM173.02 271.909C173.02 271.902 173.02 271.894 173.02 271.888C173.02 271.894 173.02 271.901 173.02 271.909ZM173.02 271.698C173.02 271.693 173.02 271.686 173.02 271.681C173.02 271.688 173.02 271.692 173.02 271.698ZM170.868 252.849C170.29 250.29 169.599 247.774 168.803 245.306C168.354 243.914 167.871 242.537 167.355 241.177V241.174C168.496 244.185 169.478 247.276 170.287 250.434C170.491 251.236 170.686 252.04 170.868 252.849Z" fill="#22B6D2"/>
<path d="M168.803 245.306C168.354 243.917 167.871 242.543 167.355 241.185V241.177C167.871 242.537 168.354 243.914 168.803 245.306Z" fill="#25A0E1"/>
<path d="M173.022 272.252C173.022 272.229 173.022 272.207 173.022 272.184C173.022 272.177 173.022 272.171 173.022 272.163C173.022 272.148 173.022 272.132 173.022 272.116C173.022 272.109 173.022 272.099 173.022 272.091C173.022 272.077 173.022 272.063 173.022 272.048C173.022 272.039 173.022 272.032 173.022 272.023C173.022 272.008 173.022 271.995 173.022 271.98C173.022 271.972 173.022 271.961 173.022 271.955C173.022 271.939 173.02 271.924 173.02 271.909C173.02 271.901 173.02 271.895 173.02 271.888C173.02 271.872 173.02 271.857 173.02 271.841C173.02 271.833 173.02 271.825 173.02 271.819C173.02 271.801 173.02 271.784 173.02 271.767C173.02 271.761 173.02 271.757 173.02 271.752C173.02 271.733 173.02 271.716 173.02 271.699C173.02 271.692 173.02 271.688 173.02 271.681C173.019 271.612 173.019 271.543 173.018 271.473C173.018 271.472 173.018 271.469 173.018 271.468C173.018 271.448 173.018 271.427 173.018 271.407C173.018 271.401 173.018 271.396 173.018 271.391C173.018 271.372 173.018 271.353 173.016 271.335C173.016 271.332 173.016 271.328 173.016 271.325C173.016 271.305 173.016 271.285 173.016 271.264C173.016 271.261 173.016 271.259 173.016 271.256C173.016 271.235 173.015 271.215 173.015 271.193C173.015 271.191 173.015 271.189 173.015 271.187C173.015 271.165 173.015 271.145 173.015 271.125C173.015 271.121 173.015 271.119 173.015 271.116C172.935 264.849 172.199 258.737 170.868 252.849C170.686 252.04 170.491 251.236 170.287 250.435C169.478 247.276 168.496 244.183 167.355 241.171V190.212C167.355 187.639 167.235 185.065 166.995 182.505C164.062 150.825 143.342 121.359 113.715 109.425C98.415 103.268 82.3096 102.175 66.099 102.175C57.1776 102.175 48.2243 102.505 39.355 102.505H0.188298C0.154964 101.977 0.125644 101.452 0.101644 100.921C0.0443105 99.6013 0.00963411 98.2693 0.00830078 96.9319C0.00830078 96.9013 0.00830078 96.8693 0.00830078 96.8386H45.0216C53.8896 96.8386 62.8456 96.5079 71.7656 96.5079C87.9776 96.5079 104.08 97.6 119.382 103.759C149.008 115.692 169.728 145.159 172.662 176.839C172.902 179.399 173.022 181.972 173.022 184.545V272.252Z" fill="#20B6CF"/>
<path d="M173.021 44.7519C173.021 68.9692 153.389 88.6025 129.171 88.6025C104.953 88.6025 85.3213 68.9692 85.3213 44.7519C85.3213 20.5346 104.953 0.90121 129.171 0.90121C153.389 0.90121 173.021 20.5346 173.021 44.7519Z" fill="#1EB6E6"/>
<path d="M173.021 44.7519C173.021 68.9692 153.389 88.6025 129.171 88.6025C104.953 88.6025 85.3213 68.9692 85.3213 44.7519C85.3213 20.5346 104.953 0.90121 129.171 0.90121C153.389 0.90121 173.021 20.5346 173.021 44.7519Z" fill="#1EB6E6"/>
<path d="M173.021 44.7519C173.021 68.9692 153.389 88.6025 129.171 88.6025C104.953 88.6025 85.3213 68.9692 85.3213 44.7519C85.3213 20.5346 104.953 0.90121 129.171 0.90121C153.389 0.90121 173.021 20.5346 173.021 44.7519Z" fill="#1EB6E6"/>
<path d="M104.831 81.2314C93.0656 73.3688 85.3149 59.9688 85.3149 44.7581C85.3149 35.4475 88.215 26.8181 93.163 19.7208C88.2203 26.8181 85.3216 35.4461 85.3216 44.7515C85.3216 59.9648 93.067 73.3674 104.831 81.2314Z" fill="#C0C3C4"/>
<path d="M159.786 76.145C159.787 76.145 159.79 76.1424 159.79 76.1424C159.788 76.1424 159.787 76.145 159.786 76.145ZM159.814 76.1184C160.931 75.0264 161.988 73.8783 162.984 72.6743C162.987 72.6717 162.991 72.6677 162.995 72.665C161.996 73.8717 160.935 75.025 159.814 76.1184Z" fill="#C0C3C4"/>
<path d="M129.168 88.5986C120.165 88.5986 111.795 85.8853 104.831 81.232C93.0666 73.368 85.3213 59.9653 85.3213 44.752C85.3213 35.4467 88.22 26.8187 93.1626 19.7213C95.4413 16.452 98.156 13.5066 101.221 10.972C94.9413 18.5586 91.1813 28.2787 91.1813 38.892C91.1813 63.1053 110.821 82.732 135.035 82.732C145.656 82.732 155.399 78.9626 162.984 72.6746C161.988 73.8786 160.931 75.0267 159.813 76.1187C159.805 76.1267 159.799 76.1346 159.789 76.1426C159.789 76.1426 159.787 76.1453 159.785 76.1453C151.877 83.852 141.079 88.5986 129.168 88.5986Z" fill="#15A5CF"/>
<path d="M155.32 76.0317C160.7 69.1811 163.911 60.5411 163.911 51.1424C163.911 28.8877 145.872 10.8357 123.617 10.8357C114.219 10.8357 105.579 14.0477 98.728 19.4397C106.093 10.0757 117.539 4.07177 130.383 4.07177C152.649 4.07177 170.688 22.1104 170.688 44.3771C170.688 57.2211 164.683 68.6664 155.32 76.0317Z" fill="#20B6CF"/>
</svg>
