<svg width="421" height="441" viewBox="0 0 421 441" fill="none" xmlns="http://www.w3.org/2000/svg">
<path d="M47.574 268.593C56.0694 247.636 76.2694 239.833 83.248 226.601C92.392 209.263 92.34 183.256 84.5547 173.872C77.7907 165.716 55.3894 220.861 52.8667 227.021C44.188 248.213 41.6651 263.939 40.0386 279.173C40.2235 266.224 40.4011 254.333 40.5464 245.159C41.0208 215.233 41.6136 205.609 41.8844 202.648C42.8198 201.201 43.924 199.516 44.5656 198.612C49.9864 190.968 62.0147 181.869 68.0254 170.759C76.8014 154.536 75.384 135.12 69.228 127.891C62.7907 120.331 51.412 138.197 45.3698 155.9C39.3282 173.603 41.9099 190.545 40.2156 205.248C39.8615 208.132 39.497 219.084 39.1552 234.276C37.323 217.931 33.6714 206.979 26.9063 196.775C18.585 184.223 11.4006 168.939 4.5443 170.913C-2.3125 172.889 1.37817 193.112 6.8031 207.311C11.6339 219.953 35.4651 232.565 38.9755 242.731C38.562 263.324 38.1932 289.412 37.9303 313.703C36.0516 301.156 37.3438 300.103 29.6448 280.893C25.0678 269.475 6.3031 255.392 4.06563 263.237C1.86977 270.939 5.22924 285.913 12.3131 296.3C18.0271 304.677 30.7068 304.669 33.6407 309.867C34.3251 311.08 36.588 315.729 37.8807 318.403C37.5746 348.059 37.4375 374.233 37.5896 383.16L38.8194 383.249C38.761 380.945 38.9094 365.86 39.15 345.896C42.2287 335.275 62.956 329.073 69.3587 318.028C76.06 306.467 80.8747 292.977 78.0014 283.944C75.6054 276.412 56.7174 286.655 49.0511 299.135C43.9459 307.447 40.8271 316.319 39.3714 328.236C39.5464 314.639 39.7443 300.027 39.9386 286.237C41.4886 282.8 45.0282 274.875 47.574 268.593Z" fill="#D6D4A6"/>
<path d="M59.7453 396.596H16.1787C13.7979 396.596 11.7469 394.919 11.2735 392.585L8.18066 377.339H67.744L64.6507 392.585C64.1773 394.919 62.1267 396.596 59.7453 396.596Z" fill="#4B2604"/>
<path d="M68.9893 383.249H6.93491C5.44785 383.249 4.19837 382.132 4.03171 380.655L2.76305 369.383C2.56825 367.651 3.92344 366.135 5.66611 366.135H70.2586C72.0013 366.135 73.356 367.651 73.1613 369.383L71.892 380.655C71.7253 382.132 70.476 383.249 68.9893 383.249Z" fill="#9E4C00"/>
<path d="M254.976 277.34C254.544 277.34 254.18 277.705 254.18 278.136V280.659C254.18 281.089 254.544 281.453 254.976 281.453H384.176C384.607 281.453 384.972 281.089 384.972 280.659V278.136C384.972 277.705 384.607 277.34 384.176 277.34H254.976ZM384.176 284.12H254.976C253.067 284.12 251.513 282.567 251.513 280.659V278.136C251.513 276.227 253.067 274.673 254.976 274.673H384.176C386.085 274.673 387.639 276.227 387.639 278.136V280.659C387.639 282.567 386.085 284.12 384.176 284.12Z" fill="white"/>
<path d="M254.976 341.542C254.544 341.542 254.18 341.906 254.18 342.337V344.859C254.18 345.289 254.544 345.655 254.976 345.655H384.176C384.607 345.655 384.972 345.289 384.972 344.859V342.337C384.972 341.906 384.607 341.542 384.176 341.542H254.976ZM384.176 348.321H254.976C253.067 348.321 251.513 346.768 251.513 344.859V342.337C251.513 340.428 253.067 338.875 254.976 338.875H384.176C386.085 338.875 387.639 340.428 387.639 342.337V344.859C387.639 346.768 386.085 348.321 384.176 348.321Z" fill="white"/>
<path d="M417.521 118.327L416.191 118.24L416.7 110.387L418.031 110.473L417.521 118.327Z" fill="#5F1F99"/>
<path d="M418.423 104.415L417.091 104.328L418.761 78.5254L420.092 78.6107L418.423 104.415Z" fill="#5F1F99"/>
<path d="M402.92 41.0453H246.181C237.971 41.0453 230.819 47.7627 230.287 55.9733L210.044 368.639C209.513 376.848 215.796 383.565 224.005 383.565H380.745C388.955 383.565 396.107 376.848 396.639 368.639L416.881 55.9733C417.413 47.7627 411.131 41.0453 402.92 41.0453Z" fill="#3C1361"/>
<path d="M375.769 383.565H224.005C216.116 383.565 210.007 377.363 210.013 369.594C210.013 369.277 210.024 368.96 210.044 368.639L215.352 286.656H218.116L213.653 355.605C213.483 358.236 215.571 360.464 218.208 360.464H385.149C387.556 360.464 389.548 358.596 389.704 356.195L408.021 73.272C408.192 70.64 406.104 68.4133 403.467 68.4133H236.525C234.119 68.4133 232.125 70.2813 231.969 72.6826L227.172 146.779H224.408L218.235 242.144L230.287 55.9733C230.819 47.7627 237.971 41.0453 246.181 41.0453H397.944C406.155 41.0453 412.437 47.7627 411.905 55.9733L391.663 368.639C391.132 376.848 383.979 383.565 375.769 383.565Z" fill="#AD7FD8"/>
<path d="M385.149 360.464H218.208C215.571 360.464 213.483 358.236 213.653 355.605L231.969 72.6827C232.125 70.2814 234.119 68.4134 236.525 68.4134H403.467C406.104 68.4134 408.192 70.64 408.021 73.272L389.704 356.195C389.548 358.596 387.556 360.464 385.149 360.464Z" fill="white"/>
<path d="M348.051 59.152H287.373C286.037 59.152 285.024 58.0694 285.111 56.7334C285.197 55.3974 286.351 54.3147 287.687 54.3147H348.364C349.7 54.3147 350.712 55.3974 350.625 56.7334C350.54 58.0694 349.387 59.152 348.051 59.152Z" fill="white"/>
<path d="M300.691 372.351C300.521 375.633 297.723 378.294 294.44 378.294C291.159 378.294 288.635 375.633 288.804 372.351C288.973 369.068 291.772 366.407 295.055 366.407C298.337 366.407 300.861 369.068 300.691 372.351Z" fill="white"/>
<path d="M218.116 286.656H215.352L218.235 242.144L224.408 146.779H227.172L218.116 286.656Z" fill="#B182DB"/>
<path d="M366.961 286.656H218.116L227.172 146.779H366.961C375.172 146.779 381.889 153.497 381.889 161.707V271.728C381.889 279.939 375.172 286.656 366.961 286.656Z" fill="#A87ECD"/>
<path d="M353.684 274.216H178.977C170.767 274.216 164.049 267.499 164.049 259.288V149.267C164.049 141.057 170.767 134.339 178.977 134.339H353.684C361.895 134.339 368.612 141.057 368.612 149.267V259.288C368.612 267.499 361.895 274.216 353.684 274.216Z" fill="#3C1361"/>
<path d="M159.284 132.736C158.943 132.736 158.601 132.605 158.341 132.345L155.951 129.955C155.429 129.433 155.429 128.589 155.951 128.069C156.472 127.548 157.315 127.548 157.836 128.069L160.227 130.46C160.748 130.98 160.748 131.824 160.227 132.345C159.967 132.605 159.625 132.736 159.284 132.736Z" fill="#A26AD6"/>
<path d="M155.681 141.101H152.301C151.564 141.101 150.968 140.504 150.968 139.768C150.968 139.032 151.564 138.435 152.301 138.435H155.681C156.419 138.435 157.015 139.032 157.015 139.768C157.015 140.504 156.419 141.101 155.681 141.101Z" fill="#A26AD6"/>
<path d="M167.769 129.128C167.077 129.128 166.491 128.592 166.441 127.891L166.201 124.519C166.147 123.784 166.701 123.145 167.435 123.093C168.184 123.039 168.808 123.593 168.86 124.328L169.1 127.7C169.153 128.435 168.6 129.072 167.867 129.125L167.769 129.128Z" fill="#A26AD6"/>
<path d="M281.259 259.841L334.887 313.469V259.841H281.259Z" fill="#3C1361"/>
<path d="M295.957 236.343L293.36 225.019C292.68 222.049 292.672 218.963 293.337 215.989L296.952 199.859C300.173 185.477 292.875 171.109 280.228 164.787C280.335 164.487 280.459 164.196 280.531 163.876C281.452 159.763 278.864 155.681 274.752 154.76C270.639 153.839 266.557 156.425 265.636 160.539C265.564 160.859 265.552 161.175 265.521 161.492C251.385 161.815 238.653 171.695 235.431 186.076L231.817 202.207C231.151 205.18 229.827 207.967 227.944 210.363L220.763 219.497C217.701 223.392 219.752 229.148 224.585 230.231L287.92 244.421C292.755 245.504 297.065 241.172 295.957 236.343Z" fill="white"/>
<path d="M248.127 239.841C246.043 239.375 244.172 241.183 244.529 243.288C245.253 247.539 248.465 251.139 252.935 252.14C257.403 253.141 261.844 251.256 264.312 247.721C265.535 245.969 264.613 243.535 262.529 243.068L248.127 239.841Z" fill="white"/>
<path d="M199.489 217.373C198.844 217.373 198.211 217.06 197.825 216.484C191.48 206.981 189.216 195.579 191.449 184.375C193.683 173.169 200.145 163.505 209.647 157.163C210.565 156.548 211.807 156.796 212.421 157.715C213.035 158.633 212.787 159.876 211.868 160.489C203.256 166.24 197.397 175 195.372 185.156C193.349 195.312 195.401 205.649 201.151 214.263C201.764 215.181 201.517 216.423 200.599 217.036C200.257 217.264 199.871 217.373 199.489 217.373Z" fill="white"/>
<path d="M207.967 211.713C207.32 211.713 206.688 211.4 206.303 210.824C201.471 203.587 199.745 194.9 201.447 186.365C203.147 177.832 208.071 170.472 215.308 165.64C216.224 165.025 217.468 165.273 218.081 166.192C218.695 167.111 218.447 168.353 217.529 168.967C211.18 173.204 206.863 179.663 205.368 187.148C203.876 194.635 205.389 202.253 209.628 208.603C210.241 209.521 209.993 210.763 209.076 211.376C208.735 211.604 208.348 211.713 207.967 211.713Z" fill="white"/>
<path d="M216.444 206.055C215.799 206.055 215.165 205.741 214.78 205.165C211.459 200.192 210.273 194.224 211.443 188.359C212.611 182.495 215.993 177.437 220.967 174.116C221.884 173.501 223.125 173.751 223.74 174.669C224.353 175.588 224.105 176.831 223.188 177.444C219.103 180.169 216.325 184.324 215.367 189.141C214.405 193.957 215.379 198.859 218.105 202.944C218.719 203.863 218.472 205.104 217.553 205.717C217.212 205.945 216.827 206.055 216.444 206.055Z" fill="white"/>
<path d="M314.797 245.521C314.073 245.521 313.373 245.127 313.019 244.44C312.512 243.457 312.897 242.251 313.877 241.744C323.081 236.995 329.881 228.944 333.031 219.077C336.177 209.211 335.293 198.709 330.541 189.507C330.035 188.527 330.421 187.32 331.401 186.812C332.383 186.308 333.589 186.691 334.096 187.672C339.337 197.824 340.312 209.408 336.84 220.292C333.368 231.177 325.865 240.059 315.713 245.299C315.42 245.449 315.105 245.521 314.797 245.521Z" fill="white"/>
<path d="M310.121 236.465C309.397 236.465 308.699 236.071 308.343 235.384C307.836 234.401 308.221 233.195 309.201 232.688C315.985 229.185 320.999 223.252 323.319 215.98C325.639 208.707 324.987 200.965 321.484 194.183C320.979 193.201 321.364 191.996 322.344 191.488C323.325 190.984 324.532 191.365 325.039 192.348C329.032 200.08 329.773 208.904 327.129 217.195C324.484 225.485 318.769 232.249 311.037 236.243C310.744 236.393 310.431 236.465 310.121 236.465Z" fill="white"/>
<path d="M305.445 227.408C304.721 227.408 304.023 227.013 303.667 226.327C303.16 225.344 303.545 224.137 304.527 223.631C308.891 221.379 312.116 217.56 313.608 212.883C315.1 208.203 314.683 203.224 312.428 198.86C311.923 197.879 312.308 196.671 313.288 196.165C314.271 195.661 315.476 196.043 315.983 197.024C321.645 207.992 317.329 221.521 306.363 227.185C306.068 227.336 305.756 227.408 305.445 227.408Z" fill="white"/>
<path d="M188.145 54.5281H177.959C177.425 54.5281 176.943 54.9641 176.887 55.4974L174.749 75.8174C174.693 76.3507 175.084 76.7867 175.617 76.7867H185.804C186.337 76.7867 186.82 76.3507 186.876 75.8174L189.013 55.4974C189.069 54.9641 188.679 54.5281 188.145 54.5281Z" fill="#3C1361"/>
<path d="M184.889 76.7867H175.617C175.117 76.7867 174.743 76.4027 174.744 75.9161C174.744 75.8827 174.747 75.8507 174.749 75.8174L176.887 55.4974C176.943 54.9641 177.425 54.5281 177.959 54.5281H187.229C187.763 54.5281 188.153 54.9641 188.097 55.4974L185.961 75.8174C185.905 76.3507 185.423 76.7867 184.889 76.7867Z" fill="#976EBC"/>
<path d="M138.713 428.168C138.893 428.168 139.061 428.185 139.211 428.227C139.449 428.289 139.619 428.407 139.727 428.583C139.921 428.9 139.863 429.059 139.801 429.149C139.329 429.847 136.601 429.863 134.581 429.578C135.56 429.064 137.452 428.168 138.713 428.168ZM137.093 430.261C138.479 430.261 139.808 430.069 140.229 429.448C140.377 429.229 140.485 428.859 140.16 428.331C139.977 428.033 139.696 427.832 139.323 427.731C137.505 427.243 133.825 429.394 133.669 429.485L133.556 429.748L133.768 429.957C134.463 430.096 135.801 430.261 137.093 430.261Z" fill="#3C1361"/>
<path d="M136.261 425.585L136.415 425.594C136.877 425.64 136.915 425.821 136.927 425.882C137.077 426.614 135.403 428.449 134.108 429.248C134.209 428.397 134.519 426.659 135.388 425.919C135.649 425.695 135.937 425.585 136.261 425.585ZM133.819 429.963L133.923 429.942C135.2 429.355 137.679 427.02 137.428 425.799C137.369 425.512 137.151 425.156 136.444 425.085C135.917 425.032 135.449 425.178 135.045 425.523C133.721 426.652 133.559 429.56 133.551 429.683L133.667 429.915L133.819 429.963Z" fill="#3C1361"/>
<path d="M121.935 429.707H132.732L132.713 404.704H121.916L121.935 429.707Z" fill="#F8A58D"/>
<path d="M43.5974 417.789L54.3814 418.956L61.4187 394.687L50.6334 393.52L43.5974 417.789Z" fill="#F8A58D"/>
<path d="M61.5041 419.809C61.6801 419.853 61.8401 419.912 61.9761 419.988C62.1947 420.108 62.3307 420.261 62.3947 420.457C62.5067 420.811 62.4094 420.947 62.3267 421.017C61.6921 421.569 59.0147 420.912 57.1054 420.142C58.1921 419.892 60.2681 419.499 61.5041 419.809ZM59.3987 421.416C60.7561 421.757 62.1067 421.902 62.6734 421.409C62.8721 421.237 63.0681 420.908 62.8801 420.321C62.7761 419.994 62.5494 419.729 62.2081 419.542C60.5481 418.625 56.4107 419.778 56.2361 419.828L56.0601 420.052L56.2147 420.305C56.8614 420.608 58.1334 421.097 59.3987 421.416Z" fill="#3C1361"/>
<path d="M59.7386 416.729L59.8879 416.776C60.3292 416.935 60.3199 417.116 60.3172 417.177C60.2839 417.916 58.1906 419.263 56.7239 419.708C57.0332 418.92 57.7652 417.328 58.8012 416.835C59.1119 416.684 59.4212 416.651 59.7386 416.729ZM56.2625 420.323L56.3706 420.327C57.7666 420.08 60.7732 418.455 60.8292 417.224C60.8425 416.933 60.7159 416.539 60.0425 416.295C59.5385 416.114 59.0439 416.141 58.5625 416.371C56.9865 417.124 56.1079 419.872 56.0706 419.988L56.1265 420.239L56.2625 420.323Z" fill="#3C1361"/>
<path d="M54.96 417.959L43.1645 414.573C42.7354 414.449 42.2912 414.637 42.0958 415.025L37.7464 423.645C37.2953 424.54 37.8322 425.663 38.8281 425.931C42.9636 427.043 45.0229 427.378 50.2104 428.866C53.4013 429.783 59.896 431.997 64.3026 433.263C68.6133 434.5 70.348 430.389 68.64 429.481C60.9813 425.412 58.5293 422.128 56.5066 419.085C56.1426 418.537 55.588 418.139 54.96 417.959Z" fill="#17282F"/>
<path d="M132.605 428.456H120.815C120.373 428.456 120.005 428.764 119.928 429.194L118.215 438.79C118.037 439.785 118.833 440.728 119.852 440.712C124.103 440.639 130.237 440.39 135.583 440.39C141.833 440.39 145.253 440.731 152.584 440.731C157.016 440.731 158.051 436.249 156.177 435.844C147.649 433.997 142.739 433.797 135.243 429.297C134.429 428.809 133.537 428.456 132.605 428.456Z" fill="#17282F"/>
<path d="M121.925 417.599H121.921L121.913 408.249H121.919L121.925 417.599ZM121.919 407.916H121.913L121.909 404.711H121.916L121.919 407.916Z" fill="#C3C5C2"/>
<path d="M121.913 408.249H121.919V407.916H121.913V408.249Z" fill="#B1B3B1"/>
<path d="M132.723 417.599H121.925L121.919 408.249V407.916L121.916 404.711H132.711L132.723 417.599Z" fill="#8F4934"/>
<path d="M47.004 406.037L46.9968 406.036L47.8406 403.131L47.8468 403.132L47.004 406.037Z" fill="#C3C5C2"/>
<path d="M57.5093 408.157L47.0042 406.037L47.8469 403.132L58.4093 405.059L57.5093 408.157Z" fill="#8F4934"/>
<path d="M114.956 156.103C114.956 156.103 109.005 237.583 103.631 268.495C97.7453 302.344 63.5387 405.995 63.5387 405.995L43.9333 402.417C43.9333 402.417 68.6374 305.077 71.3747 271.563C74.3467 235.187 77.92 160.207 77.92 160.207L114.956 156.103Z" fill="#3C1361"/>
<path d="M103.589 268.732C103.603 268.653 103.617 268.573 103.631 268.495C105.811 255.957 108.085 235.105 110.019 214.741C108.087 235.1 105.815 255.956 103.631 268.501C103.616 268.577 103.603 268.655 103.589 268.732Z" fill="#A7A9A8"/>
<path d="M101.001 280.891C101.991 246.379 102.02 202.048 104.915 189.937C105.172 188.868 105.507 188.373 105.907 188.373C107.184 188.373 109.124 193.42 111.295 200.865C110.891 205.392 110.464 210.055 110.019 214.741C108.085 235.105 105.811 255.957 103.631 268.495C103.617 268.573 103.603 268.653 103.589 268.732C102.984 272.141 102.099 276.255 101.001 280.891Z" fill="#150325"/>
<path d="M135.317 153.847C135.317 153.847 143.153 235.796 143.419 268.721C143.695 302.968 136.637 415.102 136.637 415.102H118.347C118.347 415.102 112.859 304.969 110.575 271.336C108.084 234.669 97.5879 158.028 97.5879 158.028L135.317 153.847Z" fill="#3C1361"/>
<path d="M67.6734 399.399L64.6027 406.499L42.5454 402.475L43.8839 395.884L67.6734 399.399Z" fill="#17282F"/>
<path d="M139.837 407.817L139.137 415.411H116.889L115.991 408.633L139.837 407.817Z" fill="#17282F"/>
<path d="M78.492 80.8107C77.0266 83.6574 75.4173 86.6387 73.94 89.5894L69.4613 98.464C68.0106 101.431 66.5906 104.399 65.216 107.367C63.8893 110.345 62.5866 113.309 61.4333 116.269L61.3333 111.595C62.16 113.935 62.9786 116.325 64.136 118.616C64.6573 119.784 65.3133 120.901 65.8933 122.064C66.5533 123.185 67.1866 124.329 67.9106 125.431C69.3026 127.667 70.8373 129.855 72.492 131.975C73.3213 133.029 74.1506 134.099 75.0306 135.121C75.8906 136.119 76.8666 137.183 77.6453 138.049L77.912 138.347C79.332 139.925 79.2013 142.357 77.6213 143.776C76.3693 144.9 74.5786 145.048 73.184 144.276C71.66 143.428 70.4373 142.641 69.148 141.736C67.8853 140.848 66.6386 139.935 65.4413 138.956C63.044 137.007 60.8066 134.851 58.6973 132.539C56.6013 130.22 54.6253 127.74 52.8986 125.053C51.112 122.408 49.6229 119.523 48.2812 116.551C47.6844 115.228 47.6193 113.8 47.9964 112.508L48.1812 111.876C49.1989 108.399 50.3317 105.019 51.5853 101.713C52.8333 98.416 54.1706 95.1734 55.584 91.9827C56.988 88.7894 58.484 85.6493 60.0373 82.5413C61.6346 79.4347 63.1706 76.3947 64.98 73.2894C67.1306 69.5987 71.8653 68.3507 75.556 70.5013C79.1213 72.58 80.4066 77.072 78.548 80.7027L78.492 80.8107Z" fill="#F8A58D"/>
<path d="M86.1506 76.0894C86.6813 86.2574 75.1333 104.944 75.1333 104.944L51.3586 93.064C51.3586 93.064 55.4146 80.176 64.528 70.0947C77.1133 56.1734 85.6586 66.6734 86.1506 76.0894Z" fill="#17282F"/>
<path d="M70.0359 142.377L74.8226 150.38L84.7826 144.007C84.7826 144.007 82.1359 138.917 77.0399 137.037C75.5252 136.479 73.8079 137.199 72.9892 138.728L70.0359 142.377Z" fill="#F8A58D"/>
<path d="M78.8174 153.785L83.4454 152.92C85.0841 152.613 86.1588 151.029 85.8374 149.393L84.7827 144.007L74.8228 150.38L75.4961 151.993C76.0427 153.299 77.4267 154.045 78.8174 153.785Z" fill="#F8A58D"/>
<path d="M106.9 24.9441C107.005 25.8174 107.545 26.4881 108.108 26.4441C108.671 26.3987 109.043 25.6561 108.937 24.7827C108.833 23.9094 108.293 23.2387 107.731 23.2827C107.168 23.3281 106.796 24.0721 106.9 24.9441Z" fill="#17282F"/>
<path d="M107.467 26.4947C107.467 26.4947 110.025 31.3747 112.471 33.6334C111.12 35.1947 108.452 34.7414 108.452 34.7414L107.467 26.4947Z" fill="#E67E60"/>
<path d="M103.169 20.3467C103.307 20.364 103.447 20.3254 103.555 20.2294C105.208 18.7627 106.995 19.256 107.069 19.276C107.344 19.3534 107.617 19.1987 107.685 18.928C107.752 18.656 107.589 18.372 107.317 18.2907C107.223 18.2614 104.933 17.608 102.865 19.444C102.657 19.628 102.645 19.952 102.836 20.1693C102.925 20.272 103.047 20.332 103.169 20.3467Z" fill="#17282F"/>
<path d="M80.0281 34.6014C82.5774 42.3121 85.9627 56.5507 81.1281 62.2467C81.1281 62.2467 84.3014 70.0214 98.9254 68.7894C115.008 67.4347 105.589 60.1881 105.589 60.1881C96.5454 58.8401 95.9387 52.3321 96.6854 46.1107L80.0281 34.6014Z" fill="#F8A58D"/>
<path d="M77.684 65.068C76.168 62.656 74.4893 59.892 77.344 58.864C80.4853 57.7333 98.076 55.892 104.341 57.4333C110.605 58.9733 109.337 64.0747 109.337 64.0747L77.684 65.068Z" fill="#3C1361"/>
<path d="M129.213 68.3187C131.508 70.4281 133.988 72.7534 136.452 74.8921C138.916 77.0787 141.417 79.2134 143.92 81.3201C146.447 83.3934 148.991 85.4134 151.559 87.3454C154.148 89.2227 156.741 91.0334 159.363 92.6187L154.013 92.1201C155.991 91.6214 158.125 90.6681 160.209 89.2481C162.287 87.8321 164.364 86.0801 166.303 84.0747C168.273 82.0987 170.127 79.8854 171.917 77.5801C172.807 76.4227 173.703 75.2494 174.543 74.0374C175.368 72.8467 176.228 71.5467 176.964 70.4307L177.108 70.2107C178.28 68.4347 180.668 67.9441 182.444 69.1161C183.888 70.0681 184.479 71.8294 184.021 73.4067C183.517 75.1387 182.989 76.6187 182.368 78.1761C181.759 79.7094 181.121 81.2401 180.396 82.7347C178.945 85.7254 177.277 88.6467 175.293 91.4614C173.295 94.2547 171.021 96.9867 168.223 99.4227C165.443 101.855 162.116 104.057 158.165 105.451C156.492 106.04 154.737 105.889 153.259 105.169L152.816 104.951C149.433 103.289 146.245 101.463 143.193 99.5014C140.155 97.5401 137.233 95.4707 134.4 93.3187C131.569 91.1694 128.836 88.9227 126.169 86.6081C123.508 84.2427 120.943 81.9707 118.345 79.3201C115.357 76.2694 115.408 71.3734 118.459 68.3854C121.407 65.4961 126.079 65.4467 129.087 68.2014L129.213 68.3187Z" fill="#F8A58D"/>
<path d="M121.073 61.4067C121.073 61.4067 134.507 74.4507 136.06 155.111C114.579 160.315 93.8906 162.236 77.9199 160.207C77.1532 150.088 76.0279 114.973 65.7572 77.9414C63.9266 71.3401 68.0812 64.5894 74.8079 63.2908C76.8506 62.8961 78.9959 62.5307 81.1279 62.2467C88.4359 61.2747 99.0506 60.1454 105.589 60.1881C114.212 60.2454 121.073 61.4067 121.073 61.4067Z" fill="#17282F"/>
<path d="M110.637 75.452C111.927 85.5507 129.24 104.944 129.24 104.944L149.819 83.6174C149.819 83.6174 140.919 74.044 130.048 65.8867C115.037 54.624 109.443 66.0974 110.637 75.452Z" fill="#17282F"/>
<path d="M182.765 76.9427L189.641 70.644L181.393 62.1707C181.393 62.1707 176.941 65.7867 176.125 71.1574C175.883 72.7534 176.933 74.2907 178.597 74.7854L182.765 76.9427Z" fill="#F8A58D"/>
<path d="M192.173 66.0454L190.393 61.6867C189.763 60.1441 187.995 59.4094 186.457 60.0534L181.393 62.1707L189.641 70.644L191.085 69.6587C192.255 68.8614 192.708 67.356 192.173 66.0454Z" fill="#F8A58D"/>
<path d="M77.9706 25.3707C79.9013 36.0387 80.4986 42.3587 86.496 47.4373C95.516 55.076 107.977 49.1333 109.22 38.232C110.339 28.4213 106.993 12.624 96.136 9.17866C85.4386 5.784 76.04 14.7027 77.9706 25.3707Z" fill="#F8A58D"/>
<path d="M99.0053 29.2333C102.753 30.096 105.708 25.764 106.06 24.5294C104.237 24.7067 101.004 23.7653 100.357 22.9413C102.356 23.1187 104.296 20.6493 104.532 19.708C102.356 19.4147 99.9453 17.5333 99.2987 16.2987C102.532 16.24 106.433 10.536 102.865 5.42269C99.2987 0.306688 84.424 4.59868 82.3067 0.953351C79.1907 2.77602 81.9547 5.18668 81.9547 5.18668C81.9547 5.18668 60.9067 9.12533 70.608 17.2987C63.4933 17.944 62.4933 26.3613 68.432 30.6493C74.3707 34.936 74.664 37.7587 72.312 37.4053C73.2533 39.228 77.4787 39.4627 77.7173 37.6987C78.7213 41.404 81.6013 46.4013 88.2453 45.5787C94.8893 44.7547 101.416 35.4653 99.0053 29.2333Z" fill="#17282F"/>
<path d="M72.4814 16.0694C67.4721 16.7587 65.1841 13.928 66.4441 11.44C60.2334 14.6107 67.0147 21.6294 72.4814 16.0694Z" fill="#17282F"/>
<path d="M93.8094 27.6161C94.668 29.9414 96.432 31.9267 98.184 33.0987C100.82 34.8614 103.271 33.1174 102.809 30.3881C102.396 27.9321 100.525 24.0561 97.7494 23.3627C95.0147 22.6814 92.828 24.9574 93.8094 27.6161Z" fill="#F8A58D"/>
</svg>
