<svg width="1541" height="918" viewBox="0 0 1541 918" fill="none" xmlns="http://www.w3.org/2000/svg">
<path d="M565.2 902.086C172.871 879.257 -141.763 464.184 67.0057 223.3C228.918 36.473 444.803 308.412 646.157 171.397C955.933 -39.3763 1457.8 -77.6959 1524.23 188.001C1590.65 453.714 1370.61 868.879 1206.63 893.785C1042.64 918.693 565.2 902.086 565.2 902.086Z" fill="#E7F3FE"/>
<path d="M616.058 339.544C620.209 439.182 619.171 493.154 582.843 534.661C546.519 576.183 444.804 565.806 444.804 565.806C444.804 565.806 434.77 712.497 292.578 718.729C150.385 724.947 129.973 536.048 241.374 487.622C347.421 441.502 381.145 428.105 417.817 313.945C451.32 209.64 555.861 229.53 580.769 273.11C605.68 316.704 616.058 339.544 616.058 339.544Z" fill="#303C60"/>
<path d="M569.351 848.12C569.351 848.12 636.468 861.267 639.928 860.573C643.388 859.88 716.733 827.36 724.344 832.2C731.956 837.04 776.24 855.733 785.927 859.88C795.613 864.027 780.391 865.413 772.78 865.413C765.168 865.413 721.577 847.427 716.733 850.88C711.889 854.347 754.789 861.267 754.789 864.027C754.789 866.8 639.928 893.093 633.009 893.093C626.089 893.093 572.811 888.253 572.811 888.253L569.351 848.12Z" fill="#E38540"/>
<path d="M513.649 481.56C549.804 488.654 571.081 526.92 578 560.427C584.919 593.947 513.649 481.56 513.649 481.56Z" fill="#6791C9"/>
<mask id="mask0_4_467" style="mask-type:luminance" maskUnits="userSpaceOnUse" x="0" y="0" width="1537" height="908">
<path d="M565.2 902.094C172.87 879.254 -141.763 464.187 67.0051 223.293C152.609 124.52 253.301 153.987 358.954 183.454C453.134 209.707 551.258 235.974 646.154 171.4C955.931 -39.3732 1457.8 -77.6932 1524.23 188.013C1590.65 453.707 1370.61 868.88 1206.63 893.787C1042.63 918.694 565.2 902.094 565.2 902.094Z" fill="white"/>
</mask>
<g mask="url(#mask0_4_467)">
<path d="M453.105 455.787C453.105 455.787 383.566 502.494 346.201 525.334C308.837 548.16 359.694 794.147 372.149 885.48C384.604 976.813 600.488 893.787 600.488 893.787C600.488 893.787 585.957 816.974 604.638 693.467C618.021 605 569.004 549.547 540.981 511.147C470.253 414.227 453.105 455.787 453.105 455.787Z" fill="#75A1DE"/>
<path d="M384.604 526.36C464.522 623.933 491.537 642.173 471.788 708C456.22 759.893 451.029 778.573 447.916 796.227C444.802 813.867 596.336 784.8 596.336 784.8L595.298 841.893C595.298 841.893 475.94 898.973 417.816 910.387C359.694 921.813 323.368 908.32 323.368 908.32L384.604 526.36Z" fill="#6791C9"/>
</g>
<path d="M1385.36 917.133H439.788C432.962 917.133 427.428 911.6 427.428 904.773C427.428 897.947 432.962 892.413 439.788 892.413H1385.36C1392.19 892.413 1397.72 897.947 1397.72 904.773C1397.72 911.6 1392.19 917.133 1385.36 917.133Z" fill="#2E5B9A"/>
<path d="M478.707 357.533L442.727 464.093C442.727 464.093 482.167 571 515.38 547.12C526.719 538.973 511.228 474.467 511.228 474.467L535.445 387.973L478.707 357.533Z" fill="#F09959"/>
<path d="M363.845 522.213C314.16 527.733 309.875 594.867 287.041 706.96C264.207 819.053 271.069 893.04 281.852 907.28C307.799 941.533 599.449 822.173 635.777 823.213C660.848 823.92 639.928 781.693 639.928 781.693L361.769 824.24C361.769 824.24 401.211 694.506 401.211 628.08C401.211 561.653 382.528 520.133 363.845 522.213Z" fill="#F09959"/>
<path d="M622.284 783.76C651.345 776.507 693.899 759.893 702.201 767.16C710.505 774.427 744.756 826.32 756.173 840.853C767.589 855.387 750.984 843.96 738.529 832.547C726.075 821.133 715.695 814.907 715.695 814.907C715.695 814.907 700.127 829.44 685.596 837.733C671.065 846.04 665.876 829.44 640.967 825.28C616.056 821.133 553.783 842.933 553.783 842.933L622.284 783.76Z" fill="#F09959"/>
<path d="M369.381 513.906C338.936 515.293 315.411 540.893 307.108 580.333C298.804 619.773 274.585 745.013 274.585 745.013C274.585 745.013 269.743 748.48 320.253 757.48C370.765 766.466 412.281 756.093 412.281 756.093C412.281 756.093 422.66 684.813 419.892 635.693C417.125 586.56 406.053 540.2 388.064 524.293C370.073 508.373 369.381 513.906 369.381 513.906Z" fill="#75A1DE"/>
<path d="M511.228 474.467L535.445 387.973L478.706 357.533L470.04 383.2C468.154 469.133 490.165 497.867 505 508.373C509.633 511.653 513.617 509.12 516.957 503.76C514.52 488.187 511.228 474.467 511.228 474.467Z" fill="#E38540"/>
<path d="M626.436 367.574C626.436 413.854 620.911 470.613 580.768 469.28C518.493 467.213 479.252 418.8 479.252 372.507C479.252 326.214 511.812 288.68 551.977 288.68C592.141 288.68 626.436 321.28 626.436 367.574Z" fill="#F09959"/>
<path d="M1091.17 892.374H857.724L953.749 681.12C956.552 674.96 962.697 671 969.47 671H1181.33C1186.24 671 1189.49 676.067 1187.47 680.534L1091.17 892.374Z" fill="#9BD6E8"/>
<path d="M1090.67 892.374H659.995C659.995 877.374 672.159 865.214 687.163 865.214H1090.67V892.374Z" fill="#9BD6E8"/>
<path d="M1181.33 671H994.627C987.855 671 981.708 674.96 978.905 681.12L882.881 892.374H1091.17L1187.47 680.534C1189.49 676.067 1186.24 671 1181.33 671Z" fill="#7BCEE8"/>
<path d="M557.93 272.606C602.041 269.494 628.162 309.798 635.774 345.092C641.265 370.554 638.541 375.537 638.541 375.537C638.541 375.537 633.697 382.457 599.101 384.528C564.503 386.598 560.354 385.917 560.354 385.917L558.276 345.787L547.896 384.528C547.896 384.528 542.362 392.142 520.913 381.762C499.462 371.382 489.774 336.783 489.774 336.783C489.774 336.783 484.932 313.952 501.538 298.723C518.143 283.507 557.93 272.606 557.93 272.606Z" fill="#303C60"/>
<path d="M525.116 376.72C520.885 404.72 498.536 424.56 475.197 421.04C451.859 417.507 436.369 391.947 440.6 363.947C444.832 335.947 467.181 316.107 490.52 319.64C513.859 323.16 529.348 348.72 525.116 376.72Z" fill="#D54A41"/>
<path d="M508.256 375.973C504.339 401.893 485.989 420.627 467.273 417.8C448.556 414.96 436.559 391.653 440.476 365.733C444.395 339.8 462.744 321.08 481.46 323.907C500.178 326.733 512.175 350.04 508.256 375.973Z" fill="#F39892"/>
<path d="M479.653 370.173C477.5 384.427 469.741 395.067 462.32 393.947C454.9 392.827 450.629 380.36 452.782 366.12C454.934 351.88 462.694 341.24 470.114 342.36C477.534 343.48 481.805 355.933 479.653 370.173Z" fill="#F2E5DE"/>
<path d="M478.536 320.331C498.776 245.087 568.642 256.056 586.307 266.539C601.183 275.36 603.258 287.815 603.258 287.815C603.258 287.815 584.058 272.24 551.364 277.954C520.34 283.371 501.889 301.648 499.295 321.898C497.971 332.205 478.536 320.331 478.536 320.331Z" fill="#D54A41"/>
<path d="M168.029 563.253H167.876C166.996 563.16 166.352 562.387 166.436 561.507C168.253 542.48 177.764 522.92 193.216 506.427C210.687 487.787 235.551 473.093 265.119 463.947C331.004 443.573 388.48 417.667 424.597 306.533C424.871 305.693 425.773 305.227 426.615 305.507C427.455 305.773 427.915 306.68 427.641 307.52C411.043 358.587 388.448 395.773 358.569 421.2C332.216 443.627 302.529 455.72 266.064 467C237.027 475.987 212.643 490.373 195.551 508.613C180.58 524.587 171.372 543.48 169.621 561.813C169.541 562.64 168.845 563.253 168.029 563.253Z" fill="#303C60"/>
<path d="M197.783 486.454C197.305 486.454 196.832 486.24 196.517 485.827C195.975 485.134 196.103 484.134 196.801 483.587C197.081 483.374 225.233 461.814 265.939 452.84C344.087 435.627 396.553 388.627 417.665 316.947C417.916 316.107 418.803 315.614 419.652 315.867C420.5 316.12 420.985 317.014 420.736 317.854C407.693 362.134 383.156 397.08 347.808 421.72C325.045 437.6 297.732 449.12 266.627 455.974C226.656 464.774 199.035 485.907 198.761 486.12C198.471 486.347 198.124 486.454 197.783 486.454Z" fill="#303C60"/>
<path d="M1199.73 463.48H988.947C986.971 463.48 985.952 461.88 986.671 459.893L1029.43 342.427C1030.15 340.453 1032.33 338.853 1034.31 338.853H1245.09C1247.07 338.853 1248.08 340.453 1247.36 342.427L1204.61 459.893C1203.89 461.88 1201.71 463.48 1199.73 463.48Z" fill="#9EC8FF"/>
<path d="M1197.19 457.987H995.487C993.642 457.987 992.691 456.493 993.361 454.64L1032.29 347.68C1032.97 345.84 1035.01 344.347 1036.85 344.347H1238.55C1240.39 344.347 1241.35 345.84 1240.67 347.68L1201.75 454.64C1201.07 456.493 1199.03 457.987 1197.19 457.987Z" fill="white"/>
<path d="M1193.55 451.027H1004.19C1002.12 451.027 1001.05 449.347 1001.81 447.267L1035.37 355.067C1036.12 352.987 1038.41 351.307 1040.49 351.307H1229.84C1231.91 351.307 1232.99 352.987 1232.23 355.067L1198.67 447.267C1197.92 449.347 1195.61 451.027 1193.55 451.027Z" fill="#9EC8FF"/>
<path d="M1151.61 401.16C1144.65 420.267 1123.53 435.76 1104.43 435.76C1085.32 435.76 1075.47 420.267 1082.41 401.16C1089.37 382.054 1110.51 366.56 1129.61 366.56C1148.72 366.56 1158.57 382.054 1151.61 401.16Z" fill="white"/>
<path d="M1146.81 401.16C1140.81 417.613 1122.63 430.96 1106.17 430.96C1089.72 430.96 1081.24 417.613 1087.23 401.16C1093.21 384.707 1111.41 371.373 1127.87 371.373C1144.31 371.373 1152.8 384.707 1146.81 401.16Z" fill="#9EC8FF"/>
<path d="M1132.28 399.573L1119.11 405.853L1105.92 412.147L1110.51 399.573L1115.08 387L1123.68 393.28L1132.28 399.573Z" fill="white"/>
<path d="M876.891 296.04C873.108 296.04 868.559 299.413 867.156 303.28L861.112 319.88C860.54 321.453 860.57 322.867 861.195 323.76C861.871 324.72 863.119 324.933 864.047 324.933H880.654C884.502 324.933 888.96 321.613 890.387 317.693L896.431 301.08C897.004 299.507 896.974 298.093 896.35 297.213C895.674 296.24 894.426 296.04 893.498 296.04H876.891ZM880.654 331.333H864.047C860.637 331.333 857.687 329.907 855.952 327.427C854.112 324.8 853.802 321.253 855.099 317.693L861.143 301.08C863.479 294.667 870.396 289.64 876.891 289.64H893.498C896.908 289.64 899.859 291.053 901.592 293.533C903.431 296.16 903.742 299.707 902.444 303.28L896.4 319.88C894.064 326.293 887.147 331.333 880.654 331.333Z" fill="#9CD499"/>
<path d="M851.202 366.613C847.42 366.613 842.87 370 841.468 373.853L835.424 390.453C834.852 392.027 834.881 393.44 835.506 394.333C836.181 395.307 837.43 395.507 838.358 395.507H854.965C858.813 395.507 863.272 392.187 864.698 388.267L870.744 371.667C871.316 370.093 871.285 368.68 870.661 367.787C869.985 366.813 868.737 366.613 867.808 366.613H851.202ZM854.965 401.907H838.358C834.948 401.907 831.998 400.48 830.264 398.013C828.424 395.387 828.113 391.827 829.41 388.267L835.454 371.667C837.79 365.24 844.708 360.213 851.202 360.213H867.808C871.22 360.213 874.169 361.64 875.904 364.107C877.744 366.747 878.053 370.293 876.756 373.853L870.712 390.453C868.376 396.88 861.46 401.907 854.965 401.907Z" fill="#9CD499"/>
<path d="M825.515 437.2C821.666 437.2 817.208 440.507 815.78 444.427L809.736 461.04C809.164 462.613 809.195 464.027 809.819 464.92C810.495 465.88 811.743 466.08 812.671 466.08H829.278C833.126 466.08 837.584 462.773 839.011 458.84L845.056 442.24C845.628 440.667 845.598 439.253 844.972 438.36C844.298 437.4 843.05 437.2 842.122 437.2H825.515ZM829.278 472.48H812.671C809.26 472.48 806.31 471.067 804.576 468.587C802.736 465.96 802.426 462.413 803.723 458.84L809.767 442.24C812.103 435.827 819.02 430.787 825.515 430.787H842.122C845.531 430.787 848.482 432.213 850.216 434.693C852.055 437.32 852.365 440.867 851.069 444.427L845.026 461.04C842.69 467.453 835.772 472.48 829.278 472.48Z" fill="#9EC8FF"/>
<path d="M1017.28 317.747H925.947C924.235 317.747 923.343 316.347 923.967 314.64C924.589 312.92 926.501 311.52 928.213 311.52H1019.55C1021.26 311.52 1022.15 312.92 1021.53 314.64C1020.91 316.347 1018.99 317.747 1017.28 317.747Z" fill="#9EC8FF"/>
<path d="M1012.75 330.2H921.414C919.702 330.2 918.81 328.8 919.434 327.093C920.056 325.373 921.968 323.973 923.68 323.973H1015.02C1016.73 323.973 1017.62 325.373 1017 327.093C1016.37 328.8 1014.46 330.2 1012.75 330.2Z" fill="#9EC8FF"/>
<path d="M993.482 383.133H902.146C900.434 383.133 899.544 381.733 900.166 380.027C900.79 378.307 902.701 376.907 904.414 376.907H995.749C997.462 376.907 998.353 378.307 997.73 380.027C997.106 381.733 995.194 383.133 993.482 383.133Z" fill="#9EC8FF"/>
<path d="M988.95 395.587H897.614C895.902 395.587 895.011 394.187 895.635 392.48C896.258 390.76 898.168 389.36 899.882 389.36H991.218C992.93 389.36 993.82 390.76 993.196 392.48C992.574 394.187 990.663 395.587 988.95 395.587Z" fill="#9EC8FF"/>
<path d="M967.04 455.787H875.704C873.991 455.787 873.1 454.387 873.723 452.68C874.347 450.96 876.257 449.56 877.971 449.56H969.305C971.019 449.56 971.911 450.96 971.287 452.68C970.663 454.387 968.752 455.787 967.04 455.787Z" fill="#9EC8FF"/>
<path d="M962.506 468.24H871.17C869.458 468.24 868.566 466.84 869.19 465.133C869.813 463.413 871.725 462.013 873.437 462.013H964.773C966.485 462.013 967.376 463.413 966.753 465.133C966.129 466.84 964.218 468.24 962.506 468.24Z" fill="#9EC8FF"/>
<path d="M876.788 321.987C876.506 321.987 876.224 321.946 875.946 321.88C874.98 321.613 874.193 320.907 873.818 319.987L867.55 304.413C866.889 302.773 867.684 300.907 869.322 300.253C870.961 299.587 872.826 300.387 873.486 302.027L878.178 313.68L915.228 285.12C916.626 284.04 918.637 284.293 919.716 285.693C920.796 287.093 920.534 289.107 919.136 290.187L878.741 321.32C878.174 321.76 877.486 321.987 876.788 321.987Z" fill="#F37168"/>
<path d="M851.1 392.56C850.819 392.56 850.536 392.533 850.259 392.453C849.293 392.187 848.505 391.493 848.132 390.56L841.861 374.987C841.201 373.347 841.996 371.48 843.634 370.827C845.274 370.16 847.139 370.96 847.799 372.6L852.49 384.253L889.54 355.693C890.94 354.613 892.949 354.88 894.028 356.28C895.108 357.667 894.846 359.68 893.446 360.76L853.053 391.893C852.487 392.333 851.799 392.56 851.1 392.56Z" fill="#F37168"/>
<path d="M1455.03 235.749H1104.21L1113.28 210.836H1464.1L1455.03 235.749Z" fill="#9EC8FF"/>
<path d="M1441.43 273.132H1090.61L1099.67 248.217H1450.49L1441.43 273.132Z" fill="#9EC8FF"/>
<path d="M1052.57 571.813H794.963C791.596 571.813 789.845 569.067 791.069 565.694C792.295 562.334 796.052 559.574 799.417 559.574H1057.03C1060.4 559.574 1062.15 562.334 1060.92 565.694C1059.69 569.067 1055.95 571.813 1052.57 571.813Z" fill="#9EC8FF"/>
<path d="M1042.68 599.013H785.063C781.696 599.013 779.944 596.267 781.169 592.894C782.395 589.534 786.152 586.773 789.517 586.773H1047.13C1050.49 586.773 1052.25 589.534 1051.03 592.894C1049.8 596.267 1046.04 599.013 1042.68 599.013Z" fill="#9EC8FF"/>
<path d="M1283.84 829.014C1283.84 824.694 1335.89 680.814 1300.69 588.187C1276.05 523.32 1272.16 445.494 1272.16 445.494C1272.16 445.494 1224.17 514.24 1256.6 619.307C1276.56 683.974 1284.71 701.894 1286.43 720.92C1288.16 739.947 1278.65 835.067 1278.65 835.067L1283.84 829.014Z" fill="#9CD499"/>
<path d="M1270.89 450.587C1266.95 457.373 1259.29 472.267 1253.73 493.56C1246.56 520.987 1241.51 565 1258.12 618.84C1264.87 640.693 1270.21 657.066 1274.52 670.213C1283 696.16 1286.87 708 1288.03 720.773C1289.53 737.413 1282.69 810.053 1280.73 830.173L1282.32 828.333C1282.51 827.373 1283.07 825.48 1284.48 820.72C1314.55 720.213 1319.51 642.173 1299.2 588.746C1278.32 533.8 1272.25 468.867 1270.89 450.587ZM1278.65 836.667C1278.44 836.667 1278.23 836.626 1278.01 836.546C1277.37 836.266 1276.99 835.6 1277.05 834.906C1277.15 833.96 1286.53 739.72 1284.84 721.067C1283.71 708.653 1279.88 696.92 1271.48 671.213C1267.17 658.04 1261.81 641.653 1255.07 619.787C1238.2 565.147 1243.37 520.467 1250.67 492.6C1258.6 462.347 1270.36 445.293 1270.85 444.573C1271.24 444.013 1271.95 443.773 1272.6 443.96C1273.27 444.147 1273.72 444.733 1273.76 445.413C1273.8 446.186 1277.92 523.746 1302.2 587.613C1315.36 622.253 1318 667.92 1310.05 723.373C1303.71 767.64 1292.39 805.48 1287.55 821.64C1286.45 825.32 1285.49 828.506 1285.44 829.08C1285.44 829.466 1285.31 829.76 1285.05 830.053L1279.87 836.106C1279.55 836.466 1279.11 836.667 1278.65 836.667Z" fill="#74B570"/>
<path d="M1295.08 843.72C1287.29 683.733 1325.35 596.4 1403.17 527.213C1481 458.04 1484.45 439.88 1484.45 439.88C1484.45 439.88 1472.35 574.773 1427.39 621.48C1382.41 668.173 1316.69 702.76 1307.19 726.973C1297.67 751.187 1301.13 832.48 1301.13 832.48L1295.08 847.173V843.72Z" fill="#9CD499"/>
<path d="M1285.56 857.546C1284.71 854.96 1302 707.946 1365.12 699.306C1428.25 690.653 1442.95 705.36 1486.19 698.44C1517.04 693.506 1540.67 683.733 1540.67 683.733C1540.67 683.733 1524.29 725.413 1468.03 742.546C1428.25 754.64 1376.36 734.76 1346.09 739.946C1315.83 745.133 1300.27 809.986 1300.27 809.986L1295.08 843.72L1285.56 857.546Z" fill="#9CD499"/>
<path d="M1294.21 835.8C1293.4 835.8 1292.69 835.186 1292.63 834.346C1292.52 833.32 1283.57 730.04 1327.4 650.96C1350.05 610.12 1374.77 586.453 1398.68 563.56C1420.96 542.227 1442 522.08 1457.95 490.173C1458.35 489.386 1459.31 489.066 1460.09 489.466C1460.89 489.853 1461.21 490.826 1460.81 491.613C1444.61 524.013 1423.37 544.346 1400.89 565.866C1377.16 588.6 1352.61 612.093 1330.2 652.52C1286.85 730.707 1295.71 833.027 1295.8 834.053C1295.89 834.933 1295.24 835.72 1294.36 835.8H1294.21Z" fill="#74B570"/>
<path d="M1289.89 815.053C1289.75 815.053 1289.59 815.027 1289.44 814.987C1288.6 814.747 1288.11 813.853 1288.35 813C1304.91 755.947 1323.91 722.653 1348.13 708.24C1369.8 695.346 1392.2 699.307 1415.91 703.493C1421.71 704.52 1427.71 705.587 1433.65 706.36C1485.16 713.12 1510.29 700.6 1510.53 700.48C1511.32 700.066 1512.28 700.373 1512.69 701.16C1513.09 701.947 1512.79 702.907 1512 703.32C1510.96 703.853 1485.88 716.44 1433.23 709.533C1427.23 708.747 1421.19 707.68 1415.35 706.653C1392.24 702.56 1370.43 698.707 1349.77 710.987C1326.28 724.973 1307.73 757.667 1291.43 813.893C1291.23 814.6 1290.59 815.053 1289.89 815.053Z" fill="#74B570"/>
<path d="M1372.48 593.24C1372 593.24 1371.52 593.027 1371.21 592.613C1370.67 591.92 1370.8 590.907 1371.49 590.373C1371.8 590.133 1402.56 566.693 1445.24 558.507C1446.11 558.347 1446.95 558.907 1447.12 559.773C1447.28 560.64 1446.72 561.48 1445.85 561.64C1403.91 569.693 1373.75 592.68 1373.45 592.907C1373.16 593.133 1372.81 593.24 1372.48 593.24Z" fill="#74B570"/>
<path d="M1323.61 662.854C1323.33 662.854 1323.05 662.773 1322.8 662.627C1322.04 662.173 1321.79 661.2 1322.24 660.44C1344.76 622.467 1371.13 612.893 1428.64 594.867C1429.48 594.6 1430.37 595.08 1430.64 595.92C1430.91 596.76 1430.44 597.654 1429.6 597.92C1372.89 615.694 1346.91 625.107 1324.99 662.067C1324.69 662.573 1324.16 662.854 1323.61 662.854Z" fill="#74B570"/>
<path d="M1309.63 896.894H1271.01C1257.37 896.894 1245.67 887.213 1243.11 873.813L1230.65 808.694H1349.99L1337.53 873.813C1334.97 887.213 1323.27 896.894 1309.63 896.894Z" fill="#F39892"/>
<path d="M1346.96 825.293H1234.55C1232.77 825.293 1231.35 823.867 1231.35 822.093C1231.35 820.333 1232.77 818.893 1234.55 818.893H1346.96C1348.73 818.893 1350.16 820.333 1350.16 822.093C1350.16 823.867 1348.73 825.293 1346.96 825.293Z" fill="#D54A41"/>
</svg>
