<svg width="1859" height="909" viewBox="0 0 1859 909" fill="none" xmlns="http://www.w3.org/2000/svg">
<path d="M92.4629 903.355C92.4629 903.355 -63.2297 710.285 30.1854 526.559C123.611 342.831 301.104 386.427 550.232 199.587C852.672 -27.2406 1065.03 -39.7047 1334.96 59.4553C1487.56 115.506 1512.45 345.945 1755.35 489.189C1974.32 618.323 1795.84 837.96 1680.63 872.214C1565.41 906.469 1487.56 906.469 1487.56 906.469L92.4629 903.355Z" fill="#E7F3FE"/>
<path d="M1019.46 488.271C980.59 567.16 931.876 782.726 918.582 794.537C905.287 806.349 828.51 852.12 815.216 874.269C801.941 896.417 807.841 889.034 813.761 890.511C819.661 891.986 1153.34 893.463 1153.34 893.463C1153.34 893.463 1114.95 664.606 1110.52 663.131C1106.1 661.654 1019.46 488.271 1019.46 488.271Z" fill="#A2DFF2"/>
<path d="M964.194 892.39C1025.5 892.819 1090.16 893.155 1125.76 893.33L1077.01 601.83C1051.03 551.427 1019.47 488.267 1019.47 488.267C1014.56 498.213 1009.51 510.332 1004.39 523.94C999.336 742.88 1030.87 804.246 1007.17 843.259C988.698 873.701 971.828 887.319 964.194 892.39Z" fill="#96CFE0"/>
<path d="M1657.06 908.068H54.723C47.8964 908.068 42.3623 902.531 42.3623 895.707C42.3623 888.881 47.8964 883.346 54.723 883.346H1657.06C1663.88 883.346 1669.42 888.881 1669.42 895.707C1669.42 902.531 1663.88 908.068 1657.06 908.068Z" fill="#2E5B9A"/>
<path d="M1224.11 393.047C1279.52 444.206 1402.91 492.721 1402.91 492.721C1402.91 492.721 1421.64 665.899 1408.85 763.956C1396.07 862.012 1403.17 881.907 1403.17 881.907H1148.79C1148.79 881.907 1114.66 834.531 1052.17 687.217C1012.38 593.423 1019.48 488.261 1019.48 488.261L1174.38 418.626L1224.11 393.047Z" fill="#A2DFF2"/>
<path d="M1148.8 881.911H1403.17C1403.17 881.911 1396.05 862.015 1408.85 763.958C1419.38 683.217 1408.52 551.544 1404.37 507.56L1381.23 497.647C1323.16 514.382 1289.69 601.006 1279.84 685.664C1273.25 742.307 1179.41 798.069 1118.03 828.767C1138.21 867.212 1148.8 881.911 1148.8 881.911Z" fill="#96CFE0"/>
<path d="M1086.4 215.312C1055.76 283.603 1092.56 346.868 1091.43 344.193C1090.32 341.539 1137.84 228.886 1137.84 228.886L1086.4 215.312Z" fill="#2E5B9A"/>
<path d="M1202.61 265.804L1241.5 407.946C1242.6 411.957 1241.66 416.232 1239.05 419.459C1229.92 430.697 1216.93 453.808 1190.74 461.223C1185.63 462.663 1179.37 463.049 1174.28 463.068C1168.95 463.089 1164.34 459.328 1163.32 454.084L1137.28 319.262L1202.61 265.804Z" fill="#F09959"/>
<path d="M1195.2 277.682L1180.97 283.513L1137.28 319.254L1160.73 438.788C1200.51 413.986 1206.32 397.248 1195.2 277.682Z" fill="#E38540"/>
<path d="M1201.19 328.687C1192.58 375.44 1157.58 407.062 1123.04 399.312C1088.49 391.564 1072.01 361.301 1076.06 300.614C1079.24 253.018 1102.71 201.271 1137.28 209.019C1171.82 216.766 1209.8 281.913 1201.19 328.687Z" fill="#F09959"/>
<path d="M1402.87 492.732C1454.34 504.352 1463.91 608.888 1480.65 719.138C1482.57 731.828 1492.46 839.233 1492.46 839.233C1492.46 839.233 1493.44 858.92 1473.76 868.762C1456.93 877.172 1450.13 883.53 1352.68 884.513C1259.08 885.458 1138.41 881.559 1138.41 881.559C1138.41 881.559 1137.34 846.734 1146.93 829.717C1161.37 804.122 1309.36 767.373 1323.14 765.405C1325.1 737.842 1309.54 638.116 1331.01 570.499C1345.79 523.984 1361.66 499.622 1381.54 493.256C1388.19 491.131 1395.25 491.009 1402.87 492.732Z" fill="#A2DFF2"/>
<path d="M1191.35 883.682C1237.47 884.375 1300.8 885.037 1352.68 884.514C1450.12 883.53 1456.94 877.172 1473.74 868.761C1493.45 858.921 1494.43 842.184 1494.43 842.184C1494.43 842.184 1484.48 727.9 1482.62 715.201C1471.8 641.372 1460.1 556.891 1432.85 516.111C1458.46 591.134 1462.58 654.436 1463.03 681.472C1463.27 695.164 1462 713.914 1458.02 727.014C1453.59 741.532 1442.27 750.638 1424.53 745.715C1389.1 735.872 1344.8 756.544 1344.8 756.544C1344.8 756.544 1378.27 744.731 1409.76 755.56C1441.26 766.387 1506.24 838.247 1435.36 864.824C1413.68 872.958 1283.76 879.59 1191.35 883.682Z" fill="#96CFE0"/>
<path d="M1154.83 832.995C1154.83 832.995 1167.95 810.684 1194.84 810.684C1221.75 810.684 1219.8 854.651 1215.86 869.088C1211.92 883.527 1196.16 884.183 1196.16 884.183L1138.41 881.557L1154.83 832.995Z" fill="#96CFE0"/>
<path d="M1096.29 894.202H732.227C726.73 894.202 722.229 889.711 722.229 884.22V881.352C722.229 875.861 726.73 871.368 732.227 871.368H1096.29C1101.76 871.368 1106.26 875.861 1106.26 881.352V884.22C1106.26 889.711 1101.76 894.202 1096.29 894.202Z" fill="#75A1DE"/>
<path d="M1147.6 835.623C1091.16 815.279 1076.35 822.937 1063.61 819.216C1032.1 810.029 1024.22 817.903 1003.88 873.684C999.828 884.8 1011.74 885.498 1023.56 885.498C1035.37 885.498 1049.82 862.53 1054.41 859.904C1059 857.278 1071.47 855.967 1071.47 855.967C1071.47 855.967 1067.54 855.967 1061.63 867.778C1055.72 879.591 1048.5 884.185 1057.7 884.185C1066.88 884.185 1068.2 869.091 1085.26 872.371C1102.32 875.654 1095.75 884.184 1138.4 883.528C1181.08 882.871 1213.27 883.528 1212.57 857.934C1211.91 833.653 1214.61 821.511 1191.56 817.249C1173.84 813.966 1147.6 835.623 1147.6 835.623Z" fill="#F09959"/>
<path d="M1148.35 835.617C1186.08 831.352 1175 878.356 1171.06 882.293C1167.14 886.229 1192.09 883.675 1192.09 883.675C1192.09 883.675 1203.8 864.821 1193.96 843.164C1184.11 821.507 1164.44 820.522 1164.44 820.522L1147.7 829.711L1148.35 835.617Z" fill="#A86B48"/>
<path d="M1187.75 831.53C1187.24 837.356 1177.36 841.282 1165.64 840.304C1153.9 839.324 1144.79 833.809 1145.28 827.982C1145.77 822.158 1155.65 818.228 1167.39 819.208C1179.11 820.188 1188.22 825.705 1187.75 831.53Z" fill="#2E5B9A"/>
<path d="M1184.75 828.629C1184.32 833.831 1175.47 837.342 1164.98 836.469C1154.52 835.592 1146.38 830.663 1146.83 825.459C1147.25 820.253 1156.11 816.744 1166.57 817.619C1177.04 818.495 1185.18 823.423 1184.75 828.629Z" fill="#3E6BAB"/>
<path d="M1178.2 826.219C1177.9 829.965 1171.52 832.492 1163.99 831.862C1156.44 831.231 1150.59 827.683 1150.9 823.937C1151.2 820.191 1157.58 817.664 1165.11 818.293C1172.66 818.922 1178.51 822.473 1178.2 826.219Z" fill="#F0CEB4"/>
<path d="M718.9 822.092H352.159C332.855 822.092 316.329 808.123 312.839 788.885L265.006 524.867C260.5 499.953 279.359 477.016 304.326 477.016H671.067C690.371 477.016 706.897 490.978 710.387 510.211L758.22 774.241C762.725 799.142 743.867 822.092 718.9 822.092Z" fill="#75A1DE"/>
<path d="M736.049 775.224L687.238 516.66C683.668 497.821 666.79 484.143 647.103 484.143H274.404C266.575 493.226 262.652 505.668 265.038 518.622L314.556 788.181C318.162 807.823 335.286 822.086 355.257 822.086H695.933C721.399 822.086 740.644 799.609 736.049 775.224Z" fill="#A8CEFF"/>
<path d="M647.617 857.44H578.001C565.588 857.44 555.51 846.381 555.51 832.74V705.451C555.51 683.739 539.485 666.14 519.725 666.14H483.37C463.593 666.14 447.585 683.739 447.585 705.451V848.003C447.585 872.38 465.633 892.098 487.83 891.945L677.835 890.64C677.835 872.304 664.299 857.44 647.617 857.44Z" fill="#75A1DE"/>
<path d="M450.335 708.298V848.675C450.335 871.527 468.06 890.209 490.466 891.82L675.901 890.661C675.883 887.624 661.268 882.087 643.216 882.087H567.895C554.471 882.087 543.588 871.2 543.588 857.767V708.298C543.588 686.928 526.243 669.601 504.874 669.601H489.067C467.68 669.601 450.335 686.928 450.335 708.298Z" fill="#A8CEFF"/>
<path d="M838.481 841.268C866.505 825.7 900.759 830.889 913.218 846.459C925.658 862.027 927.747 872.405 899.723 872.405C871.7 872.405 815.652 874.481 806.298 873.444C796.982 872.405 838.481 841.268 838.481 841.268Z" fill="#F09959"/>
<path d="M879.998 831.927C910.088 824.66 930.677 842.176 955.768 858.912C977.564 873.443 981.95 887.568 957.836 875.519C922.556 857.873 901.794 855.799 901.794 855.799L879.998 831.927Z" fill="#F09959"/>
<path d="M852.593 841.17C837.391 841.17 824.136 836.323 813.395 837.215C802.655 838.111 768.69 872.984 774.051 875.664C774.437 875.859 774.841 876.035 775.3 876.2C783.359 879.167 792.466 875.879 797.019 868.583C801.829 860.864 809.65 851.885 818.756 855.099C833.958 860.464 849.913 859.946 849.913 859.946L852.593 841.17Z" fill="#F09959"/>
<path d="M843.651 878.636C828.093 872.409 853.016 820.514 861.317 820.514C869.619 820.514 900.754 845.423 900.754 845.423C900.754 845.423 893.441 849.557 868.574 841.272C862.362 839.196 857.176 874.485 849.901 878.636C842.625 882.788 843.651 878.636 843.651 878.636Z" fill="#F7A96F"/>
<path d="M1076.04 327.944C1074.58 385.087 1094.06 394.75 1107.68 402.511C1121.29 410.271 1179.96 397.452 1188.58 383.319C1210.62 347.165 1192.06 313.439 1196.99 313.96C1201.94 314.461 1206.44 328.549 1219.28 346.811C1220.47 348.501 1228.82 359.798 1229.25 356.044C1235.22 304.861 1261.87 288.979 1255.53 237.22C1250.86 199.069 1226.62 202.095 1226.62 202.095C1226.62 202.095 1211.01 170.163 1162.36 173.795C1129.79 176.216 1100.73 188.926 1067.13 197.566C1033.53 206.207 1106.87 282.342 1150.45 254.542C1194.03 226.722 1172.51 287.998 1179.37 292.735C1186.26 297.494 1182.69 293.382 1185.84 324.73C1189 356.083 1149.17 376.557 1137.76 379.241C1101.28 387.823 1095.16 381.802 1087.19 368.061C1080.24 356.137 1076.04 327.944 1076.04 327.944Z" fill="#2E5B9A"/>
<path d="M1227.1 310.256C1222.9 324.651 1212.66 333.958 1204.24 331.021C1195.8 328.105 1195.56 316.399 1196.55 299.646C1197.44 284.568 1210.96 275.943 1219.4 278.88C1227.82 281.797 1231.27 295.84 1227.1 310.256Z" fill="#F09959"/>
<path d="M429.666 271.59H118.151C114.753 271.59 112.004 268.84 112.004 265.443V131.39C112.004 127.992 114.753 125.243 118.151 125.243H429.666C433.064 125.243 435.814 127.992 435.814 131.39V265.443C435.814 268.84 433.064 271.59 429.666 271.59Z" fill="#B7E1FF"/>
<path d="M422.007 264.708H125.813C123.089 264.708 120.853 262.487 120.853 259.747V168.643C120.853 165.903 123.089 163.683 125.813 163.683H422.007C424.747 163.683 426.967 165.903 426.967 168.643V259.747C426.967 262.487 424.747 264.708 422.007 264.708Z" fill="white"/>
<path d="M135.281 147.442H128.099C126.575 147.442 125.333 146.214 125.333 144.69V138.778C125.333 137.254 126.575 136.026 128.099 136.026H135.281C136.791 136.026 138.032 137.254 138.032 138.778V144.69C138.032 146.214 136.791 147.442 135.281 147.442Z" fill="white"/>
<path d="M158.337 147.433H151.151C149.654 147.433 148.412 146.205 148.412 144.694V138.765C148.412 137.254 149.654 136.026 151.151 136.026H158.337C159.861 136.026 161.104 137.254 161.104 138.765V144.694C161.104 146.205 159.861 147.433 158.337 147.433Z" fill="white"/>
<path d="M181.397 147.441H174.21C172.699 147.441 171.473 146.215 171.473 144.703V138.772C171.473 137.261 172.699 136.034 174.21 136.034H181.397C182.922 136.034 184.163 137.261 184.163 138.772V144.703C184.163 146.215 182.922 147.441 181.397 147.441Z" fill="white"/>
<path d="M414.504 185.839H252.574C249.921 185.839 247.738 183.672 247.738 181.003C247.738 178.333 249.921 176.151 252.574 176.151H414.504C417.173 176.151 419.34 178.333 419.34 181.003C419.34 183.672 417.173 185.839 414.504 185.839Z" fill="#B7E1FF"/>
<path d="M292.721 260.553H130.825C128.148 260.553 125.965 258.385 125.965 255.723C125.965 253.046 128.148 250.878 130.825 250.878H292.721C295.398 250.878 297.567 253.046 297.567 255.723C297.567 258.385 295.398 260.553 292.721 260.553Z" fill="#B7E1FF"/>
<path d="M322.543 260.573H305.792C304.87 260.573 304.145 259.833 304.145 258.925V252.546C304.145 251.639 304.87 250.883 305.792 250.883H322.543C323.45 250.883 324.191 251.639 324.191 252.546V258.925C324.191 259.833 323.45 260.573 322.543 260.573Z" fill="#B7E1FF"/>
<path d="M347.802 260.573H331.048C330.147 260.573 329.398 259.825 329.398 258.908V252.539C329.398 251.623 330.147 250.875 331.048 250.875H347.802C348.719 250.875 349.467 251.623 349.467 252.539V258.908C349.467 259.825 348.719 260.573 347.802 260.573Z" fill="#B7E1FF"/>
<path d="M416.041 206.941H147.923C146.133 206.941 144.642 205.465 144.642 203.66C144.642 201.854 146.133 200.378 147.923 200.378H416.041C417.863 200.378 419.339 201.854 419.339 203.66C419.339 205.465 417.863 206.941 416.041 206.941Z" fill="#B7E1FF"/>
<path d="M416.041 221.135H147.923C146.133 221.135 144.642 219.659 144.642 217.854C144.642 216.032 146.133 214.557 147.923 214.557H416.041C417.863 214.557 419.339 216.032 419.339 217.854C419.339 219.659 417.863 221.135 416.041 221.135Z" fill="#B7E1FF"/>
<path d="M502.846 374.339H191.306C187.925 374.339 185.179 371.576 185.179 368.196V234.137C185.179 230.741 187.925 227.994 191.306 227.994H502.846C506.226 227.994 508.989 230.741 508.989 234.137V368.196C508.989 371.576 506.226 374.339 502.846 374.339Z" fill="#9EC8FF"/>
<path d="M495.187 367.456H198.989C196.251 367.456 194.032 365.237 194.032 362.499V271.39C194.032 268.653 196.251 266.434 198.989 266.434H495.187C497.924 266.434 500.143 268.653 500.143 271.39V362.499C500.143 365.237 497.924 367.456 495.187 367.456Z" fill="white"/>
<path d="M208.458 250.178H201.26C199.746 250.178 198.52 248.952 198.52 247.438V241.509C198.52 239.995 199.746 238.769 201.26 238.769H208.458C209.973 238.769 211.199 239.995 211.199 241.509V247.438C211.199 248.952 209.973 250.178 208.458 250.178Z" fill="white"/>
<path d="M231.505 250.197H224.324C222.809 250.197 221.571 248.959 221.571 247.444V241.516C221.571 240.001 222.809 238.777 224.324 238.777H231.505C233.035 238.777 234.258 240.001 234.258 241.516V247.444C234.258 248.959 233.035 250.197 231.505 250.197Z" fill="white"/>
<path d="M254.589 250.171H247.411C245.882 250.171 244.661 248.95 244.661 247.436V241.508C244.661 239.994 245.882 238.758 247.411 238.758H254.589C256.118 238.758 257.339 239.994 257.339 241.508V247.436C257.339 248.95 256.118 250.171 254.589 250.171Z" fill="white"/>
<path d="M487.654 288.594H325.762C323.081 288.594 320.917 286.414 320.917 283.749C320.917 281.085 323.081 278.904 325.762 278.904H487.654C490.335 278.904 492.515 281.085 492.515 283.749C492.515 286.414 490.335 288.594 487.654 288.594Z" fill="#9EC8FF"/>
<path d="M365.907 363.312H203.987C201.322 363.312 199.15 361.125 199.15 358.46C199.15 355.795 201.322 353.623 203.987 353.623H365.907C368.572 353.623 370.744 355.795 370.744 358.46C370.744 361.125 368.572 363.312 365.907 363.312Z" fill="#9EC8FF"/>
<path d="M395.716 363.314H378.951C378.048 363.314 377.301 362.582 377.301 361.664V355.281C377.301 354.379 378.048 353.631 378.951 353.631H395.716C396.619 353.631 397.366 354.379 397.366 355.281V361.664C397.366 362.582 396.619 363.314 395.716 363.314Z" fill="#9EC8FF"/>
<path d="M420.97 363.311H404.227C403.299 363.311 402.561 362.572 402.561 361.661V355.293C402.561 354.381 403.299 353.627 404.227 353.627H420.97C421.882 353.627 422.621 354.381 422.621 355.293V361.661C422.621 362.572 421.882 363.311 420.97 363.311Z" fill="#9EC8FF"/>
<path d="M489.22 309.687H221.107C219.282 309.687 217.812 308.217 217.812 306.408C217.812 304.599 219.282 303.114 221.107 303.114H489.22C491.029 303.114 492.515 304.599 492.515 306.408C492.515 308.217 491.029 309.687 489.22 309.687Z" fill="#9EC8FF"/>
<path d="M489.22 323.883H221.107C219.282 323.883 217.812 322.397 217.812 320.588C217.812 318.779 219.282 317.31 221.107 317.31H489.22C491.029 317.31 492.515 318.779 492.515 320.588C492.515 322.397 491.029 323.883 489.22 323.883Z" fill="#9EC8FF"/>
<path d="M624.176 338.533C624.176 361.749 605.352 380.573 582.136 380.573C558.921 380.573 540.114 361.749 540.114 338.533C540.114 315.318 558.921 296.511 582.136 296.511C605.352 296.511 624.176 315.318 624.176 338.533Z" fill="#9CD499"/>
<path d="M577.984 354.053H577.866C576.99 354.02 576.164 353.632 575.575 352.975L564.17 340.004C562.991 338.673 563.125 336.652 564.456 335.472C565.77 334.31 567.809 334.445 568.971 335.776L578.152 346.203L600.136 324.691C601.4 323.461 603.421 323.478 604.651 324.741C605.897 326.005 605.864 328.026 604.617 329.273L580.224 353.144C579.618 353.733 578.826 354.053 577.984 354.053Z" fill="white"/>
<path d="M893.503 143.279H626.244C619.386 143.279 613.78 137.673 613.78 130.815V35.3254C613.78 28.486 619.386 22.88 626.244 22.88H893.503C900.342 22.88 905.948 28.486 905.948 35.3254V130.815C905.948 137.673 900.342 143.279 893.503 143.279Z" fill="#9EC8FF"/>
<path d="M649.061 125.127V191.546L725.606 115.001C725.606 115.001 650.625 125.127 649.061 125.127Z" fill="#9EC8FF"/>
<path d="M880.282 131.332H639.451C633.65 131.332 628.89 126.59 628.89 120.77V45.3707C628.89 39.5693 633.65 34.8093 639.451 34.8093H880.282C886.102 34.8093 890.844 39.5693 890.844 45.3707V120.77C890.844 126.59 886.102 131.332 880.282 131.332Z" fill="white"/>
<path d="M771.554 58.675H653.238C650.375 58.675 648.031 56.3488 648.031 53.4857C648.031 50.6406 650.375 48.2965 653.238 48.2965H771.554C774.417 48.2965 776.744 50.6406 776.744 53.4857C776.744 56.3488 774.417 58.675 771.554 58.675Z" fill="#9EC8FF"/>
<path d="M870.377 78.5203H650.927C649.337 78.5203 648.043 77.2261 648.043 75.6363V75.5809C648.043 73.9911 649.337 72.6971 650.927 72.6971H870.377C871.967 72.6971 873.261 73.9911 873.261 75.5809V75.6363C873.261 77.2261 871.967 78.5203 870.377 78.5203Z" fill="#9EC8FF"/>
<path d="M870.377 89.8154H650.927C649.337 89.8154 648.043 88.5215 648.043 86.9316V86.876C648.043 85.2862 649.337 83.9923 650.927 83.9923H870.377C871.967 83.9923 873.261 85.2862 873.261 86.876V86.9316C873.261 88.5215 871.967 89.8154 870.377 89.8154Z" fill="#9EC8FF"/>
<path d="M825.003 127.198H817.811C816.3 127.198 815.08 125.96 815.08 124.449V118.532C815.08 117.002 816.3 115.783 817.811 115.783H825.003C826.532 115.783 827.752 117.002 827.752 118.532V124.449C827.752 125.96 826.532 127.198 825.003 127.198Z" fill="#9EC8FF"/>
<path d="M848.081 127.187H840.907C839.384 127.187 838.154 125.958 838.154 124.435V118.508C838.154 117.004 839.384 115.774 840.907 115.774H848.081C849.604 115.774 850.833 117.004 850.833 118.508V124.435C850.833 125.958 849.604 127.187 848.081 127.187Z" fill="#9EC8FF"/>
<path d="M871.136 127.192H863.962C862.446 127.192 861.207 125.954 861.207 124.437V118.521C861.207 117.004 862.446 115.766 863.962 115.766H871.136C872.671 115.766 873.891 117.004 873.891 118.521V124.437C873.891 125.954 872.671 127.192 871.136 127.192Z" fill="#9EC8FF"/>
</svg>
