<svg width="1635" height="962" viewBox="0 0 1635 962" fill="none" xmlns="http://www.w3.org/2000/svg">
<path d="M213.85 944.28C213.85 944.28 -170.4 702.919 92.2132 444.172C354.803 185.425 706.261 -79.1073 941.839 23.2271C1177.39 125.574 1156.21 254.946 1414.94 442.239C1673.69 629.546 1613.85 778.225 1567.49 853.534C1521.14 928.84 1513.43 948.147 1513.43 948.147L213.85 944.28Z" fill="#E7F3FE"/>
<path d="M507.368 259.17C564.262 208.489 606.052 238.717 637.167 272.503C661.969 299.438 665.443 305.411 685.921 333.303C688.96 337.449 691.294 342.05 691.403 347.184C691.982 378.037 707.757 508.45 690.227 553.45C669.766 605.904 417.566 629.917 417.566 629.917L507.368 259.17Z" fill="#303C60"/>
<path d="M668.866 583.319C667.506 583.319 666.345 582.24 666.29 580.852C666.2 579.412 667.306 578.198 668.757 578.118C676.23 577.745 682.325 574.385 687.368 567.839C715.646 531.198 699.757 408.891 685.898 342.385C685.608 340.985 686.497 339.611 687.912 339.318C689.309 339.011 690.687 339.918 690.977 341.331C694.007 355.851 704.128 407.398 707.284 461.091C710.531 516.252 705.198 553.225 691.485 571.012C685.536 578.719 677.972 582.865 669.011 583.319H668.866Z" fill="#303C60"/>
<path d="M528.676 244.057C419.339 304.522 486.017 509.003 347.316 581.909C308.899 602.109 190.838 704.602 268.189 839.735C318.797 928.134 469.999 909.081 519.796 830.842C569.576 752.614 528.676 244.057 528.676 244.057Z" fill="#303C60"/>
<path d="M237.68 708.975L237.33 708.947C235.896 708.761 234.896 707.454 235.096 706.027C235.196 705.307 237.563 688.107 248.483 665.281C258.536 644.255 278.041 614.401 313.918 591.574C378.087 550.734 420.683 512.242 471.064 322.522C471.414 321.135 472.848 320.308 474.231 320.681C475.615 321.041 476.449 322.469 476.082 323.854C451.741 415.535 427.601 477.508 400.143 518.895C374.619 557.335 348.378 575.802 316.719 595.947C250.05 638.375 240.347 706.041 240.247 706.721C240.081 708.028 238.947 708.975 237.68 708.975Z" fill="#303C60"/>
<path d="M240.067 656.014C239.599 656.014 239.098 655.894 238.68 655.613C237.46 654.853 237.11 653.241 237.878 652.041C253.736 626.934 273.938 606.347 297.901 590.84C388.018 532.561 402.94 499.054 477.366 307.135C477.884 305.801 479.405 305.134 480.725 305.654C482.078 306.174 482.73 307.681 482.229 309.015C444.999 404.96 422.758 461.187 398.445 501.041C372.31 543.84 342.817 567.974 300.725 595.2C277.381 610.294 257.713 630.348 242.256 654.813C241.772 655.587 240.936 656.014 240.067 656.014Z" fill="#303C60"/>
<path d="M524.916 371.669C487.26 449.868 493.054 520.829 493.054 520.829C493.054 520.829 497.396 548.335 514.78 554.135C532.147 559.921 556.761 542.549 555.325 519.376C553.872 496.202 561.12 439.735 569.803 419.455C578.487 399.188 524.916 371.669 524.916 371.669Z" fill="#F09959"/>
<path d="M325.997 915.013C328.358 936.346 323.038 934.572 341.99 938.118C360.973 941.679 394.753 928.639 394.753 928.639L356.818 858.105L325.997 915.013Z" fill="#6791C9"/>
<path d="M497.612 478.823C486.948 513.504 406.932 486.823 378.935 494.823C350.937 502.824 326.917 620.183 322.922 725.532C318.91 830.877 324.242 914.893 334.924 928.224C345.588 941.558 521.632 946.892 537.628 941.558C553.625 936.226 404.258 869.558 404.258 869.558C404.258 869.558 394.931 746.865 406.932 684.184C418.934 621.517 526.964 538.837 526.964 538.837L497.612 478.823Z" fill="#F09959"/>
<path d="M534.963 489.492C562.954 532.172 636.296 526.838 661.639 561.505C686.963 596.172 740.315 786.878 740.315 786.878L796.334 593.505C796.334 593.505 841.743 585.877 826.991 617.518C800.76 673.772 790.982 855.292 762.538 881.079C730.897 909.745 699.408 886.413 681.63 836.211C664.457 787.651 621.639 682.851 590.963 642.851C560.287 602.838 526.963 538.838 526.963 538.838L534.963 489.492Z" fill="#F09959"/>
<path d="M413.595 494.825C469.599 560.172 578.957 557.506 602.954 549.506C626.969 541.505 626.969 541.505 626.969 541.505C626.969 541.505 645.625 534.839 661.629 553.506C677.633 572.173 716.317 689.532 722.974 716.199C729.65 742.865 740.314 786.879 740.314 786.879C740.314 786.879 711.708 821.211 711.708 855.893C711.708 890.559 723.852 890.853 723.852 890.853C723.852 890.853 688.296 882.893 680.303 861.56C672.292 840.213 600.283 646.852 600.283 646.852L401.596 650.852L404.267 869.56C404.267 869.56 386.927 853.545 362.931 869.56C338.915 885.558 330.904 922.892 334.91 928.226C338.915 933.559 326.917 933.559 326.917 929.559C326.917 925.559 304.237 828.213 320.241 668.186C336.245 508.159 366.918 490.825 384.257 489.492C401.596 488.158 413.595 494.825 413.595 494.825Z" fill="#75A1DE"/>
<path d="M715.699 888.095C716.08 888.227 716.298 888.227 716.298 888.227C716.298 888.227 716.08 888.187 715.699 888.095Z" fill="#6791C9"/>
<path d="M723.411 791.719C711.854 795.279 692.282 836.172 692.282 836.172C692.282 836.172 647.843 739.265 634.497 605.026L618.631 696.092C640.54 754.905 674.919 847.185 680.305 861.559C687.626 881.066 717.148 889.212 721.183 890.12C720.069 889.745 717.641 888.266 715.615 882.399C714.446 881.345 707.764 878.225 706.522 877.08C695.842 867.292 700.297 844.186 707.399 818.399C714.519 792.612 734.968 788.172 723.411 791.719Z" fill="#6791C9"/>
<path d="M411.14 650.668L389.093 549.895C365.094 583.681 362.442 699.268 372.22 778.388C380.226 843.28 392.234 860.121 400.467 866.894C402.907 868.321 404.241 869.561 404.241 869.561L401.573 650.854L411.14 650.668Z" fill="#6791C9"/>
<path d="M347.318 549.015C388.216 659.255 367.767 681.48 421.584 810.881C451.65 883.147 509.586 937.561 509.586 937.561C509.586 937.561 556.272 949.56 614.934 945.561C673.614 941.56 716.58 937.534 716.58 937.534C716.58 937.534 654.961 900.227 652.294 874.893C649.627 849.547 638.05 749.054 653.147 677.92C664.959 622.388 616.295 566.842 616.295 566.842L534.934 562.841L347.318 549.015Z" fill="#75A1DE"/>
<path d="M618.321 892.72C615.309 892.72 609.196 892 598.925 890.413C547.362 882.413 492.24 821.96 468.246 782.839C444.235 743.72 420.928 723.679 419.342 717.933C417.422 710.987 418.726 708.36 422.883 708.36C434.105 708.36 466.114 727.613 510.913 732.16C528.741 733.973 547.168 734.427 563.516 734.427C571.866 734.427 579.67 734.307 586.576 734.186C593.482 734.066 599.489 733.946 604.21 733.946C617.423 733.946 620.875 734.866 606.941 739.266C573.152 749.933 480.683 733.934 497.577 767.719C517.449 807.479 540.932 845.959 574.932 869.081C592.742 881.187 630.494 892.72 618.321 892.72Z" fill="#6E99D3"/>
<path d="M555.17 509.225C555.726 482.612 562.218 437.185 569.822 419.452C576.037 404.932 550.292 386.692 535.206 377.505L522.447 376.958C520.503 381.199 518.662 385.425 516.961 389.598C503.49 478.106 543.834 514.679 563.069 522.038C571.384 525.212 580.689 525.573 588.657 524.852C576.766 520.625 565.187 515.825 555.17 509.225Z" fill="#E38540"/>
<path d="M530.76 548.571C526.145 548.571 521.322 548.012 516.569 546.852C505.426 544.145 478.903 533.839 472.72 496.799C472.583 495.998 473.134 495.238 473.926 495.106C474.718 494.971 475.493 495.505 475.614 496.306C481.521 531.612 506.701 541.412 517.258 543.999C533.671 547.998 551.066 544.292 557.748 535.386C563.121 528.238 559.901 513.026 559.866 512.866C559.694 512.078 560.194 511.291 560.986 511.117C561.778 510.945 562.57 511.452 562.743 512.239C562.88 512.919 566.273 528.932 560.108 537.144C554.648 544.438 543.384 548.571 530.76 548.571Z" fill="#F5CE5C"/>
<path d="M656.241 406.455C647.192 454.228 626.309 492.761 590.934 485.494C555.594 478.228 518.416 427.774 528.214 380.16C537.978 332.535 574.584 299.814 609.942 307.082C645.282 314.348 668.289 342.814 656.241 406.455Z" fill="#F09959"/>
<path d="M782.085 642.359C782.085 642.359 716.745 817.946 713.629 836.172C710.514 854.399 716.745 865.959 718.507 865.959C720.306 865.959 775.853 770.84 775.853 770.84L782.085 642.359Z" fill="#F09959"/>
<path d="M784.746 634.653C790.073 616.881 781.793 594.346 781.793 594.346L805.492 597.32L784.746 634.653Z" fill="#F09959"/>
<path d="M810.799 604.333H744.643C740.63 604.333 737.758 600.452 738.899 596.612L780.65 456.585C781.411 454.052 783.751 452.306 786.395 452.306H852.569C856.583 452.306 859.455 456.173 858.314 460.026L816.543 600.039C815.783 602.586 813.462 604.333 810.799 604.333Z" fill="#4381DB"/>
<path d="M819.086 604.333H752.943C748.938 604.333 746.039 600.454 747.184 596.613L788.952 456.587C789.695 454.053 792.06 452.308 794.711 452.308H860.853C864.859 452.308 867.758 456.174 866.613 460.026L824.845 600.04C824.082 602.586 821.737 604.333 819.086 604.333Z" fill="#2E5B9A"/>
<path d="M771.196 502.843C764.136 528.255 759.38 549.123 760.588 549.455C761.795 549.788 768.465 529.455 775.525 504.042C782.566 478.63 787.323 457.762 786.115 457.43C784.944 457.095 778.238 477.43 771.196 502.843Z" fill="#9CBEED"/>
<path d="M816.171 645.92C818.123 622.825 838.126 601.185 845.728 594.279C848.041 592.172 849.349 589.199 849.33 586.079C849.217 574.572 848.705 547.4 846.316 544.226C843.301 540.186 835.718 488.16 832.172 490.174C828.646 492.198 833.196 537.653 833.196 537.653C833.196 537.653 824.608 533.613 820.057 531.599C815.507 529.573 796.813 550.28 796.813 550.28C796.813 550.28 788.054 572.426 812.019 562.947C840.476 551.679 819.128 583.093 800.169 603.239C784.528 619.853 797.837 623.519 797.837 623.519L810.464 623.013L816.171 645.92Z" fill="#F09959"/>
<path d="M809.014 664.079C806.913 664.079 804.55 663.758 802.149 663.012C795.997 661.104 785.249 654.905 782.416 635.011C782.285 634.212 782.848 633.465 783.654 633.344C784.461 633.238 785.211 633.784 785.324 634.598C787.762 651.611 796.015 657.81 802.505 660.026C807.814 661.838 812.203 660.997 813.31 660.384C813.366 659.877 813.703 659.425 814.229 659.225C814.979 658.917 815.842 659.277 816.123 660.039C816.423 660.785 816.255 661.611 815.654 662.252C814.641 663.372 812.128 664.079 809.014 664.079Z" fill="#F5CE5C"/>
<path d="M806.515 658.376C804.545 658.376 802.5 658.227 800.53 657.935C789.105 656.282 781.45 650.481 779.518 642.029C779.33 641.228 779.836 640.442 780.624 640.254C781.431 640.082 782.219 640.575 782.388 641.374C784.227 649.442 791.562 652.867 797.397 654.321C805.558 656.361 813.25 655.107 814.151 654.042C814.545 653.335 815.427 653.108 816.158 653.509C816.853 653.909 817.097 654.828 816.703 655.535C815.596 657.481 811.318 658.376 806.515 658.376Z" fill="#F5CE5C"/>
<path d="M620.508 376.412C617.184 376.412 613.72 378.279 610.661 381.773C606.896 386.053 604.244 392.173 603.201 398.985C601.15 412.399 606.224 424.773 614.285 426.012C622.329 427.251 630.886 416.945 632.936 403.532C634.987 390.119 629.931 377.745 621.852 376.506C621.41 376.439 620.968 376.412 620.508 376.412ZM615.664 431.319C614.957 431.319 614.215 431.252 613.49 431.146C602.264 429.426 595.493 414.959 598.056 398.2C599.258 390.412 602.334 383.358 606.736 378.345C611.439 372.999 617.078 370.518 622.647 371.372C633.873 373.092 640.644 387.559 638.063 404.318C635.677 419.999 626.077 431.319 615.664 431.319Z" fill="white"/>
<path d="M658.567 382.507C654.227 382.507 648.352 390.841 646.388 403.573C644.37 416.8 647.816 426.747 652.174 427.415C656.567 428.067 662.799 419.613 664.817 406.388C665.781 400.161 665.567 394.147 664.245 389.493C663.085 385.4 661.192 382.868 659.049 382.548C658.888 382.52 658.727 382.507 658.567 382.507ZM652.656 431.386C652.299 431.386 651.924 431.361 651.584 431.308C644.245 430.174 640.245 417.734 642.513 402.973C644.763 388.214 652.317 377.507 659.638 378.653C663.424 379.241 666.406 382.707 668.031 388.414C669.513 393.6 669.745 400.2 668.71 406.988C666.567 421.027 659.638 431.386 652.656 431.386Z" fill="white"/>
<path d="M603.362 387.135C603.135 387.135 602.908 387.094 602.664 387.028L515.534 362.134C514.154 361.748 513.35 360.307 513.735 358.92C514.136 357.547 515.586 356.747 516.949 357.135L604.096 382.041C605.458 382.427 606.262 383.868 605.878 385.241C605.546 386.387 604.498 387.135 603.362 387.135Z" fill="white"/>
<path d="M665.616 332.96C530.77 412.385 523.37 359.039 523.37 359.039L531.359 283.173L611.371 287.625L665.616 332.96Z" fill="#303C60"/>
<path d="M533.797 376.667C536.933 390.093 532.655 402.573 524.219 404.547C515.8 406.507 506.444 397.227 503.291 383.799C500.155 370.373 504.433 357.893 512.869 355.919C521.288 353.96 530.661 363.253 533.797 376.667Z" fill="#F09959"/>
<path d="M524.566 394.305C524.566 397.239 522.174 399.611 519.239 399.611C516.321 399.611 513.945 397.239 513.945 394.305C513.945 391.372 516.321 388.998 519.239 388.998C522.174 388.998 524.566 391.372 524.566 394.305Z" fill="#F5CE5C"/>
<path d="M1564.79 961.735H215.948C209.132 961.735 203.604 956.199 203.604 949.374C203.604 942.548 209.132 937.013 215.948 937.013H1564.79C1571.63 937.013 1577.16 942.548 1577.16 949.374C1577.16 956.199 1571.63 961.735 1564.79 961.735Z" fill="#2E5B9A"/>
<path d="M535.697 934.625C535.697 934.625 484.855 935.279 484.205 939.772C483.554 944.279 486.137 946.211 504.162 949.439C522.169 952.652 724.908 953.946 726.84 952.652C728.791 951.372 787.996 937.199 787.996 937.199L645.763 934.625H535.697Z" fill="#DBE5EB"/>
<path d="M563.371 900.786C563.371 900.786 599.826 884.786 610.493 891.893C621.16 898.999 651.989 931.614 651.989 931.614L563.371 900.786Z" fill="#F09959"/>
<path d="M649.977 934.506C649.285 935.373 648.238 935.732 647.671 935.306L572.661 879.466C568.616 876.452 566.7 871.852 568.652 869.426C570.586 866.999 575.5 867.865 579.314 871.145L650.243 932.079C650.793 932.56 650.669 933.64 649.977 934.506Z" fill="#2E5B9A"/>
<path d="M453.114 893.974C453.114 893.974 513.577 917.974 520.676 917.974C527.812 917.974 567.51 891.307 580.837 894.853C594.182 898.414 659.379 931.307 657.599 933.974C655.838 936.64 637.154 942.868 582.029 941.094C526.904 939.307 437.117 931.307 437.117 931.307L453.114 893.974Z" fill="#F09959"/>
<path d="M1209.68 938.04H963.266C959.628 938.04 956.629 935.052 956.629 931.412V892.533C956.629 888.892 959.628 885.905 963.266 885.905H1209.68C1218.83 885.905 1226.31 893.386 1226.31 902.533V921.399C1226.31 930.546 1218.83 938.04 1209.68 938.04Z" fill="#F37168"/>
<path d="M1190.61 894.72H956.638C955.01 897.44 954.037 900.614 954.037 904.001V919.934C954.037 923.32 955.01 926.494 956.638 929.213H1190.61C1198.9 929.213 1205.71 922.415 1205.71 914.107V909.827C1205.71 901.521 1198.9 894.72 1190.61 894.72Z" fill="#F2E5DE"/>
<path d="M1201.41 885.907H1014.03C1011.57 885.907 1009.56 883.892 1009.56 881.426V858.84C1009.56 856.373 1011.57 854.36 1014.03 854.36H1201.41C1207.58 854.36 1212.64 859.414 1212.64 865.599V874.667C1212.64 880.852 1207.58 885.907 1201.41 885.907Z" fill="#7BCEE8"/>
<path d="M1185.76 859.706H1009.59C1008.35 861.347 1007.63 863.267 1007.63 865.321V874.948C1007.63 877 1008.35 878.92 1009.59 880.561H1185.76C1192.02 880.561 1197.13 876.454 1197.13 871.428V868.842C1197.13 863.813 1192.02 859.706 1185.76 859.706Z" fill="#F2E5DE"/>
<path d="M1233.47 216.652H1033.62C1027.25 216.652 1023.94 211.439 1026.25 205.065L1056.47 122.024C1058.8 115.651 1065.89 110.438 1072.27 110.438H1272.12C1278.49 110.438 1281.82 115.651 1279.51 122.024L1249.27 205.065C1246.96 211.439 1239.85 216.652 1233.47 216.652Z" fill="#9EC8FF"/>
<path d="M1226.69 207.961H1046.73C1041.19 207.961 1038.31 203.441 1040.33 197.92L1065.37 129.174C1067.37 123.653 1073.52 119.133 1079.03 119.133H1259.02C1264.53 119.133 1267.41 123.653 1265.39 129.174L1240.38 197.92C1238.38 203.441 1232.22 207.961 1226.69 207.961Z" fill="white"/>
<path d="M1112.93 211.827C1096.37 255.586 1070.83 269.107 1070.83 269.107C1070.83 269.107 1088.98 244 1086.37 231.773C1083.73 219.547 1074.02 214.386 1074.02 214.386L1112.93 211.827Z" fill="#9EC8FF"/>
<path d="M1241.16 143.6H1125.12C1123.22 143.6 1122.24 142.04 1122.94 140.134L1122.98 139.973C1123.67 138.067 1125.81 136.507 1127.71 136.507H1243.72C1245.63 136.507 1246.61 138.067 1245.93 139.973L1245.86 140.134C1245.18 142.04 1243.06 143.6 1241.16 143.6Z" fill="#9EC8FF"/>
<path d="M1235.75 158.401H1119.75C1117.83 158.401 1116.85 156.842 1117.55 154.934L1117.59 154.774C1118.3 152.881 1120.41 151.322 1122.31 151.322H1238.34C1240.24 151.322 1241.22 152.881 1240.54 154.774L1240.48 154.934C1239.79 156.842 1237.66 158.401 1235.75 158.401Z" fill="#9EC8FF"/>
<path d="M1229.68 175.132H1113.66C1111.75 175.132 1110.76 173.573 1111.47 171.666L1111.51 171.506C1112.21 169.612 1114.35 168.051 1116.22 168.051H1232.26C1234.16 168.051 1235.14 169.612 1234.43 171.506L1234.39 171.666C1233.69 173.573 1231.58 175.132 1229.68 175.132Z" fill="#9EC8FF"/>
<path d="M1107.04 155.506C1102.43 168.12 1090.38 178.347 1080.05 178.347C1069.75 178.347 1065.12 168.12 1069.71 155.506C1074.32 142.881 1086.39 132.652 1096.69 132.652C1107 132.652 1111.63 142.881 1107.04 155.506Z" fill="#9EC8FF"/>
<path d="M1119.87 432.586H1109.98C1107.87 432.586 1106.8 430.893 1107.56 428.799L1110.54 420.639C1111.29 418.547 1113.6 416.853 1115.69 416.853H1125.61C1127.7 416.853 1128.78 418.547 1128.01 420.639L1125.03 428.799C1124.29 430.893 1121.95 432.586 1119.87 432.586Z" fill="#9EC8FF"/>
<path d="M1151.66 432.585H1141.75C1139.66 432.585 1138.57 430.893 1139.33 428.799L1142.31 420.64C1143.06 418.547 1145.4 416.852 1147.46 416.852H1157.38C1159.46 416.852 1160.55 418.547 1159.8 420.64L1156.81 428.799C1156.06 430.893 1153.75 432.585 1151.66 432.585Z" fill="#9EC8FF"/>
<path d="M1183.41 432.589H1173.51C1171.43 432.589 1170.35 430.895 1171.11 428.802L1174.08 420.642C1174.84 418.55 1177.16 416.855 1179.24 416.855H1189.14C1191.25 416.855 1192.32 418.55 1191.54 420.642L1188.59 428.802C1187.84 430.895 1185.52 432.589 1183.41 432.589Z" fill="#9EC8FF"/>
<path d="M993.955 369.84H794.097C787.731 369.84 784.408 364.625 786.744 358.252L816.959 275.212C819.275 268.839 826.386 263.626 832.751 263.626H1032.61C1038.97 263.626 1042.3 268.839 1039.98 275.212L1009.75 358.252C1007.45 364.625 1000.32 369.84 993.955 369.84Z" fill="#9EC8FF"/>
<path d="M987.178 361.147H807.189C801.674 361.147 798.806 356.629 800.812 351.108L825.84 282.361C827.845 276.842 834.002 272.321 839.537 272.321H1019.51C1025.02 272.321 1027.89 276.842 1025.88 282.361L1000.86 351.108C998.85 356.629 992.693 361.147 987.178 361.147Z" fill="white"/>
<path d="M804.221 365.001C788.923 408.775 804.618 422.293 804.618 422.293C804.618 422.293 804.732 397.187 816.266 384.96C827.801 372.733 841.265 367.588 841.265 367.588L804.221 365.001Z" fill="#9EC8FF"/>
<path d="M938.328 302.576H840.427C838.668 302.576 837.77 301.137 838.395 299.39L838.649 298.683C839.293 296.936 841.247 295.496 843.006 295.496H940.907C942.645 295.496 943.564 296.936 942.919 298.683L942.665 299.39C942.04 301.137 940.066 302.576 938.328 302.576Z" fill="#9EC8FF"/>
<path d="M932.949 317.371H835.057C833.301 317.371 832.385 315.943 833.028 314.184L833.282 313.478C833.906 311.73 835.876 310.291 837.631 310.291H935.523C937.279 310.291 938.195 311.73 937.552 313.478L937.298 314.184C936.654 315.943 934.704 317.371 932.949 317.371Z" fill="#9EC8FF"/>
<path d="M926.851 334.108H828.933C827.2 334.108 826.286 332.681 826.909 330.921L827.181 330.214C827.823 328.468 829.77 327.028 831.522 327.028H929.421C931.173 327.028 932.088 328.468 931.445 330.214L931.192 330.921C930.55 332.681 928.603 334.108 926.851 334.108Z" fill="#9EC8FF"/>
<path d="M1176 463.8H983.104C979.655 463.8 977.868 462.372 979.109 460.612L979.634 459.905C980.875 458.158 984.744 456.718 988.192 456.718H1181.09C1184.54 456.718 1186.33 458.158 1185.06 459.905L1184.56 460.612C1183.32 462.372 1179.45 463.8 1176 463.8Z" fill="#9EC8FF"/>
<path d="M1165.38 488.268H972.477C969.04 488.268 967.237 486.828 968.495 485.082L968.998 484.375C970.256 482.615 974.112 481.189 977.571 481.189H1170.44C1173.89 481.189 1175.7 482.615 1174.44 484.375L1173.94 485.082C1172.68 486.828 1168.82 488.268 1165.38 488.268Z" fill="#9EC8FF"/>
<path d="M972.344 339.905H958.183C951.818 339.905 948.497 334.692 950.824 328.319L961.345 299.358C963.672 292.985 970.793 287.772 977.157 287.772H991.319C997.703 287.772 1001.01 292.985 998.678 299.358L988.156 328.319C985.829 334.692 978.709 339.905 972.344 339.905Z" fill="#9EC8FF"/>
<path d="M1466.35 899.652C1492.05 758.612 1486.41 708.158 1417.57 593.025C1348.7 477.891 1342.13 263.637 1316.21 326.478C1290.23 389.317 1293.74 547.131 1375.06 623.705C1456.41 700.292 1467.36 734.585 1472.19 765.746C1477.02 796.918 1460.56 892.72 1460.56 892.72L1466.35 899.652Z" fill="#9CD499"/>
<path d="M1479.22 808.761C1479.24 808.213 1479.29 807.679 1479.33 807.147C1477.83 795.573 1469.66 736.052 1458.36 712.573C1445.8 686.506 1390.75 641.134 1375.32 584.174C1359.87 527.2 1335.38 483.054 1319.31 447.067C1298.11 399.561 1309.7 336.399 1327.23 315.894C1326.82 315.6 1326.39 315.413 1325.96 315.294L1320.13 318.813C1318.86 320.639 1317.56 323.173 1316.19 326.48C1290.24 389.319 1293.73 547.132 1375.05 623.707C1456.39 700.294 1467.35 734.587 1472.19 765.746C1473.49 774.159 1473.24 787.279 1472.19 801.945L1479.22 808.761Z" fill="#74B570"/>
<path d="M1431.2 874.773C1450.32 709.012 1443.96 651.639 1406.98 519.026C1370 386.425 1610.99 84.2377 1603.34 136.518C1595.68 188.785 1570.18 318.85 1503.89 400.451C1437.58 482.052 1432.48 548.358 1445.24 618.493C1457.98 688.611 1442.69 851.827 1442.69 851.827L1435.03 881.147L1431.2 874.773Z" fill="#9CD499"/>
<path d="M1439.99 805.894H1439.94C1439.05 805.854 1438.37 805.12 1438.39 804.227C1438.41 803.719 1440.32 752.627 1439.38 710.679C1438.41 668.693 1427.03 596.76 1420.12 572.054C1413.82 549.548 1405.9 474.081 1444.36 396.16C1463.52 357.346 1478.81 332.801 1499.99 298.841C1520.89 265.268 1546.95 223.494 1588.26 149.894C1588.68 149.12 1589.64 148.84 1590.42 149.28C1591.2 149.708 1591.48 150.681 1591.03 151.455C1549.7 225.121 1523.65 266.935 1502.7 300.533C1481.58 334.414 1466.32 358.907 1447.23 397.575C1409.19 474.601 1416.99 549.014 1423.2 571.186C1430.16 596.053 1441.61 668.4 1442.55 710.613C1443.52 752.653 1441.61 803.841 1441.59 804.361C1441.56 805.214 1440.86 805.894 1439.99 805.894Z" fill="#74B570"/>
<path d="M1437.58 934.32C1449.05 823.386 1450.98 878.093 1403.31 727.373C1348.77 554.866 1543.41 401.718 1575.28 464.199C1607.17 526.679 1644.14 723.04 1630.12 716.667C1616.08 710.293 1523.01 527.959 1520.46 535.612C1517.91 543.251 1394.23 607.013 1399.33 672.04C1404.43 737.067 1451.6 840.345 1451.6 840.345L1450.33 935.6L1437.58 934.32Z" fill="#9CD499"/>
<path d="M1439.32 929.987L1448.75 930.934L1449.99 840.68C1447.04 834.174 1402.64 734.907 1397.73 672.16C1393.71 620.988 1466.84 571.389 1501.98 547.547C1510.33 541.882 1518.21 536.535 1518.93 535.054C1519.19 534.361 1519.78 533.854 1520.55 533.788C1523.64 533.495 1529.74 543.562 1564.28 605.602C1589.08 650.121 1622.96 710.975 1630.6 715.12C1631.17 714.175 1632.91 708.947 1629.53 682.013C1627.1 662.547 1622.63 636.935 1616.96 609.894C1603.41 545.495 1587.3 491.309 1573.85 464.935C1566.44 450.416 1548.73 447.602 1525.28 457.215C1461.72 483.267 1364.33 598.853 1404.83 726.894C1417.61 767.309 1426.66 792.24 1433.25 810.454C1448.11 851.507 1448.11 851.507 1442.68 899.346C1441.7 908.081 1440.58 917.92 1439.32 929.987ZM1450.32 934.307L1450.15 934.293L1437.42 933.012C1436.99 932.974 1436.58 932.76 1436.32 932.441C1436.06 932.108 1435.92 931.679 1435.99 931.267C1437.3 918.441 1438.54 907.655 1439.51 898.987C1444.84 851.88 1444.84 851.88 1430.23 811.535C1423.61 793.307 1414.59 768.335 1401.78 727.868C1392.21 697.587 1389.73 666.213 1394.42 634.614C1398.57 606.761 1408.14 579.294 1422.85 552.987C1448.11 507.868 1487.84 469.108 1524.07 454.256C1549.26 443.936 1568.44 447.295 1576.7 463.48C1590.23 490.002 1606.41 544.295 1619.96 608.735C1627.81 645.922 1639.31 710.68 1632.77 717.507C1631.89 718.441 1630.65 718.667 1629.43 718.122C1621.77 714.641 1596.44 669.934 1561.49 607.161C1543.97 575.681 1525.88 543.2 1521 537.601C1519.02 539.787 1514.07 543.215 1503.79 550.202C1469.13 573.695 1397.04 622.587 1400.92 671.92C1405.92 735.907 1452.58 838.654 1453.06 839.68C1453.15 839.894 1453.2 840.135 1453.2 840.375L1451.92 932.72C1451.92 933.174 1451.72 933.6 1451.39 933.893C1451.08 934.16 1450.72 934.307 1450.32 934.307Z" fill="#74B570"/>
<path d="M1477.66 938.919H1419.78C1415.8 938.919 1412.24 936.652 1411.87 933.841L1392.43 787.68C1391.53 780.933 1395.99 775.253 1402.38 775.253H1495.06C1501.43 775.253 1505.89 780.933 1504.99 787.68L1485.55 933.841C1485.18 936.652 1481.62 938.919 1477.66 938.919Z" fill="#7BCEE8"/>
<path d="M1470.79 933.88H1462.53C1458.47 933.88 1455.2 931.532 1455.26 928.613L1458.2 802.358C1458.33 796.065 1463.49 790.785 1469.63 790.785H1482.2C1488.34 790.785 1492.81 796.065 1492.14 802.358L1478.72 928.613C1478.4 931.532 1474.85 933.88 1470.79 933.88Z" fill="#A2DFF2"/>
<path d="M1409.1 729.306L1410.13 727.534C1406.39 714 1403.26 700.52 1401.26 687.92C1403.33 711.747 1409.1 729.306 1409.1 729.306Z" fill="#74B570"/>
<path d="M1409.1 622.469C1405.34 631.867 1403.03 641.668 1401.79 651.334C1418.87 595.267 1513.99 544.655 1520.15 536.108L1521.26 533.961C1485.53 523.988 1428.4 574.187 1409.1 622.469Z" fill="#74B570"/>
<path d="M1630.21 713.212C1629.5 713.212 1628.83 712.718 1628.64 711.986L1611.37 641.679C1597.87 586.585 1581.07 518.012 1562.23 487.492C1559.12 482.464 1545.55 475.652 1526.3 477.011C1500.33 478.853 1450.22 496.811 1406.72 596.384C1406.36 597.199 1405.41 597.572 1404.6 597.225C1403.82 596.867 1403.44 595.919 1403.77 595.106C1447.97 493.986 1499.38 475.719 1526.09 473.825C1546.86 472.359 1561.33 479.946 1564.96 485.812C1584.07 516.772 1600.22 582.72 1614.48 640.919L1631.75 711.226C1631.97 712.079 1631.44 712.946 1630.59 713.16C1630.47 713.198 1630.33 713.212 1630.21 713.212Z" fill="#74B570"/>
<path d="M1579.5 621.493L1579.31 621.479C1578.44 621.373 1577.81 620.586 1577.92 619.708C1577.99 619.135 1584.45 561.333 1569.26 500.559C1569.04 499.707 1569.56 498.84 1570.43 498.612C1571.3 498.415 1572.17 498.934 1572.38 499.787C1587.72 561.147 1581.16 619.494 1581.09 620.081C1581 620.894 1580.32 621.493 1579.5 621.493Z" fill="#74B570"/>
<path d="M1561.65 585.774L1561.46 585.76C1560.6 585.652 1559.97 584.853 1560.06 583.986C1560.13 583.453 1566.28 530.534 1561.98 486.814C1561.91 485.932 1562.54 485.147 1563.43 485.065C1564.29 484.96 1565.09 485.612 1565.18 486.493C1569.48 530.573 1563.31 583.827 1563.24 584.36C1563.15 585.173 1562.45 585.774 1561.65 585.774Z" fill="#74B570"/>
<path d="M1500.83 301.919C1500.22 301.919 1499.66 301.586 1499.38 301.013C1499.01 300.214 1499.33 299.266 1500.13 298.879C1500.57 298.652 1546.33 276.279 1572.79 227.147C1573.22 226.375 1574.18 226.08 1574.95 226.506C1575.72 226.92 1576.03 227.894 1575.6 228.667C1548.65 278.747 1501.98 301.533 1501.51 301.76C1501.3 301.867 1501.04 301.919 1500.83 301.919Z" fill="#74B570"/>
<path d="M1467.02 359.856C1466.27 359.856 1465.62 359.335 1465.46 358.576C1465.27 357.708 1465.83 356.868 1466.69 356.682C1467.07 356.603 1504.55 348.575 1549.04 312.601C1549.74 312.043 1550.74 312.147 1551.3 312.829C1551.86 313.523 1551.74 314.521 1551.07 315.082C1505.9 351.588 1467.72 359.735 1467.34 359.814L1467.02 359.856Z" fill="#74B570"/>
<path d="M1439.1 415.879C1438.46 415.879 1438.07 415.851 1437.95 415.838C1437.08 415.771 1436.41 415.012 1436.48 414.131C1436.55 413.238 1437.33 412.585 1438.18 412.652C1438.44 412.665 1464.27 414.078 1505.65 383.038C1506.39 382.504 1507.38 382.652 1507.9 383.358C1508.43 384.064 1508.3 385.065 1507.58 385.598C1469.58 414.105 1444.72 415.879 1439.1 415.879Z" fill="#74B570"/>
</svg>
