<svg width="649" height="640" viewBox="0 0 649 640" fill="none" xmlns="http://www.w3.org/2000/svg">
<path d="M416.752 320.805C352.699 320.197 294.736 319.648 252.721 319.249C231.761 319.149 214.793 319.068 203.012 319.012C197.175 319.025 192.632 319.036 189.496 319.044C187.983 319.064 186.816 319.08 185.981 319.091C185.189 319.109 184.783 319.131 184.783 319.155C184.783 319.179 185.188 319.205 185.98 319.232C186.815 319.252 187.981 319.279 189.495 319.315C192.631 319.353 197.172 319.409 203.009 319.483C214.791 319.545 231.759 319.636 252.719 319.748C294.735 319.775 352.701 319.811 416.756 319.851C480.779 319.844 538.755 319.928 580.725 320.233C601.711 320.383 618.695 320.58 630.432 320.803C636.3 320.915 640.857 321.031 643.947 321.149C647.036 321.268 648.659 321.387 648.657 321.501C648.657 321.615 647.033 321.719 643.943 321.805C640.852 321.892 636.295 321.964 630.425 322.015C618.687 322.12 601.701 322.145 580.716 322.081C538.745 321.963 480.771 321.46 416.752 320.805Z" fill="#E7E8E5"/>
<path d="M415.476 335.059C352.299 324.637 295.127 315.207 253.685 308.371C232.996 305.063 216.247 302.383 204.616 300.524C198.848 299.644 194.359 298.96 191.259 298.487C189.76 298.276 188.607 298.115 187.779 297.997C186.993 297.896 186.589 297.856 186.585 297.88C186.581 297.905 186.977 297.993 187.755 298.143C188.577 298.291 189.724 298.497 191.213 298.765C194.305 299.285 198.783 300.039 204.537 301.007C216.167 302.876 232.912 305.567 253.599 308.891C295.103 315.352 352.36 324.267 415.631 334.117C478.877 343.913 536.139 352.875 577.551 359.609C598.257 362.972 615.003 365.771 626.561 367.792C632.341 368.803 636.824 369.619 639.857 370.211C642.891 370.803 644.473 371.171 644.455 371.285C644.436 371.399 642.816 371.253 639.749 370.868C636.681 370.481 632.168 369.855 626.361 369.008C614.749 367.315 597.965 364.739 577.245 361.46C535.803 354.911 478.612 345.524 415.476 335.059Z" fill="#E7E8E5"/>
<path d="M411.949 348.94C351.227 328.833 296.275 310.64 256.443 297.451C236.54 290.971 220.428 285.724 209.239 282.081C203.683 280.317 199.359 278.945 196.373 277.997C194.927 277.557 193.813 277.217 193.015 276.975C192.255 276.752 191.861 276.651 191.853 276.675C191.845 276.699 192.223 276.848 192.967 277.116C193.756 277.391 194.855 277.772 196.283 278.269C199.252 279.263 203.553 280.703 209.081 282.553C220.267 286.205 236.375 291.464 256.272 297.959C296.227 310.784 351.345 328.476 412.256 348.028C473.149 367.521 528.265 385.261 568.085 398.343C587.996 404.88 604.087 410.245 615.177 414.039C620.724 415.935 625.02 417.437 627.92 418.493C630.82 419.551 632.325 420.161 632.288 420.272C632.251 420.384 630.673 419.989 627.705 419.133C624.739 418.276 620.38 416.957 614.781 415.22C603.584 411.745 587.421 406.596 567.483 400.14C527.603 387.237 472.627 369.083 411.949 348.94Z" fill="#E7E8E5"/>
<path d="M406.256 362.085C349.495 332.812 298.128 306.32 260.896 287.119C242.275 277.629 227.2 269.948 216.733 264.615C211.528 262.009 207.476 259.983 204.681 258.584C203.323 257.923 202.276 257.415 201.528 257.051C200.813 256.713 200.441 256.551 200.429 256.572C200.419 256.595 200.767 256.8 201.46 257.18C202.193 257.572 203.219 258.12 204.551 258.832C207.324 260.273 211.343 262.363 216.507 265.047C226.969 270.388 242.039 278.08 260.653 287.583C298.06 306.451 349.669 332.48 406.697 361.244C463.72 389.949 515.317 416.025 552.555 435.121C571.175 444.667 586.209 452.46 596.557 457.924C601.732 460.656 605.736 462.805 608.433 464.297C611.129 465.789 612.519 466.624 612.465 466.727C612.412 466.829 610.917 466.193 608.125 464.885C605.332 463.577 601.239 461.597 595.988 459.011C585.485 453.84 570.347 446.244 551.687 436.775C514.363 417.843 462.967 391.388 406.256 362.085Z" fill="#E7E8E5"/>
<path d="M398.541 374.192C347.117 336.528 300.583 302.444 266.851 277.739C249.964 265.496 236.292 255.585 226.799 248.703C222.071 245.327 218.391 242.701 215.851 240.887C214.613 240.025 213.661 239.363 212.979 238.887C212.327 238.443 211.985 238.225 211.971 238.245C211.956 238.265 212.268 238.523 212.892 239.004C213.555 239.505 214.48 240.204 215.683 241.112C218.195 242.964 221.832 245.645 226.508 249.093C235.996 255.981 249.66 265.901 266.539 278.156C300.497 302.559 347.345 336.223 399.115 373.424C450.887 410.567 497.716 444.275 531.468 468.877C548.347 481.175 561.96 491.191 571.316 498.184C575.993 501.68 579.607 504.42 582.033 506.309C584.46 508.199 585.7 509.237 585.631 509.331C585.563 509.424 584.187 508.565 581.635 506.844C579.084 505.121 575.356 502.535 570.579 499.172C561.024 492.445 547.276 482.611 530.345 470.381C496.481 445.929 449.909 411.876 398.541 374.192Z" fill="#E7E8E5"/>
<path d="M389.009 384.963C344.151 339.869 303.556 299.064 274.132 269.485C259.381 254.801 247.439 242.913 239.147 234.659C235.008 230.599 231.788 227.44 229.565 225.259C228.479 224.217 227.643 223.416 227.044 222.843C226.471 222.304 226.167 222.037 226.149 222.055C226.132 222.071 226.4 222.372 226.94 222.944C227.516 223.541 228.321 224.373 229.365 225.453C231.555 227.669 234.725 230.876 238.8 234.999C247.085 243.259 259.019 255.153 273.76 269.848C303.456 299.161 344.424 339.603 389.696 384.292C434.98 428.924 475.923 469.405 505.383 498.885C520.117 513.623 531.985 525.604 540.124 533.946C544.193 538.117 547.332 541.379 549.431 543.617C551.531 545.856 552.592 547.072 552.508 547.153C552.425 547.233 551.203 546.176 548.955 544.082C546.705 541.991 543.431 538.863 539.243 534.808C530.865 526.697 518.835 514.873 504.04 500.196C474.444 470.848 433.809 430.067 389.009 384.963Z" fill="#E7E8E5"/>
<path d="M377.896 394.14C340.696 342.715 307.033 296.177 282.632 262.445C270.376 245.677 260.455 232.103 253.565 222.677C250.117 218.032 247.433 214.417 245.581 211.923C244.673 210.728 243.975 209.808 243.472 209.148C242.991 208.528 242.733 208.219 242.713 208.233C242.692 208.247 242.909 208.587 243.353 209.233C243.828 209.911 244.491 210.857 245.352 212.085C247.165 214.608 249.792 218.263 253.167 222.96C260.049 232.391 269.961 245.972 282.205 262.749C306.916 296.26 341.008 342.493 378.68 393.583C416.375 444.616 450.435 490.884 474.887 524.525C487.117 541.343 496.951 555 503.675 564.489C507.037 569.234 509.623 572.936 511.343 575.469C513.063 578.003 513.919 579.368 513.824 579.435C513.729 579.503 512.689 578.269 510.797 575.857C508.905 573.446 506.164 569.855 502.665 565.206C495.669 555.91 485.651 542.384 473.351 525.616C448.744 492.085 415.036 445.567 377.896 394.14Z" fill="#E7E8E5"/>
<path d="M365.469 401.495C336.881 344.965 311.012 293.811 292.26 256.731C282.812 238.279 275.165 223.341 269.855 212.969C267.185 207.851 265.107 203.867 263.673 201.116C262.965 199.797 262.42 198.78 262.029 198.052C261.651 197.365 261.445 197.02 261.423 197.031C261.4 197.043 261.561 197.411 261.896 198.119C262.257 198.861 262.763 199.897 263.417 201.244C264.808 204.016 266.823 208.031 269.411 213.191C274.713 223.567 282.349 238.509 291.783 256.967C310.877 293.877 337.221 344.797 366.332 401.065C395.473 457.283 421.78 508.234 440.599 545.231C450.012 563.727 457.559 578.732 462.695 589.143C465.264 594.346 467.229 598.403 468.527 601.17C469.824 603.939 470.453 605.418 470.348 605.47C470.243 605.523 469.409 604.144 467.924 601.47C466.437 598.797 464.297 594.828 461.58 589.698C456.143 579.437 448.391 564.534 438.901 546.075C419.913 509.161 393.997 458.017 365.469 401.495Z" fill="#E7E8E5"/>
<path d="M352.023 406.837C332.812 346.576 315.427 292.044 302.824 252.516C296.439 232.828 291.269 216.891 287.679 205.824C285.859 200.355 284.443 196.099 283.465 193.16C282.976 191.747 282.599 190.659 282.329 189.879C282.065 189.141 281.919 188.768 281.893 188.776C281.869 188.784 281.968 189.172 282.187 189.924C282.425 190.713 282.759 191.815 283.191 193.247C284.121 196.2 285.469 200.477 287.201 205.975C290.783 217.044 295.94 232.985 302.309 252.677C315.28 292.089 333.172 346.463 352.945 406.547C372.755 466.585 390.607 520.981 403.289 560.439C409.633 580.165 414.693 596.155 418.104 607.232C419.809 612.77 421.104 617.081 421.943 620.015C422.783 622.951 423.167 624.51 423.055 624.546C422.943 624.58 422.339 623.091 421.297 620.218C420.256 617.348 418.776 613.096 416.909 607.608C413.177 596.632 407.9 580.711 401.472 561.011C388.609 521.611 371.177 467.083 352.023 406.837Z" fill="#E7E8E5"/>
<path d="M337.888 410.025C328.529 347.535 320.06 290.983 313.921 249.992C310.756 229.56 308.195 213.019 306.415 201.532C305.491 195.848 304.772 191.425 304.275 188.372C304.019 186.9 303.82 185.767 303.679 184.955C303.535 184.187 303.449 183.795 303.424 183.799C303.4 183.803 303.436 184.201 303.532 184.977C303.641 185.795 303.795 186.933 303.993 188.413C304.441 191.475 305.091 195.908 305.925 201.605C307.696 213.093 310.245 229.636 313.395 250.072C319.913 291.005 328.908 347.477 338.845 409.881C348.828 472.247 357.777 528.736 364.005 569.668C367.124 590.133 369.569 606.709 371.171 618.177C371.972 623.912 372.563 628.369 372.924 631.398C373.284 634.427 373.415 636.025 373.299 636.043C373.184 636.06 372.825 634.494 372.256 631.499C371.685 628.501 370.903 624.072 369.936 618.364C368.001 606.945 365.331 590.404 362.127 569.951C355.711 529.046 347.193 472.492 337.888 410.025Z" fill="#E7E8E5"/>
<path d="M323.42 410.995C323.996 347.828 324.519 290.667 324.897 249.232C324.985 228.563 325.057 211.831 325.107 200.211C325.089 194.455 325.076 189.975 325.067 186.883C325.045 185.389 325.029 184.24 325.017 183.416C324.997 182.635 324.976 182.235 324.951 182.235C324.927 182.235 324.901 182.635 324.873 183.415C324.855 184.239 324.827 185.388 324.792 186.881C324.755 189.973 324.7 194.452 324.631 200.208C324.573 211.828 324.492 228.561 324.392 249.231C324.391 290.667 324.389 347.831 324.388 410.999C324.433 474.136 324.385 531.311 324.101 572.701C323.963 593.396 323.773 610.145 323.555 621.718C323.445 627.506 323.329 632 323.211 635.046C323.093 638.094 322.973 639.694 322.857 639.693C322.743 639.693 322.637 638.092 322.547 635.044C322.456 631.996 322.381 627.501 322.325 621.713C322.212 610.137 322.176 593.388 322.227 572.692C322.321 531.301 322.796 474.129 323.42 410.995Z" fill="#E7E8E5"/>
<path d="M308.965 409.745C319.493 347.436 329.02 291.049 335.925 250.176C339.268 229.771 341.975 213.252 343.853 201.781C344.741 196.092 345.432 191.665 345.909 188.608C346.123 187.129 346.285 185.991 346.404 185.176C346.507 184.401 346.547 184.001 346.521 183.999C346.496 183.995 346.407 184.385 346.256 185.152C346.107 185.963 345.899 187.093 345.627 188.563C345.103 191.612 344.341 196.028 343.363 201.703C341.476 213.172 338.757 229.689 335.399 250.092C328.873 291.025 319.871 347.496 309.921 409.899C300.027 472.276 290.976 528.751 284.173 569.593C280.777 590.016 277.949 606.532 275.907 617.932C274.885 623.633 274.061 628.055 273.463 631.045C272.864 634.037 272.492 635.598 272.376 635.58C272.26 635.561 272.407 633.964 272.796 630.939C273.185 627.915 273.819 623.463 274.673 617.736C276.383 606.282 278.985 589.731 282.296 569.294C288.912 528.42 298.393 472.016 308.965 409.745Z" fill="#E7E8E5"/>
<path d="M294.888 406.277C315.237 346.381 333.653 292.179 347 252.889C353.56 233.257 358.869 217.365 362.557 206.328C364.341 200.848 365.729 196.583 366.689 193.639C367.135 192.212 367.479 191.113 367.724 190.325C367.949 189.576 368.052 189.188 368.028 189.18C368.004 189.172 367.852 189.544 367.581 190.279C367.303 191.056 366.916 192.14 366.413 193.548C365.408 196.479 363.951 200.72 362.077 206.172C358.381 217.207 353.06 233.095 346.485 252.721C333.505 292.131 315.6 346.499 295.813 406.577C276.084 466.643 258.131 521.006 244.891 560.284C238.275 579.924 232.844 595.794 229.004 606.736C227.085 612.205 225.564 616.443 224.495 619.304C223.425 622.165 222.807 623.649 222.695 623.612C222.581 623.576 222.98 622.02 223.847 619.093C224.713 616.167 226.048 611.868 227.807 606.345C231.323 595.3 236.535 579.358 243.068 559.692C256.127 520.355 274.501 466.128 294.888 406.277Z" fill="#E7E8E5"/>
<path d="M281.555 400.671C311.203 344.676 338.033 294.004 357.481 257.275C367.091 238.905 374.872 224.035 380.273 213.708C382.912 208.573 384.964 204.577 386.381 201.819C387.051 200.479 387.565 199.447 387.933 198.708C388.276 198.004 388.44 197.637 388.417 197.625C388.395 197.615 388.187 197.959 387.803 198.641C387.404 199.365 386.851 200.376 386.129 201.691C384.669 204.427 382.553 208.391 379.835 213.485C374.425 223.807 366.635 238.672 357.011 257.035C337.903 293.936 311.539 344.848 282.408 401.105C253.335 457.359 226.928 508.257 207.585 544.991C197.919 563.36 190.025 578.191 184.491 588.4C181.724 593.505 179.547 597.455 178.036 600.115C176.525 602.774 175.679 604.145 175.576 604.093C175.472 604.04 176.115 602.567 177.44 599.812C178.764 597.056 180.769 593.02 183.388 587.839C188.625 577.479 196.317 562.545 205.908 544.137C225.083 507.317 251.877 456.615 281.555 400.671Z" fill="#E7E8E5"/>
<path d="M269.273 393.071C307.433 342.335 341.967 296.421 366.997 263.141C379.401 246.48 389.443 232.991 396.416 223.625C399.836 218.96 402.496 215.329 404.333 212.823C405.207 211.603 405.879 210.664 406.36 209.991C406.809 209.347 407.031 209.011 407.009 208.996C406.989 208.981 406.729 209.289 406.241 209.904C405.733 210.559 405.025 211.472 404.107 212.659C402.229 215.136 399.512 218.725 396.02 223.339C389.04 232.7 378.989 246.181 366.573 262.835C341.851 296.337 307.743 342.559 270.052 393.635C232.421 444.715 198.269 490.917 173.343 524.217C160.883 540.869 150.736 554.301 143.651 563.532C140.108 568.148 137.332 571.713 135.417 574.106C133.503 576.501 132.45 577.725 132.356 577.656C132.262 577.588 133.13 576.232 134.876 573.715C136.62 571.198 139.24 567.518 142.647 562.805C149.463 553.379 159.427 539.815 171.817 523.112C196.591 489.7 231.092 443.751 269.273 393.071Z" fill="#E7E8E5"/>
<path d="M258.345 383.676C304.043 339.411 345.396 299.352 375.371 270.316C390.252 255.76 402.299 243.977 410.664 235.795C414.779 231.711 417.98 228.532 420.191 226.339C421.245 225.267 422.056 224.443 422.639 223.851C423.184 223.285 423.456 222.985 423.437 222.968C423.42 222.951 423.115 223.215 422.536 223.748C421.931 224.317 421.087 225.111 419.992 226.141C417.748 228.301 414.497 231.431 410.32 235.452C401.949 243.629 389.895 255.404 375.004 269.951C345.297 299.253 304.313 339.681 259.027 384.353C213.796 429.039 172.773 469.44 142.897 498.512C127.962 513.051 115.82 524.763 107.366 532.794C103.138 536.811 99.8344 539.906 97.565 541.979C95.2969 544.049 94.064 545.098 93.9817 545.015C93.8994 544.934 94.9724 543.727 97.0926 541.508C99.2136 539.289 102.382 536.057 106.492 531.925C114.71 523.658 126.693 511.788 141.567 497.188C171.309 467.984 212.637 427.885 258.345 383.676Z" fill="#E7E8E5"/>
<path d="M249.033 372.723C301.156 336.005 348.325 302.779 382.515 278.695C399.511 266.597 413.269 256.805 422.823 250.005C427.531 246.601 431.193 243.953 433.724 242.125C434.935 241.228 435.867 240.539 436.535 240.044C437.163 239.568 437.477 239.315 437.463 239.293C437.448 239.273 437.105 239.488 436.448 239.925C435.761 240.395 434.803 241.049 433.559 241.899C431 243.689 427.296 246.281 422.536 249.612C412.976 256.405 399.211 266.189 382.207 278.273C348.241 302.664 301.38 336.313 249.599 373.496C197.872 410.7 150.976 444.319 116.879 468.453C99.8327 480.525 85.9911 490.232 76.3723 496.868C71.563 500.188 67.8103 502.739 65.2421 504.437C62.6745 506.136 61.2917 506.98 61.2229 506.887C61.1546 506.793 62.4041 505.767 64.8489 503.9C67.2937 502.032 70.9338 499.327 75.6447 495.873C85.0671 488.968 98.7759 479.08 115.772 466.94C149.757 442.652 196.908 409.381 249.033 372.723Z" fill="#E7E8E5"/>
<path d="M241.567 360.472C298.871 332.245 350.727 306.7 388.316 288.184C407.02 278.856 422.161 271.305 432.677 266.061C437.865 263.427 441.904 261.375 444.692 259.959C446.029 259.26 447.06 258.721 447.797 258.335C448.495 257.963 448.844 257.76 448.833 257.737C448.821 257.715 448.448 257.873 447.731 258.204C446.977 258.561 445.927 259.06 444.563 259.707C441.752 261.08 437.683 263.068 432.452 265.624C421.933 270.86 406.787 278.4 388.076 287.715C350.66 306.568 299.043 332.58 242.003 361.324C185.015 390.096 133.367 416.072 95.8625 434.653C77.112 443.948 61.9016 451.4 51.3484 456.472C46.0719 459.008 41.9604 460.949 39.1547 462.231C36.3489 463.511 34.8489 464.132 34.7959 464.028C34.7432 463.925 36.1401 463.103 38.8505 461.635C41.5604 460.168 45.5844 458.056 50.7855 455.372C61.186 450.004 76.2932 442.351 95.0047 432.98C132.423 414.231 184.269 388.641 241.567 360.472Z" fill="#E7E8E5"/>
<path d="M236.141 347.216C297.235 328.232 352.521 311.052 392.596 298.6C412.556 292.291 428.713 287.183 439.933 283.635C445.479 281.836 449.793 280.437 452.772 279.471C454.205 278.988 455.308 278.616 456.099 278.349C456.845 278.088 457.224 277.943 457.216 277.919C457.208 277.895 456.815 277.993 456.053 278.208C455.252 278.444 454.136 278.773 452.684 279.2C449.691 280.12 445.353 281.452 439.78 283.164C428.557 286.703 412.396 291.799 392.432 298.093C352.475 310.908 297.351 328.588 236.436 348.124C175.568 367.699 120.42 385.339 80.4177 397.869C60.4182 404.139 44.2078 409.139 32.977 412.509C27.3619 414.195 22.9921 415.473 20.0166 416.304C17.0411 417.132 15.4603 417.512 15.4245 417.403C15.3885 417.291 16.8989 416.696 19.8098 415.667C22.7202 414.637 27.0306 413.176 32.5947 411.332C43.7223 407.644 59.8635 402.429 79.8363 396.079C119.78 383.369 175.063 366.143 236.141 347.216Z" fill="#E7E8E5"/>
<path d="M232.899 333.279C296.261 324.011 353.6 315.623 395.161 309.543C415.879 306.409 432.651 303.872 444.297 302.111C450.06 301.195 454.544 300.483 457.641 299.992C459.132 299.737 460.281 299.541 461.105 299.4C461.884 299.259 462.281 299.175 462.277 299.149C462.273 299.125 461.869 299.161 461.083 299.256C460.255 299.364 459.099 299.516 457.597 299.713C454.493 300.157 449.999 300.8 444.223 301.627C432.575 303.38 415.801 305.905 395.081 309.024C353.577 315.477 296.319 324.383 233.045 334.223C169.812 344.105 112.536 352.967 71.0333 359.135C50.2822 362.223 33.476 364.645 21.8478 366.232C16.0338 367.025 11.514 367.611 8.44319 367.968C5.37288 368.325 3.75152 368.456 3.73329 368.343C3.71611 368.228 5.30256 367.873 8.34111 367.309C11.3797 366.745 15.8697 365.972 21.6588 365.015C33.2364 363.099 50.0084 360.455 70.7458 357.283C112.22 350.929 169.561 342.495 232.899 333.279Z" fill="#E7E8E5"/>
<path d="M231.907 319.012C295.96 319.541 353.924 320.02 395.939 320.368C416.899 320.441 433.867 320.503 445.649 320.544C451.487 320.524 456.028 320.508 459.164 320.496C460.679 320.475 461.844 320.457 462.679 320.445C463.471 320.425 463.876 320.403 463.877 320.379C463.877 320.355 463.472 320.329 462.68 320.304C461.844 320.285 460.679 320.259 459.165 320.225C456.029 320.191 451.487 320.14 445.651 320.073C433.868 320.025 416.9 319.956 395.94 319.869C353.924 319.895 295.959 319.928 231.904 319.967C167.881 320.051 109.904 320.039 67.9328 319.784C46.9473 319.661 29.964 319.485 18.2265 319.276C12.3578 319.172 7.80104 319.06 4.71145 318.945C1.62136 318.831 -0.000520708 318.713 1.25401e-07 318.6C0.000520959 318.487 1.62344 318.381 4.71355 318.291C7.80469 318.199 12.362 318.123 18.2312 318.064C29.9703 317.945 46.9547 317.899 67.9407 317.937C109.913 318.004 167.887 318.436 231.907 319.012Z" fill="#E7E8E5"/>
<path d="M233.165 304.757C296.355 315.099 353.54 324.459 394.989 331.243C415.683 334.525 432.435 337.184 444.068 339.029C449.839 339.901 454.328 340.58 457.428 341.048C458.927 341.257 460.081 341.419 460.908 341.533C461.695 341.635 462.099 341.673 462.103 341.649C462.107 341.624 461.711 341.536 460.932 341.389C460.111 341.241 458.963 341.036 457.473 340.771C454.381 340.255 449.903 339.507 444.147 338.545C432.516 336.692 415.765 334.021 395.075 330.723C353.563 324.313 296.295 315.471 233.011 305.699C169.751 295.981 112.479 287.092 71.0584 280.409C50.3474 277.072 33.5974 274.295 22.036 272.288C16.2552 271.285 11.7719 270.475 8.73806 269.887C5.70368 269.299 4.12034 268.932 4.13858 268.817C4.15733 268.703 5.77816 268.847 8.84534 269.229C11.9131 269.611 16.4282 270.232 22.2355 271.071C33.8506 272.751 50.636 275.305 71.3615 278.559C112.812 285.056 170.015 294.372 233.165 304.757Z" fill="#E7E8E5"/>
<path d="M236.673 290.872C297.421 310.901 352.397 329.027 392.245 342.165C412.157 348.621 428.276 353.847 439.469 357.476C445.028 359.232 449.353 360.599 452.34 361.543C453.788 361.981 454.901 362.32 455.701 362.563C456.46 362.784 456.853 362.885 456.861 362.861C456.869 362.836 456.493 362.688 455.748 362.42C454.959 362.147 453.859 361.767 452.431 361.272C449.46 360.281 445.157 358.847 439.627 357.004C428.436 353.365 412.321 348.128 392.416 341.656C352.445 328.883 297.303 311.259 236.368 291.784C175.448 272.367 120.31 254.696 80.4729 241.664C60.5536 235.152 44.4568 229.807 33.3604 226.028C27.8125 224.139 23.514 222.641 20.6125 221.589C17.7109 220.536 16.2052 219.927 16.2421 219.816C16.2792 219.704 17.8573 220.097 20.826 220.949C23.7943 221.803 28.1541 223.116 33.7552 224.847C44.9579 228.307 61.1265 233.436 81.074 239.867C120.97 252.72 175.969 270.805 236.673 290.872Z" fill="#E7E8E5"/>
<path d="M242.349 277.719C299.148 306.921 350.548 333.349 387.805 352.504C406.439 361.969 421.523 369.632 431.997 374.953C437.207 377.552 441.26 379.573 444.057 380.969C445.417 381.628 446.463 382.135 447.212 382.499C447.927 382.835 448.299 382.996 448.311 382.975C448.323 382.952 447.973 382.747 447.28 382.368C446.545 381.977 445.52 381.431 444.188 380.72C441.412 379.281 437.391 377.199 432.223 374.521C421.753 369.192 406.675 361.519 388.048 352.04C350.617 333.219 298.975 307.253 241.908 278.561C184.849 249.927 133.219 223.916 95.9574 204.865C77.3246 195.344 62.2808 187.569 51.9246 182.117C46.7465 179.392 42.7397 177.248 40.0418 175.759C37.3433 174.271 35.9528 173.437 36.0064 173.335C36.0594 173.233 37.5537 173.867 40.349 175.171C43.1433 176.476 47.2381 178.451 52.4933 181.031C63.0028 186.188 78.1506 193.764 96.823 203.211C134.171 222.096 185.601 248.487 242.349 277.719Z" fill="#E7E8E5"/>
<path d="M250.048 265.603C301.52 303.203 348.099 337.229 381.861 361.892C398.765 374.115 412.449 384.008 421.951 390.879C426.684 394.248 430.367 396.871 432.909 398.681C434.147 399.541 435.1 400.203 435.783 400.677C436.436 401.12 436.777 401.337 436.792 401.317C436.807 401.297 436.495 401.041 435.871 400.56C435.207 400.06 434.28 399.363 433.076 398.456C430.563 396.607 426.921 393.929 422.241 390.488C412.744 383.612 399.067 373.708 382.173 361.475C348.184 337.115 301.292 303.508 249.476 266.372C197.657 229.293 150.785 195.644 117.002 171.083C100.107 158.805 86.4807 148.807 77.1162 141.825C72.4339 138.335 68.8167 135.599 66.3875 133.713C63.9584 131.827 62.7172 130.788 62.7864 130.696C62.8558 130.603 64.2318 131.459 66.7855 133.177C69.3396 134.897 73.0708 137.479 77.8522 140.836C87.4151 147.551 101.176 157.369 118.121 169.577C152.017 193.987 198.632 227.983 250.048 265.603Z" fill="#E7E8E5"/>
<path d="M259.568 254.82C304.483 299.857 345.129 340.613 374.591 370.156C389.36 384.821 401.317 396.695 409.62 404.939C413.764 408.993 416.988 412.148 419.215 414.327C420.301 415.367 421.137 416.167 421.737 416.74C422.313 417.277 422.616 417.544 422.633 417.527C422.651 417.509 422.383 417.209 421.843 416.639C421.265 416.043 420.46 415.211 419.413 414.131C417.221 411.92 414.047 408.716 409.967 404.599C401.669 396.349 389.721 384.468 374.961 369.793C345.229 340.516 304.209 300.125 258.881 255.492C213.541 210.916 172.547 170.485 143.048 141.041C128.296 126.323 116.412 114.355 108.262 106.023C104.187 101.857 101.046 98.5999 98.9432 96.3639C96.8417 94.1279 95.7786 92.9119 95.862 92.8319C95.9448 92.7506 97.1688 93.8079 99.4197 95.8986C101.671 97.9879 104.95 101.111 109.143 105.16C117.531 113.26 129.576 125.069 144.389 139.729C174.023 169.041 214.709 209.772 259.568 254.82Z" fill="#E7E8E5"/>
<path d="M270.668 245.629C307.933 297.008 341.656 343.504 366.1 377.205C378.377 393.957 388.316 407.52 395.217 416.937C398.672 421.579 401.359 425.189 403.215 427.683C404.125 428.876 404.825 429.795 405.328 430.453C405.811 431.073 406.068 431.383 406.088 431.368C406.108 431.355 405.891 431.015 405.447 430.368C404.971 429.692 404.307 428.747 403.444 427.52C401.628 424.999 398.997 421.347 395.616 416.655C388.721 407.232 378.792 393.663 366.527 376.901C341.773 343.42 307.623 297.231 269.884 246.188C232.125 195.2 198.007 148.975 173.512 115.364C161.26 98.5612 151.408 84.9172 144.672 75.4359C141.304 70.6959 138.715 66.9959 136.991 64.4652C135.267 61.9332 134.409 60.5692 134.504 60.5025C134.599 60.4345 135.641 61.6666 137.536 64.0759C139.431 66.4866 142.177 70.0746 145.68 74.7173C152.689 84.0053 162.724 97.5186 175.047 114.272C199.696 147.772 233.463 194.248 270.668 245.629Z" fill="#E7E8E5"/>
<path d="M283.087 238.259C311.747 294.752 337.683 345.875 356.481 382.932C365.952 401.372 373.619 416.299 378.943 426.664C381.619 431.78 383.701 435.761 385.139 438.509C385.849 439.829 386.396 440.844 386.787 441.572C387.167 442.259 387.372 442.604 387.395 442.593C387.417 442.581 387.256 442.213 386.92 441.505C386.557 440.764 386.052 439.728 385.395 438.383C384 435.612 381.981 431.6 379.387 426.444C374.071 416.073 366.415 401.14 356.957 382.695C337.815 345.809 311.407 294.921 282.224 238.689C253.011 182.508 226.639 131.591 207.772 94.6173C198.336 76.132 190.768 61.1359 185.619 50.7333C183.044 45.5319 181.073 41.4773 179.772 38.712C178.472 35.9453 177.841 34.4667 177.945 34.4147C178.051 34.3613 178.885 35.7386 180.375 38.4106C181.865 41.0826 184.009 45.0493 186.735 50.176C192.184 60.4293 199.955 75.324 209.469 93.7706C228.504 130.66 254.485 181.772 283.087 238.259Z" fill="#E7E8E5"/>
<path d="M296.525 232.9C315.815 293.136 333.271 347.647 345.924 387.16C352.335 406.839 357.524 422.769 361.128 433.832C362.956 439.299 364.377 443.553 365.359 446.491C365.849 447.904 366.228 448.991 366.499 449.771C366.764 450.507 366.912 450.88 366.936 450.872C366.96 450.865 366.86 450.476 366.641 449.725C366.401 448.936 366.067 447.835 365.633 446.404C364.699 443.452 363.345 439.176 361.605 433.681C358.011 422.616 352.832 406.681 346.436 386.997C333.416 347.601 315.453 293.251 295.604 233.192C275.716 173.177 257.793 118.803 245.061 79.3627C238.691 59.644 233.611 43.6613 230.185 32.588C228.472 27.052 227.173 22.7427 226.331 19.8093C225.488 16.8747 225.101 15.3173 225.213 15.2813C225.325 15.2453 225.931 16.7346 226.976 19.6053C228.021 22.4746 229.505 26.724 231.38 32.2093C235.127 43.1813 240.424 59.096 246.877 78.788C259.791 118.172 277.293 172.679 296.525 232.9Z" fill="#E7E8E5"/>
<path d="M310.656 229.693C320.095 292.173 328.636 348.713 334.828 389.696C338.019 410.125 340.603 426.664 342.396 438.148C343.328 443.831 344.052 448.252 344.553 451.305C344.812 452.776 345.011 453.909 345.155 454.721C345.299 455.489 345.385 455.881 345.409 455.877C345.435 455.873 345.397 455.475 345.301 454.699C345.191 453.883 345.036 452.743 344.835 451.263C344.383 448.203 343.728 443.769 342.887 438.073C341.101 426.588 338.531 410.048 335.355 389.617C328.783 348.692 319.717 292.231 309.699 229.839C299.636 167.487 290.616 111.008 284.335 70.0841C281.189 49.6215 278.723 33.0494 277.107 21.5828C276.297 15.8494 275.701 11.3935 275.337 8.36546C274.972 5.33746 274.839 3.73881 274.955 3.72014C275.071 3.70281 275.431 5.26676 276.004 8.26409C276.579 11.2601 277.367 15.6881 278.341 21.3961C280.289 32.8121 282.983 49.3495 286.212 69.7988C292.68 110.695 301.271 167.239 310.656 229.693Z" fill="#E7E8E5"/>
<path d="M325.121 228.707C324.624 291.873 324.176 349.036 323.851 390.471C323.788 411.14 323.737 427.873 323.703 439.492C323.728 445.249 323.747 449.728 323.76 452.821C323.783 454.313 323.801 455.463 323.813 456.287C323.833 457.068 323.857 457.468 323.881 457.468C323.905 457.468 323.931 457.068 323.957 456.288C323.976 455.464 324.001 454.315 324.035 452.821C324.068 449.729 324.116 445.249 324.179 439.493C324.221 427.875 324.281 411.141 324.356 390.472C324.304 349.036 324.232 291.872 324.153 228.704C324.027 165.567 324.004 108.392 324.235 67C324.347 46.3053 324.515 29.5573 324.719 17.9813C324.82 12.1947 324.931 7.70001 325.045 4.65335C325.159 1.60668 325.277 0.00666559 325.393 0.00666559C325.508 0.00666559 325.615 1.60798 325.709 4.65465C325.804 7.70265 325.884 12.1987 325.948 17.9867C326.076 29.5627 326.133 46.312 326.108 67.008C326.067 108.399 325.664 165.572 325.121 228.707Z" fill="#E7E8E5"/>
<path d="M339.577 229.937C329.131 292.26 319.677 348.66 312.824 389.54C309.509 409.951 306.824 426.472 304.96 437.945C304.079 443.636 303.395 448.064 302.921 451.121C302.711 452.6 302.548 453.739 302.432 454.555C302.329 455.329 302.291 455.728 302.315 455.732C302.34 455.736 302.429 455.345 302.579 454.579C302.727 453.767 302.933 452.636 303.204 451.167C303.725 448.116 304.48 443.7 305.451 438.024C307.323 426.552 310.02 410.031 313.351 389.624C319.824 348.683 328.753 292.201 338.621 229.787C348.435 167.396 357.412 110.909 364.161 70.0572C367.532 49.6319 370.337 33.1106 372.365 21.7079C373.379 16.0079 374.197 11.5853 374.792 8.59326C375.385 5.59992 375.756 4.03859 375.872 4.05725C375.989 4.07459 375.844 5.67326 375.459 8.69859C375.073 11.7239 374.447 16.1759 373.599 21.9039C371.904 33.3599 369.323 49.9146 366.039 70.3546C359.477 111.237 350.068 167.653 339.577 229.937Z" fill="#E7E8E5"/>
<path d="M353.659 233.388C333.388 293.309 315.044 347.536 301.747 386.843C295.213 406.483 289.925 422.381 286.252 433.423C284.475 438.905 283.092 443.172 282.136 446.119C281.692 447.545 281.351 448.644 281.105 449.433C280.881 450.183 280.779 450.571 280.804 450.579C280.828 450.585 280.979 450.213 281.249 449.479C281.525 448.701 281.911 447.616 282.412 446.208C283.415 443.276 284.867 439.032 286.732 433.577C290.413 422.54 295.715 406.644 302.263 387.009C315.191 347.584 333.025 293.193 352.735 233.088C372.384 172.999 390.267 118.612 403.456 79.3175C410.045 59.6695 415.455 43.7908 419.28 32.8468C421.192 27.3735 422.708 23.1334 423.773 20.2721C424.84 17.4094 425.456 15.9241 425.569 15.9614C425.681 15.9974 425.285 17.5535 424.423 20.4815C423.559 23.4095 422.231 27.7095 420.48 33.2348C416.979 44.2855 411.787 60.2334 405.279 79.9081C392.272 119.261 373.968 173.512 353.659 233.388Z" fill="#E7E8E5"/>
<path d="M367 238.977C337.424 295.009 310.66 345.716 291.26 382.469C281.673 400.852 273.913 415.732 268.524 426.064C265.893 431.204 263.845 435.201 262.432 437.963C261.765 439.303 261.252 440.336 260.884 441.075C260.543 441.78 260.379 442.147 260.401 442.157C260.424 442.169 260.631 441.825 261.015 441.141C261.412 440.416 261.965 439.404 262.684 438.091C264.141 435.352 266.251 431.385 268.963 426.287C274.36 415.959 282.131 401.084 291.732 382.709C310.792 345.783 337.088 294.839 366.147 238.544C395.145 182.255 421.487 131.323 440.781 94.5641C450.424 76.1828 458.299 61.3415 463.82 51.1255C466.58 46.0175 468.752 42.0654 470.26 39.4028C471.767 36.7401 472.611 35.3694 472.715 35.4214C472.819 35.4748 472.177 36.9481 470.856 39.7054C469.535 42.4628 467.535 46.5014 464.923 51.6854C459.7 62.0534 452.027 76.9961 442.46 95.4161C423.333 132.26 396.605 182.996 367 238.977Z" fill="#E7E8E5"/>
<path d="M379.292 246.563C341.197 297.347 306.723 343.303 281.735 376.615C269.352 393.292 259.329 406.792 252.368 416.167C248.953 420.837 246.297 424.471 244.464 426.979C243.592 428.2 242.921 429.14 242.441 429.815C241.992 430.459 241.772 430.796 241.792 430.809C241.812 430.824 242.072 430.516 242.56 429.9C243.067 429.245 243.773 428.331 244.692 427.144C246.565 424.663 249.277 421.071 252.764 416.453C259.732 407.084 269.765 393.589 282.16 376.92C306.839 343.387 340.887 297.123 378.512 245.999C416.077 194.872 450.169 148.628 475.052 115.296C487.491 98.6267 497.621 85.1827 504.693 75.9427C508.231 71.3227 511.003 67.7547 512.913 65.3573C514.825 62.9613 515.876 61.736 515.971 61.8053C516.064 61.8733 515.197 63.2307 513.456 65.7507C511.715 68.2694 509.099 71.9507 505.697 76.668C498.896 86.104 488.948 99.68 476.58 116.399C451.849 149.841 417.407 195.833 379.292 246.563Z" fill="#E7E8E5"/>
<path d="M390.231 255.943C344.591 300.265 303.289 340.376 273.352 369.449C258.489 384.024 246.457 395.823 238.103 404.016C233.993 408.104 230.797 411.287 228.589 413.483C227.536 414.556 226.725 415.381 226.144 415.973C225.599 416.54 225.328 416.84 225.347 416.857C225.364 416.875 225.669 416.609 226.247 416.076C226.851 415.507 227.693 414.712 228.788 413.68C231.029 411.517 234.276 408.384 238.448 404.357C246.808 396.171 258.848 384.379 273.72 369.815C303.388 340.473 344.319 299.996 389.549 255.267C434.723 210.525 475.693 170.072 505.531 140.963C520.448 126.405 532.575 114.679 541.019 106.636C545.241 102.615 548.541 99.5147 550.808 97.44C553.073 95.3653 554.305 94.3173 554.387 94.3987C554.469 94.48 553.399 95.688 551.28 97.9093C549.163 100.131 545.999 103.367 541.895 107.504C533.685 115.781 521.719 127.667 506.864 142.285C477.159 171.527 435.883 211.677 390.231 255.943Z" fill="#E7E8E5"/>
<path d="M399.557 266.884C347.483 303.667 300.356 336.953 266.197 361.08C249.219 373.199 235.472 383.008 225.927 389.82C221.223 393.229 217.563 395.883 215.036 397.713C213.827 398.612 212.895 399.304 212.228 399.799C211.6 400.276 211.285 400.531 211.3 400.551C211.315 400.571 211.659 400.356 212.313 399.917C213 399.447 213.957 398.792 215.201 397.94C217.757 396.147 221.459 393.551 226.215 390.213C235.764 383.408 249.517 373.607 266.507 361.501C300.44 337.068 347.257 303.36 398.991 266.112C450.669 228.843 497.523 195.167 531.588 170.988C548.619 158.896 562.448 149.171 572.059 142.523C576.863 139.197 580.612 136.641 583.179 134.94C585.744 133.239 587.125 132.391 587.195 132.485C587.263 132.579 586.015 133.607 583.572 135.477C581.131 137.347 577.493 140.059 572.787 143.516C563.373 150.433 549.677 160.339 532.697 172.501C498.743 196.831 451.636 230.16 399.557 266.884Z" fill="#E7E8E5"/>
<path d="M407.04 279.127C349.773 307.425 297.949 333.036 260.385 351.599C241.693 360.951 226.561 368.521 216.053 373.777C210.867 376.42 206.832 378.476 204.045 379.896C202.709 380.597 201.679 381.136 200.941 381.524C200.247 381.897 199.896 382.1 199.908 382.123C199.919 382.145 200.292 381.987 201.009 381.655C201.761 381.296 202.812 380.796 204.175 380.148C206.983 378.771 211.051 376.777 216.279 374.215C226.789 368.965 241.928 361.407 260.627 352.068C298.017 333.167 349.601 307.091 406.603 278.276C463.553 249.431 515.168 223.391 552.648 204.761C571.385 195.443 586.587 187.971 597.133 182.887C602.407 180.344 606.515 178.397 609.32 177.112C612.124 175.828 613.623 175.205 613.676 175.308C613.729 175.412 612.333 176.236 609.625 177.707C606.916 179.177 602.895 181.295 597.699 183.985C587.305 189.367 572.207 197.04 553.507 206.433C516.113 225.229 464.3 250.884 407.04 279.127Z" fill="#E7E8E5"/>
<path d="M412.483 292.375C351.413 311.437 296.149 328.687 256.091 341.189C236.14 347.525 219.989 352.653 208.773 356.215C203.231 358.02 198.919 359.425 195.94 360.396C194.508 360.88 193.405 361.253 192.615 361.521C191.869 361.783 191.491 361.929 191.499 361.953C191.505 361.977 191.9 361.879 192.661 361.663C193.461 361.425 194.579 361.095 196.028 360.665C199.021 359.743 203.356 358.404 208.927 356.685C220.145 353.133 236.301 348.016 256.257 341.696C296.197 328.831 351.297 311.081 412.187 291.467C473.029 271.815 528.155 254.105 568.14 241.524C588.132 235.229 604.335 230.209 615.561 226.824C621.175 225.131 625.543 223.847 628.517 223.013C631.492 222.18 633.071 221.799 633.108 221.909C633.144 222.02 631.633 222.617 628.725 223.651C625.815 224.683 621.507 226.151 615.945 228.001C604.823 231.704 588.688 236.939 568.724 243.315C528.796 256.075 473.536 273.371 412.483 292.375Z" fill="#E7E8E5"/>
<path d="M415.743 306.308C352.393 315.657 295.065 324.117 253.512 330.249C232.797 333.409 216.029 335.968 204.385 337.744C198.624 338.665 194.14 339.384 191.044 339.879C189.553 340.136 188.404 340.333 187.581 340.475C186.803 340.617 186.405 340.703 186.409 340.727C186.413 340.752 186.817 340.715 187.604 340.62C188.432 340.509 189.588 340.356 191.088 340.157C194.191 339.709 198.685 339.061 204.461 338.228C216.107 336.46 232.877 333.913 253.593 330.768C295.088 324.261 352.335 315.284 415.596 305.365C478.816 295.401 536.08 286.468 577.576 280.248C598.321 277.135 615.125 274.691 626.752 273.089C632.564 272.288 637.082 271.697 640.153 271.336C643.224 270.973 644.845 270.841 644.863 270.956C644.881 271.071 643.294 271.425 640.256 271.993C637.218 272.561 632.729 273.341 626.942 274.307C615.366 276.236 598.599 278.901 577.865 282.1C536.399 288.505 479.068 297.013 415.743 306.308Z" fill="#E7E8E5"/>
<path d="M498.567 481.716C491.023 472.837 480.587 467.493 473.336 465.452C466.545 463.541 456.251 461.799 445.769 464.355C439.26 465.943 433.559 469.009 428.825 473.472C423.219 478.757 418.937 486.045 416.101 495.133C415.676 496.497 415.817 497.94 416.5 499.199C417.185 500.463 418.325 501.375 419.711 501.764L437.516 506.776C440.028 507.482 442.716 506.217 443.767 503.829C446.128 498.468 452.088 490 465.477 493.52C475.681 496.209 477.797 504.731 478.236 508.273C478.949 514.039 476.679 519.997 472.164 524.213C465.227 530.692 456.173 529.434 451.395 528.108C445.9 526.582 440.179 529.782 438.643 535.24L433.249 554.4C432.461 557.198 434.097 560.116 436.895 560.903L454.244 565.786C457.041 566.574 459.959 564.939 460.747 562.14L461.88 558.115L462.093 557.945C466.411 557.672 474.967 556.485 483.748 551.594C494.959 545.352 502.564 535.361 506.352 521.903C511.773 502.641 505.111 489.417 498.567 481.716Z" fill="#DADBD8"/>
<path d="M445.076 568.411L443.557 567.984C436.303 565.941 428.739 570.183 426.696 577.439C424.653 584.693 428.895 592.259 436.151 594.3L437.668 594.728C444.923 596.769 452.488 592.529 454.529 585.273C456.572 578.017 452.331 570.453 445.076 568.411Z" fill="#DADBD8"/>
<path d="M536.801 375.596C531.563 372.727 525.587 372.08 521.74 372.432C518.137 372.76 512.888 373.812 508.337 376.957C505.511 378.911 503.344 381.424 501.895 384.428C500.177 387.987 499.463 392.261 499.771 397.132C499.816 397.864 500.148 398.529 500.705 399.007C501.265 399.487 501.979 399.713 502.713 399.647L512.159 398.784C513.491 398.663 514.545 397.564 514.612 396.228C514.76 393.228 516.063 388.08 523.12 387.312C528.499 386.731 531.073 390.424 531.932 392.04C533.331 394.669 533.335 397.939 531.945 400.785C529.811 405.159 525.245 406.216 522.713 406.456C519.803 406.732 517.649 409.313 517.913 412.208L518.841 422.372C518.977 423.856 520.295 424.953 521.779 424.817L530.981 423.977C532.467 423.841 533.563 422.524 533.428 421.04L533.233 418.904L533.304 418.784C535.321 417.863 539.201 415.725 542.511 411.775C546.735 406.731 548.545 400.553 547.893 393.415C546.961 383.197 541.347 378.085 536.801 375.596Z" fill="#F3F2F1"/>
<path d="M527.072 426.915L526.268 426.988C522.419 427.339 519.573 430.756 519.925 434.605C520.276 438.453 523.693 441.299 527.543 440.947L528.347 440.873C532.196 440.523 535.041 437.105 534.689 433.256C534.339 429.408 530.921 426.563 527.072 426.915Z" fill="#F3F2F1"/>
<path d="M158.56 158.611C155.011 155.113 150.361 153.232 147.196 152.636C144.231 152.079 139.779 151.727 135.409 153.212C132.696 154.135 130.384 155.656 128.535 157.737C126.347 160.2 124.798 163.468 123.934 167.447C123.804 168.043 123.919 168.653 124.257 169.163C124.597 169.676 125.118 170.021 125.722 170.135L133.497 171.596C134.595 171.803 135.692 171.161 136.049 170.105C136.852 167.732 139.072 163.899 144.909 164.892C149.357 165.651 150.581 169.203 150.903 170.695C151.424 173.124 150.683 175.748 148.919 177.715C146.208 180.737 142.304 180.544 140.217 180.16C137.819 179.717 135.503 181.297 135.055 183.68L133.481 192.048C133.252 193.269 134.059 194.451 135.28 194.68L142.856 196.104C144.077 196.335 145.259 195.527 145.488 194.305L145.819 192.547L145.904 192.467C147.733 192.188 151.333 191.357 154.889 188.943C159.429 185.859 162.291 181.315 163.396 175.437C164.977 167.027 161.639 161.645 158.56 158.611Z" fill="#F3F2F1"/>
<path d="M139.049 197.569L138.387 197.445C135.219 196.849 132.156 198.943 131.56 202.111C130.964 205.279 133.058 208.341 136.227 208.936L136.889 209.061C140.057 209.657 143.119 207.564 143.715 204.396C144.311 201.227 142.217 198.165 139.049 197.569Z" fill="#F3F2F1"/>
<path d="M522.732 161.283C517.504 158.393 511.529 157.723 507.683 158.059C504.079 158.373 498.825 159.404 494.263 162.531C491.428 164.472 489.251 166.977 487.789 169.976C486.059 173.528 485.327 177.799 485.615 182.672C485.657 183.403 485.988 184.069 486.543 184.549C487.101 185.032 487.813 185.261 488.548 185.197L497.996 184.372C499.329 184.256 500.388 183.161 500.46 181.827C500.62 178.827 501.943 173.684 509.003 172.945C514.384 172.384 516.944 176.088 517.797 177.707C519.184 180.343 519.176 183.612 517.775 186.453C515.623 190.817 511.053 191.856 508.521 192.087C505.608 192.352 503.445 194.924 503.697 197.82L504.585 207.987C504.716 209.472 506.029 210.573 507.513 210.444L516.719 209.64C518.204 209.511 519.307 208.197 519.177 206.712L518.991 204.576L519.063 204.456C521.084 203.543 524.971 201.421 528.296 197.484C532.54 192.457 534.376 186.287 533.753 179.145C532.86 168.924 527.267 163.791 522.732 161.283Z" fill="#E7E8E5"/>
<path d="M512.799 212.561L511.993 212.632C508.143 212.968 505.284 216.375 505.62 220.224C505.956 224.075 509.363 226.933 513.212 226.596L514.017 226.527C517.868 226.191 520.727 222.784 520.391 218.935C520.055 215.084 516.648 212.225 512.799 212.561Z" fill="#E7E8E5"/>
<path d="M238.66 468.529C232.117 465.448 224.848 465.107 220.225 465.813C215.896 466.477 209.631 468.135 204.363 472.271C201.091 474.839 198.656 478.036 197.127 481.773C195.315 486.201 194.765 491.419 195.496 497.284C195.605 498.163 196.056 498.943 196.764 499.479C197.477 500.017 198.355 500.24 199.237 500.104L210.588 498.367C212.189 498.121 213.384 496.716 213.365 495.096C213.323 491.46 214.517 485.143 222.989 483.696C229.447 482.596 232.831 486.869 233.988 488.759C235.871 491.835 236.117 495.785 234.648 499.327C232.391 504.769 226.951 506.382 223.909 506.86C220.412 507.409 218 510.685 218.532 514.165L220.403 526.379C220.676 528.163 222.349 529.392 224.133 529.119L235.192 527.425C236.976 527.152 238.205 525.479 237.932 523.694L237.539 521.128L237.616 520.977C239.987 519.715 244.517 516.848 248.225 511.829C252.959 505.423 254.692 497.824 253.379 489.244C251.497 476.965 244.337 471.201 238.66 468.529Z" fill="#E7E8E5"/>
<path d="M230.684 531.263L229.717 531.41C225.092 532.119 221.905 536.457 222.613 541.082C223.321 545.708 227.661 548.894 232.285 548.186L233.253 548.037C237.879 547.329 241.065 542.991 240.357 538.365C239.648 533.74 235.309 530.553 230.684 531.263Z" fill="#E7E8E5"/>
<path d="M139.131 237.403C129.931 233.089 119.715 232.628 113.223 233.635C107.143 234.576 98.3432 236.921 90.9527 242.745C86.3626 246.361 82.9495 250.86 80.8094 256.115C78.2746 262.339 77.5172 269.672 78.5574 277.909C78.7136 279.145 79.3484 280.24 80.3459 280.991C81.3474 281.745 82.5823 282.056 83.8219 281.864L99.7646 279.393C102.014 279.044 103.688 277.067 103.657 274.792C103.59 269.683 105.252 260.805 117.151 258.751C126.22 257.189 130.986 263.184 132.616 265.836C135.269 270.152 135.625 275.703 133.571 280.683C130.412 288.335 122.774 290.615 118.502 291.293C113.589 292.073 110.208 296.683 110.965 301.569L113.624 318.725C114.012 321.231 116.366 322.953 118.871 322.565L134.405 320.157C136.911 319.769 138.632 317.415 138.244 314.909L137.685 311.305L137.793 311.093C141.121 309.313 147.479 305.273 152.676 298.213C159.311 289.2 161.727 278.52 159.86 266.469C157.187 249.224 147.112 241.144 139.131 237.403Z" fill="#E7E8E5"/>
<path d="M128.081 325.56L126.722 325.771C120.225 326.777 115.76 332.881 116.766 339.377C117.773 345.873 123.877 350.34 130.373 349.333L131.732 349.123C138.229 348.116 142.695 342.012 141.688 335.516C140.681 329.019 134.577 324.553 128.081 325.56Z" fill="#E7E8E5"/>
<path d="M363.676 128.741L375.693 130.744C381.601 137.805 389.688 143.209 399.388 145.792C422.264 151.88 446.468 139.319 454.707 117.125C464.225 91.4813 449.689 63.1626 423.053 56.0933C400.44 50.0906 376.516 62.2719 368.032 84.0746C363.823 94.8946 363.947 106.225 367.472 116.272L367.457 116.249L363.676 128.741Z" fill="white"/>
<path d="M363.677 128.741C363.677 128.741 363.739 128.481 363.891 127.947C364.052 127.387 364.281 126.591 364.579 125.559C365.211 123.407 366.131 120.268 367.321 116.209L367.404 115.928L367.573 116.169L367.588 116.191L367.339 116.317C365.419 110.892 363.784 103.149 365.149 94.0186C365.811 89.4746 367.268 84.6653 369.619 79.8946C372.007 75.1479 375.409 70.5133 379.809 66.4946C384.224 62.4986 389.653 59.16 395.793 56.984C401.92 54.8213 408.78 53.7386 415.745 54.484C422.7 55.1693 429.713 57.484 435.999 61.3587C442.316 65.1973 447.709 70.8213 451.571 77.4666C453.615 80.7879 454.979 84.4266 456.143 88.0546C456.408 88.9693 456.58 89.9093 456.803 90.832C456.984 91.7626 457.287 92.6693 457.365 93.6119C457.479 94.5493 457.592 95.4839 457.705 96.4159L457.867 97.8119L457.889 99.2133C458.163 106.68 456.567 113.972 453.669 120.4C450.795 126.867 446.337 132.287 441.332 136.513C436.299 140.74 430.612 143.736 424.885 145.513C419.145 147.273 413.387 147.84 408.059 147.477C406.733 147.323 405.428 147.171 404.145 147.021C402.868 146.841 401.64 146.504 400.42 146.26C397.985 145.732 395.715 144.932 393.584 144.072C385.029 140.559 379.227 135.208 375.588 130.832L375.671 130.879C371.8 130.199 368.792 129.671 366.724 129.308C365.735 129.129 364.975 128.991 364.433 128.893C363.923 128.799 363.677 128.741 363.677 128.741C363.677 128.741 363.964 128.773 364.493 128.853C365.044 128.936 365.819 129.055 366.827 129.209C368.881 129.533 371.869 130.003 375.716 130.609L375.765 130.617L375.799 130.656C379.463 134.967 385.259 140.229 393.752 143.66C395.867 144.5 398.121 145.281 400.532 145.792C401.741 146.027 402.957 146.356 404.221 146.528C405.491 146.671 406.781 146.815 408.093 146.963C413.363 147.3 419.049 146.717 424.715 144.963C430.367 143.189 435.972 140.216 440.928 136.033C445.857 131.852 450.243 126.501 453.065 120.124C455.912 113.783 457.477 106.593 457.204 99.2386L457.18 97.8586L457.02 96.4826C456.908 95.5653 456.797 94.644 456.684 93.7213C456.608 92.792 456.307 91.8986 456.128 90.9813C455.908 90.0733 455.739 89.148 455.477 88.2453C454.328 84.6733 452.985 81.0866 450.971 77.8159C447.165 71.2693 441.857 65.7266 435.635 61.9413C429.445 58.1199 422.532 55.8293 415.681 55.1453C408.817 54.4 402.052 55.4546 396.003 57.576C389.94 59.7093 384.571 62.9906 380.199 66.924C375.84 70.88 372.463 75.4453 370.081 80.1293C367.74 84.836 366.272 89.5893 365.592 94.0853C364.192 103.12 365.753 110.809 367.605 116.224L367.943 117.212L367.356 116.351L367.341 116.329L367.592 116.291C366.343 120.293 365.377 123.388 364.716 125.509C364.387 126.549 364.135 127.345 363.955 127.911C363.781 128.455 363.677 128.741 363.677 128.741Z" fill="#17282F"/>
<path d="M421.067 79.5481C417.511 77.1921 413.297 76.3721 410.539 76.3908C407.955 76.4081 404.156 76.8414 400.729 78.8054C398.6 80.0267 396.905 81.6841 395.695 83.7348C394.259 86.1654 393.493 89.1641 393.419 92.6494C393.408 93.1721 393.604 93.6654 393.972 94.0388C394.341 94.4134 394.836 94.6187 395.363 94.6147L402.136 94.5694C403.092 94.5628 403.908 93.8441 404.035 92.8974C404.321 90.7707 405.557 87.1867 410.625 87.0641C414.488 86.9734 416.099 89.7561 416.613 90.9574C417.449 92.9134 417.257 95.2401 416.097 97.1827C414.315 100.167 411.003 100.644 409.187 100.663C407.097 100.685 405.411 102.392 405.424 104.468L405.473 111.757C405.481 112.821 406.353 113.681 407.417 113.675L414.017 113.629C415.081 113.621 415.941 112.751 415.935 111.685L415.924 110.155L415.981 110.073C417.473 109.539 420.363 108.251 422.955 105.639C426.264 102.303 427.924 98.0161 427.889 92.8961C427.84 85.5681 424.152 81.5934 421.067 79.5481Z" fill="#3C1361"/>
<path d="M411.059 115.484L410.481 115.488C407.721 115.507 405.491 117.767 405.509 120.528C405.528 123.288 407.789 125.517 410.549 125.499L411.127 125.495C413.887 125.476 416.116 123.216 416.097 120.456C416.079 117.696 413.819 115.465 411.059 115.484Z" fill="#3C1361"/>
<path d="M429.452 188.847C397.971 167.672 360.54 160.127 336.008 160.127C313.033 160.127 279.223 163.751 248.62 181.012C229.615 191.733 214.451 206.38 203.548 224.547C190.635 246.064 183.645 272.688 182.775 303.681C182.644 308.329 184.361 312.731 187.612 316.073C190.877 319.432 195.255 321.281 199.939 321.281H260.18C268.681 321.281 275.988 314.939 277.176 306.529C279.848 287.639 291.06 255.831 336.141 255.053C370.484 254.463 384.655 279.325 389.153 290.044C396.476 307.487 394.619 328.169 384.185 345.372C368.155 371.801 338.665 375.847 322.515 375.907C303.94 375.975 288.829 391.052 288.829 409.517V474.341C288.829 483.809 296.531 491.511 305.999 491.511H364.692C374.159 491.511 381.861 483.809 381.861 474.341V460.721C381.861 460.395 382.065 460.112 382.38 460.003C395.676 455.337 421.448 444.065 444.661 420.984C474.296 391.521 489.321 353.493 489.321 307.959C489.321 242.793 456.764 207.216 429.452 188.847Z" fill="#3C1361"/>
<path d="M333.869 521.749H338.607C361.916 521.749 380.88 540.713 380.88 564.022C380.88 587.333 361.916 606.296 338.607 606.296H333.869C310.559 606.296 291.595 587.333 291.595 564.022C291.595 540.713 310.559 521.749 333.869 521.749Z" fill="#17282F"/>
<path d="M305.773 504.047H364.443C373.905 504.047 381.604 496.589 381.604 487.423V460.92C381.604 460.604 381.808 460.331 382.123 460.224C389.057 457.867 398.76 453.543 409.739 446.796C372.253 446.533 303.927 446.151 288.612 446.708V487.423C288.612 496.589 296.311 504.047 305.773 504.047Z" fill="#17282F"/>
<path d="M354.095 210.384L316.445 101.049C308.495 73.6733 285.936 55.4827 258.791 64.1894L256.329 65.1387C231.557 74.7106 218.276 101.695 225.824 127.156C232.848 150.845 240.911 176.929 245.825 189.196C255.999 214.589 282.631 207.461 282.631 207.461C282.689 207.443 288.559 224.388 291.125 231.993L304.915 245.619L310.611 239.396L354.095 210.384Z" fill="#F9A78D"/>
<path d="M282.631 207.461C282.631 207.461 299.079 202.192 312.059 184.805C312.059 184.805 311.477 207.075 285.129 214.615L282.631 207.461Z" fill="#F57F62"/>
<path d="M244.245 144.421C244.919 146.372 247.128 147.408 249.179 146.74C251.224 146.073 252.34 143.955 251.664 142.004C250.989 140.053 248.781 139.015 246.735 139.681C244.684 140.349 243.569 142.471 244.245 144.421Z" fill="#17282F"/>
<path d="M235.184 135.092C235.819 135.392 237.789 132.283 241.715 130.779C245.613 129.219 249.271 130.124 249.511 129.48C249.637 129.187 248.845 128.507 247.24 128.079C245.656 127.647 243.211 127.576 240.772 128.531C238.336 129.488 236.628 131.18 235.803 132.556C234.955 133.948 234.879 134.965 235.184 135.092Z" fill="#17282F"/>
<path d="M277.028 131.423C277.665 131.723 279.64 128.613 283.563 127.109C287.46 125.551 291.117 126.456 291.357 125.811C291.484 125.517 290.697 124.837 289.087 124.411C287.503 123.977 285.059 123.908 282.619 124.861C280.183 125.819 278.476 127.512 277.649 128.887C276.804 130.277 276.725 131.296 277.028 131.423Z" fill="#17282F"/>
<path d="M271.544 156.715C271.476 156.484 268.876 157.004 264.732 158.025C263.691 158.309 262.667 158.477 262.233 157.859C261.719 157.227 261.72 155.985 261.756 154.632C261.761 151.845 261.765 148.925 261.771 145.864C261.689 133.42 261.217 123.345 260.716 123.352C260.215 123.36 259.875 133.452 259.957 145.896C260.001 148.956 260.04 151.872 260.084 154.661C260.145 155.947 259.992 157.488 261.083 158.792C261.641 159.436 262.587 159.695 263.293 159.62C264.012 159.568 264.58 159.361 265.087 159.2C269.143 157.877 271.615 156.943 271.544 156.715Z" fill="#17282F"/>
<path d="M267.963 109.376C268.881 110.172 272.28 107.649 276.873 105.76C281.429 103.779 285.605 103.096 285.676 101.884C285.691 101.312 284.561 100.712 282.617 100.532C280.688 100.347 277.955 100.672 275.211 101.829C272.469 102.993 270.333 104.727 269.121 106.241C267.897 107.761 267.541 108.991 267.963 109.376Z" fill="#17282F"/>
<path d="M230.549 123.633C231.7 124.225 234.567 122.109 238.412 120.64C242.212 119.059 245.763 118.609 246.169 117.395C246.332 116.819 245.485 116.111 243.744 115.791C242.025 115.465 239.416 115.645 236.788 116.693C234.161 117.743 232.163 119.404 231.157 120.817C230.133 122.241 230.027 123.329 230.549 123.633Z" fill="#17282F"/>
<path d="M321.241 119.511C321.603 119.155 336.769 107.553 342.952 125.212C349.133 142.871 330.129 145.435 329.921 144.939C329.713 144.444 321.241 119.511 321.241 119.511Z" fill="#F9A78D"/>
<path d="M332.973 136.36C333.031 136.277 333.356 136.468 333.96 136.524C334.548 136.579 335.476 136.433 336.276 135.767C337.901 134.429 338.436 130.917 337.407 127.704C336.889 126.081 336.017 124.669 335.004 123.601C334.012 122.499 332.861 121.888 331.864 122.051C330.853 122.161 330.385 122.956 330.343 123.529C330.28 124.105 330.515 124.419 330.432 124.483C330.399 124.543 329.949 124.319 329.836 123.54C329.787 123.163 329.848 122.675 330.144 122.191C330.447 121.697 331.008 121.303 331.687 121.145C333.081 120.763 334.747 121.587 335.86 122.757C337.049 123.909 338.068 125.484 338.649 127.305C339.781 130.904 339.127 134.872 336.832 136.503C335.703 137.263 334.535 137.251 333.855 137.021C333.155 136.776 332.924 136.415 332.973 136.36Z" fill="#F57F62"/>
<path d="M284.872 154.935C284.249 155.104 285.605 159.18 283.085 163.239C280.575 167.305 276.079 168.301 276.237 168.881C276.267 169.156 277.469 169.349 279.32 168.785C281.139 168.245 283.571 166.789 285.113 164.307C286.647 161.82 286.769 159.148 286.349 157.431C285.935 155.675 285.143 154.817 284.872 154.935Z" fill="#17282F"/>
<path d="M181.733 114.756C181.648 113.617 182.103 112.496 182.836 111.623C184.437 109.716 186.823 109.055 189.06 108.225C194.628 106.163 199.677 102.773 203.777 98.4814C201.727 98.212 199.723 97.7121 197.856 96.8214C194.001 94.9801 190.827 91.2014 190.789 86.9294C190.781 86.1281 190.935 85.2321 191.579 84.7547C192.601 83.9987 194.001 84.7707 195.115 85.3827C198.777 87.3934 201.649 87.7987 205.431 86.0214C207.779 84.9174 209.944 83.5401 211.44 81.6734L211.575 81.3494C212.159 80.0787 212.735 78.8587 213.309 77.672L213.312 77.6627V77.6681C217.631 68.7441 221.732 62.1707 226.776 57.7334C234.169 51.2294 248.083 44.7467 257.896 43.9387C267.711 43.1294 278.345 47.5747 282.837 56.3387C286.375 50.304 293.951 47.6761 300.956 47.9801L301.085 47.8588C308.777 47.8868 315.203 53.7387 319.675 59.9961C319.919 60.3387 320.151 60.6907 320.389 61.0374C323.991 63.8867 328.237 65.9174 332.751 66.7787C333.547 66.9307 334.468 67.1347 334.817 67.8667C335.163 68.5907 334.747 69.4401 334.285 70.0987C333.06 71.8481 331.424 73.2921 329.565 74.3454C330.773 75.7814 332.073 77.1321 333.523 78.3481C334.755 79.3828 336.221 80.6241 336.027 82.2214C335.876 83.4547 334.693 84.3587 333.473 84.5974C332.252 84.836 330.997 84.5574 329.785 84.2787C331.191 85.8347 332.595 87.3921 334 88.9481C331.68 90.2494 329.051 90.9534 326.392 91.0707C327.237 98.0987 330.399 110.552 330.276 115.56C325.621 117.292 324.304 117.184 322.217 118.8C319.519 120.891 322.591 125.889 318.072 125.755C315.772 125.684 309.961 119.107 308.556 117.284C299.24 105.184 292.583 91.052 289.165 76.1694C285.272 74.1494 280.987 72.8867 276.62 72.4747L277.024 72.6427C268.925 72.6787 259.895 73.0894 254.243 78.8881C249.857 83.3881 248.677 89.9974 246.256 95.7934C241.668 106.779 234.717 114.228 223.671 118.663C225.404 126.809 229.593 139.656 231.775 147.06L220.439 134.696L220.456 134.757C219.653 134.081 218.936 133.367 218.233 132.647L218.004 132.435L217.992 132.401C216.869 131.243 215.776 130.071 214.491 128.987L214.443 129.073C211.728 133.936 204.052 130.668 205.667 125.337C205.985 124.28 206.459 123.272 207.084 122.356C205.88 124.681 203.481 126.437 200.864 126.543C198.248 126.649 195.576 124.907 194.913 122.372C194.461 120.643 195.133 118.719 196.416 117.52C193.32 118.887 189.823 119.34 186.492 118.735C184.308 118.339 181.923 117.26 181.733 114.756Z" fill="#17282F"/>
<path d="M275.755 62.1667C275.727 62.2521 277.077 62.4694 279.18 63.6241C281.265 64.7761 283.972 67.1054 286.165 70.8014C287.268 72.6348 288.301 74.7547 289.139 77.1334C289.987 79.5081 290.693 82.1214 291.456 84.8708C292.228 87.6148 293.036 90.5188 294.247 93.4081C294.852 94.8494 295.557 96.2855 296.404 97.6708C297.247 99.0268 298.196 100.488 299.753 101.361C301.001 102.081 302.641 102.017 303.829 101.303C305.04 100.62 305.945 99.5281 306.456 98.2948C307.435 95.7694 306.983 93.1641 306.631 90.8508L306.112 91.1081C307.684 92.7441 309.272 94.3481 311.161 95.4108C313.031 96.4908 315.225 96.8668 317.149 96.3761C318.108 96.1335 318.992 95.6548 319.648 94.9721C320.321 94.2895 320.675 93.4068 320.829 92.5521C320.96 91.6908 320.881 90.8241 320.571 90.0694C320.256 89.3187 319.701 88.6975 319.033 88.3535L318.845 88.6947C321.636 90.2614 324.168 90.7388 325.86 90.9014C326.713 90.9814 327.372 90.9761 327.815 90.9641C328.257 90.9414 328.485 90.9174 328.485 90.9001C328.484 90.8801 328.255 90.8695 327.815 90.8561C327.375 90.8348 326.723 90.8054 325.884 90.6934C324.219 90.4694 321.743 89.9361 319.04 88.3574L318.852 88.6988C320.047 89.3134 320.665 90.9121 320.376 92.4748C320.225 93.2494 319.895 94.0414 319.296 94.6294C318.708 95.2281 317.9 95.6588 317.021 95.8721C315.249 96.3055 313.2 95.9494 311.441 94.9161C309.653 93.8948 308.113 92.3308 306.551 90.6868L305.888 89.9908L306.031 90.9441C306.381 93.2548 306.772 95.7721 305.872 98.0534C305.416 99.1588 304.581 100.151 303.521 100.744C302.467 101.363 301.141 101.409 300.057 100.799C298.701 100.045 297.772 98.6734 296.945 97.3361C296.119 95.9868 295.424 94.5814 294.825 93.1654C293.625 90.3268 292.811 87.4468 292.025 84.7095C291.245 81.9681 290.519 79.3495 289.637 76.9508C288.768 74.5508 287.696 72.4107 286.551 70.5641C284.273 66.8401 281.459 64.5068 279.3 63.4054C277.121 62.2988 275.755 62.1667 275.755 62.1667Z" fill="#33535F"/>
<path d="M204.713 115.448C204.711 115.457 204.801 115.493 204.983 115.551C205.203 115.617 205.468 115.697 205.793 115.795C206.151 115.907 206.596 116.027 207.135 116.111C207.671 116.209 208.289 116.341 208.997 116.384C211.797 116.679 216.044 116.456 220.753 114.477C225.421 112.532 230.545 108.829 234.312 103.229C238.164 97.7014 240.767 90.64 242.264 83.0773C243.041 79.288 243.441 75.5427 244.087 71.988C244.72 68.4347 245.605 65.0427 247.087 62.0921C248.537 59.1374 250.545 56.6254 252.937 54.9534C254.12 54.0934 255.421 53.536 256.703 53.1174C258 52.736 259.297 52.5694 260.539 52.5427C263.028 52.5054 265.257 53.1014 267.065 53.8867C268.883 54.6814 270.275 55.7067 271.312 56.64C273.324 58.6 273.925 60.1014 274.009 60.0427C274.02 60.0374 273.981 59.9494 273.893 59.7787C273.785 59.576 273.653 59.332 273.493 59.032C273.123 58.384 272.472 57.4867 271.485 56.46C270.456 55.4814 269.057 54.404 267.212 53.56C265.376 52.7254 263.1 52.0801 260.535 52.0894C259.256 52.1027 257.913 52.2613 256.564 52.644C255.232 53.0613 253.864 53.6387 252.635 54.5174C250.141 56.2307 248.057 58.8133 246.56 61.828C245.028 64.844 244.115 68.2974 243.469 71.876C242.812 75.46 242.407 79.1973 241.636 82.952C240.151 90.4573 237.592 97.4347 233.825 102.895C230.141 108.428 225.155 112.085 220.576 114.061C215.964 116.06 211.793 116.351 209.02 116.135C206.22 115.909 204.735 115.357 204.713 115.448Z" fill="#33535F"/>
<path d="M198.364 104.927C198.356 104.971 198.765 105.083 199.517 105.245C200.267 105.424 201.376 105.579 202.751 105.672C204.128 105.779 205.777 105.749 207.596 105.568C209.411 105.356 211.392 104.976 213.408 104.348C215.419 103.699 217.259 102.871 218.865 102C220.456 101.099 221.821 100.175 222.887 99.2961C223.956 98.4254 224.773 97.6614 225.284 97.0841C225.805 96.5174 226.076 96.1907 226.044 96.1601C225.957 96.0761 224.789 97.3121 222.609 98.9361C221.527 99.7574 220.159 100.627 218.584 101.48C216.993 102.307 215.184 103.101 213.215 103.739C211.239 104.352 209.303 104.743 207.528 104.983C205.748 105.191 204.128 105.267 202.771 105.221C200.053 105.148 198.385 104.809 198.364 104.927Z" fill="#33535F"/>
<path d="M246.723 289.751C246.492 289.817 249.515 304.953 252.473 320.653H253.409C250.449 304.953 246.953 289.685 246.723 289.751Z" fill="#17282F"/>
<path d="M259.496 321.413C268.053 321.413 275.931 315.248 277.127 306.851C279.816 287.987 290.58 256.057 335.959 255.281C370.527 254.692 385.077 279.161 389.153 290.044C395.624 307.321 394.821 328.291 384.319 345.468C368.183 371.859 338.499 375.899 322.241 375.957C303.545 376.025 288.335 391.083 288.335 409.521V480.004L381.979 478.243V460.651C381.979 460.324 382.184 460.041 382.501 459.932C393.908 455.961 411.995 448.435 432.343 432.025L426.247 350.852C426.247 350.852 444.068 316.6 443.185 308.893C435.116 238.488 411.171 198.651 401.44 194.936C390.513 190.764 348.327 192.796 348.327 192.796C348.327 192.796 330.107 226.555 304.545 230.295C290.323 232.375 285.129 214.615 285.129 214.615L252.092 233.984C228.579 245.844 224.016 291.987 223.584 321.413H259.496Z" fill="#33535F"/>
<path d="M354.461 370.113C354.452 370.096 354.443 370.079 354.435 370.061C354.435 370.061 356.573 369.181 359.015 368.036C359.027 368.055 359.04 368.073 359.053 368.092C357.529 368.831 355.997 369.503 354.461 370.113ZM359.757 367.745C359.745 367.731 359.735 367.716 359.724 367.7C360.575 367.293 361.44 366.861 362.247 366.429C362.3 366.401 362.355 366.372 362.408 366.343C361.529 366.835 360.645 367.301 359.757 367.745Z" fill="#A7A9A8"/>
<path d="M359.053 368.092C359.04 368.073 359.027 368.055 359.015 368.036C359.121 367.987 359.231 367.935 359.34 367.884C359.352 367.901 359.364 367.916 359.376 367.935C359.269 367.987 359.161 368.04 359.053 368.092Z" fill="#979999"/>
<path d="M359.376 367.935C359.364 367.916 359.352 367.901 359.34 367.884C359.467 367.823 359.595 367.761 359.724 367.7C359.735 367.716 359.745 367.731 359.757 367.745C359.631 367.808 359.503 367.872 359.376 367.935Z" fill="#979999"/>
<path d="M428.872 385.808L428.496 380.803C429.428 382.203 429.305 384.093 428.872 385.808ZM354.476 370.143C354.471 370.133 354.465 370.123 354.461 370.113C355.997 369.503 357.529 368.831 359.053 368.092C359.161 368.04 359.269 367.987 359.376 367.935C359.503 367.872 359.631 367.808 359.757 367.745C360.645 367.301 361.529 366.835 362.408 366.343C365.483 364.684 368.02 362.884 368.02 362.884C368.021 362.885 368.023 362.885 368.024 362.885C363.675 365.949 359.087 368.317 354.476 370.143Z" fill="#CC4341"/>
<path d="M401.479 410.227C395.895 410.227 390.543 407.589 385.793 404.559C372.696 396.2 361.516 383.995 354.476 370.143C359.087 368.317 363.675 365.949 368.024 362.885C386.899 367.691 405.507 373.769 424.381 378.575C425.781 378.931 427.273 379.341 428.217 380.436C428.32 380.553 428.412 380.676 428.496 380.803L428.872 385.808C428.811 386.049 428.744 386.288 428.672 386.521C426.687 393.009 422.405 398.619 417.307 403.097C413.2 406.704 408.28 409.748 402.829 410.175C402.377 410.209 401.927 410.227 401.479 410.227Z" fill="#20353D"/>
<path d="M388.768 290.533C396.315 307.949 394.401 328.603 383.645 345.78C377.676 355.313 370.076 362.12 361.787 366.685C370.716 376.397 379.777 384.953 388.737 391.312C398.379 398.153 420.599 396.208 429.024 381.231C439.42 362.749 440.288 315.539 440.288 315.539C442.263 287.077 442.263 287.077 442.263 287.077L384.132 278.173L383.667 279.768C386.161 283.507 387.631 287.909 388.768 290.533Z" fill="#F9A78D"/>
<path d="M287.548 278.572L284.237 283.789C281.723 285.525 279.327 284.572 277.773 281.347L241.989 226.88L250.707 221.336L290.229 273.568C290.229 273.568 290.785 276.337 287.548 278.572Z" fill="#33535F"/>
<path d="M242.799 158.96C232.715 153.269 220.129 152.344 208.849 157.577C199.844 161.756 193.004 169.192 189.591 178.515C186.177 187.837 186.599 197.932 190.777 206.937C194.956 215.944 202.392 222.783 211.715 226.196C221.037 229.609 231.132 229.187 240.137 225.008C249.143 220.831 255.983 213.395 259.396 204.072C262.809 194.749 262.388 184.655 258.208 175.649C254.817 168.339 249.333 162.648 242.799 158.96ZM204.875 225.947C197.869 221.993 191.993 215.896 188.357 208.06C183.879 198.408 183.427 187.589 187.085 177.599C190.744 167.605 198.073 159.637 207.727 155.159C227.651 145.912 251.383 154.601 260.629 174.527C265.107 184.179 265.559 194.997 261.9 204.989C258.243 214.981 250.913 222.949 241.26 227.428C229.172 233.037 215.679 232.045 204.875 225.947Z" fill="#17282F"/>
<path d="M244.495 157.289C234.412 151.599 221.825 150.673 210.545 155.907C201.54 160.085 194.7 167.521 191.287 176.844C187.873 186.167 188.296 196.26 192.475 205.265C196.653 214.272 204.088 221.112 213.412 224.524C222.733 227.937 232.828 227.516 241.833 223.337C250.84 219.159 257.679 211.723 261.092 202.4C264.505 193.077 264.084 182.984 259.905 173.979C256.513 166.668 251.029 160.977 244.495 157.289ZM206.571 224.276C199.565 220.323 193.691 214.225 190.053 206.388C185.576 196.737 185.124 185.919 188.781 175.927C192.44 165.935 199.771 157.965 209.423 153.487C229.347 144.241 253.079 152.931 262.325 172.856C266.803 182.508 267.255 193.327 263.597 203.317C259.939 213.309 252.609 221.279 242.957 225.757C230.868 231.365 217.376 230.373 206.571 224.276Z" fill="#33535F"/>
<path d="M259.321 190.18C259.307 190.18 259.293 189.955 259.281 189.525C259.249 189.099 259.3 188.465 259.205 187.657C259.115 186.039 258.751 183.7 257.885 180.935C257.46 179.549 256.856 178.077 256.141 176.532C255.367 175.016 254.517 173.4 253.416 171.829C252.343 170.245 251.109 168.649 249.675 167.137C248.251 165.619 246.673 164.133 244.893 162.825C243.123 161.507 241.26 160.408 239.379 159.515C237.488 158.641 235.581 157.992 233.733 157.495C230.019 156.56 226.54 156.301 223.648 156.472C220.752 156.632 218.433 157.088 216.871 157.523C216.076 157.701 215.489 157.937 215.073 158.045C214.663 158.168 214.444 158.227 214.44 158.212C214.435 158.199 214.643 158.113 215.045 157.964C215.452 157.829 216.035 157.567 216.825 157.363C218.383 156.876 220.711 156.371 223.631 156.171C226.547 155.96 230.065 156.188 233.831 157.113C235.703 157.607 237.636 158.256 239.555 159.136C241.463 160.035 243.355 161.147 245.149 162.483C246.952 163.809 248.545 165.313 249.981 166.852C251.427 168.385 252.667 170.003 253.743 171.611C254.845 173.203 255.693 174.841 256.461 176.38C257.169 177.948 257.763 179.44 258.173 180.845C259.011 183.649 259.331 186.015 259.371 187.648C259.441 188.463 259.363 189.099 259.367 189.528C259.352 189.957 259.336 190.181 259.321 190.18Z" fill="white"/>
<path d="M217.753 222.608C217.783 222.509 219.601 223.187 222.669 223.605C223.055 223.652 223.457 223.7 223.873 223.751C224.293 223.797 224.733 223.799 225.187 223.827C226.093 223.9 227.065 223.852 228.085 223.832C230.124 223.711 232.356 223.403 234.636 222.804C236.911 222.175 238.996 221.32 240.82 220.401C241.712 219.905 242.576 219.459 243.323 218.94C243.701 218.687 244.081 218.465 244.42 218.215C244.756 217.961 245.079 217.717 245.389 217.484C247.831 215.579 249.063 214.081 249.137 214.151C249.159 214.171 248.849 214.539 248.269 215.189C247.984 215.521 247.621 215.915 247.157 216.327C246.7 216.744 246.205 217.253 245.576 217.72C245.268 217.964 244.947 218.217 244.613 218.481C244.276 218.743 243.896 218.973 243.517 219.235C242.769 219.773 241.901 220.237 241.001 220.749C239.164 221.7 237.053 222.579 234.748 223.216C232.435 223.823 230.169 224.124 228.103 224.225C227.068 224.235 226.085 224.269 225.168 224.18C224.709 224.144 224.264 224.135 223.841 224.079C223.42 224.019 223.015 223.96 222.625 223.904C221.848 223.817 221.164 223.625 220.559 223.495C219.951 223.371 219.44 223.213 219.027 223.069C218.197 222.799 217.744 222.636 217.753 222.608Z" fill="white"/>
<path d="M245.163 197.095C245.077 197.177 239.885 191.979 233.565 185.487C227.244 178.992 222.189 173.663 222.275 173.58C222.359 173.499 227.551 178.695 233.872 185.189C240.191 191.681 245.247 197.012 245.163 197.095Z" fill="white"/>
<path d="M239.032 207.528C239.02 207.537 238.891 207.411 238.653 207.159C238.389 206.872 238.051 206.503 237.632 206.045C236.719 205.031 235.46 203.629 233.919 201.915C230.788 198.423 226.449 193.611 221.6 188.349C216.748 183.088 212.304 178.373 209.077 174.969C207.493 173.293 206.199 171.925 205.26 170.933C204.839 170.479 204.499 170.111 204.235 169.825C204.003 169.568 203.887 169.428 203.897 169.417C203.908 169.408 204.044 169.527 204.296 169.764C204.576 170.036 204.935 170.385 205.38 170.817C206.315 171.737 207.653 173.084 209.295 174.76C212.577 178.111 217.059 182.796 221.913 188.06C226.765 193.324 231.071 198.171 234.145 201.715C235.683 203.487 236.916 204.929 237.757 205.937C238.151 206.415 238.469 206.801 238.719 207.103C238.935 207.372 239.043 207.519 239.032 207.528Z" fill="white"/>
<path d="M226.619 196.673L197.935 165.444C197.935 165.444 197.936 165.443 197.94 165.437C197.987 165.383 198.033 165.329 198.08 165.275C198.355 164.96 199.009 164.239 199.96 163.348C201.715 161.812 203.623 160.437 205.665 159.243C213.568 169.984 221.941 181.341 230.697 193.2C229.908 193.843 229.128 194.495 228.357 195.155C226.38 192.945 224.208 190.549 221.913 188.06C217.059 182.796 212.577 178.111 209.295 174.76C207.653 173.084 206.315 171.737 205.38 170.817C204.935 170.385 204.576 170.036 204.296 169.764C204.055 169.536 203.919 169.417 203.899 169.417C203.897 169.417 203.897 169.417 203.897 169.417C203.887 169.428 204.003 169.568 204.235 169.825C204.499 170.111 204.839 170.479 205.26 170.933C206.199 171.925 207.493 173.293 209.077 174.969C212.304 178.373 216.748 183.088 221.6 188.349C223.891 190.836 226.068 193.22 228.057 195.413C227.575 195.829 227.093 196.251 226.619 196.673ZM231.932 192.208C224.873 182.488 218.049 173.105 211.516 164.133L235.113 189.768C234.037 190.567 232.977 191.379 231.932 192.208Z" fill="white"/>
<path d="M230.697 193.2C221.941 181.341 213.568 169.984 205.665 159.243C205.956 159.072 206.249 158.905 206.545 158.744C206.547 158.743 206.549 158.741 206.551 158.74L211.516 164.133C218.049 173.105 224.873 182.488 231.932 192.208C231.519 192.536 231.107 192.867 230.697 193.2Z" fill="#EEEEEC"/>
<path d="M247.876 219.817L245.796 217.552C246.323 217.133 246.755 216.695 247.157 216.327C247.621 215.915 247.984 215.521 248.269 215.189C248.849 214.539 249.159 214.171 249.137 214.151C249.137 214.151 249.133 214.149 249.131 214.149C249.011 214.149 247.844 215.54 245.589 217.327L226.619 196.673C227.093 196.251 227.575 195.829 228.057 195.413C230.279 197.863 232.267 200.072 233.919 201.915C235.46 203.629 236.719 205.031 237.632 206.045C238.051 206.503 238.389 206.872 238.653 207.159C238.883 207.401 239.011 207.529 239.029 207.529L239.032 207.528C239.043 207.519 238.935 207.372 238.719 207.103C238.469 206.801 238.151 206.415 237.757 205.937C236.916 204.929 235.683 203.487 234.145 201.715C232.524 199.847 230.563 197.617 228.357 195.155C229.128 194.495 229.908 193.843 230.697 193.2C231.107 192.867 231.519 192.536 231.932 192.208C232.977 191.379 234.037 190.567 235.113 189.768L255.461 211.871C255.461 211.871 252.281 216.32 249.009 218.977C248.661 219.247 248.308 219.511 247.948 219.769C247.924 219.785 247.9 219.801 247.876 219.817Z" fill="white"/>
<path d="M199.96 163.348C201.499 161.909 203.811 160.035 206.545 158.744C206.249 158.905 205.956 159.072 205.665 159.243C203.623 160.437 201.715 161.812 199.96 163.348Z" fill="#57666B"/>
<path d="M247.948 219.769C248.308 219.511 248.661 219.247 249.009 218.977C248.656 219.265 248.3 219.532 247.948 219.769ZM197.94 165.437C197.955 165.42 198.003 165.364 198.08 165.275C198.033 165.329 197.987 165.383 197.94 165.437Z" fill="#6A858C"/>
<path d="M245.796 217.552L245.589 217.327C247.844 215.54 249.011 214.149 249.131 214.149C249.133 214.149 249.136 214.149 249.137 214.151C249.159 214.171 248.849 214.539 248.269 215.189C247.984 215.521 247.621 215.915 247.157 216.327C246.755 216.695 246.323 217.133 245.796 217.552Z" fill="white"/>
<path d="M239.029 207.529C239.011 207.529 238.883 207.401 238.653 207.159C238.389 206.872 238.051 206.503 237.632 206.045C236.719 205.031 235.46 203.629 233.919 201.915C232.267 200.072 230.279 197.863 228.057 195.413C226.068 193.22 223.891 190.836 221.6 188.349C216.748 183.088 212.304 178.373 209.077 174.969C207.493 173.293 206.199 171.925 205.26 170.933C204.839 170.479 204.499 170.111 204.235 169.825C204.003 169.568 203.887 169.428 203.897 169.417C203.897 169.417 203.897 169.417 203.899 169.417C203.919 169.417 204.055 169.536 204.296 169.764C204.576 170.036 204.935 170.385 205.38 170.817C206.315 171.737 207.653 173.084 209.295 174.76C212.577 178.111 217.059 182.796 221.913 188.06C224.208 190.549 226.38 192.945 228.357 195.155C230.563 197.617 232.524 199.847 234.145 201.715C235.683 203.487 236.916 204.929 237.757 205.937C238.151 206.415 238.469 206.801 238.719 207.103C238.935 207.372 239.043 207.519 239.032 207.528C239.031 207.528 239.031 207.529 239.029 207.529Z" fill="white"/>
<path d="M238.967 224.417L237.139 222.448C238.116 222.092 239.047 221.697 239.924 221.283L241.833 223.337C241.193 223.635 240.547 223.913 239.895 224.172C239.624 224.248 239.316 224.329 238.967 224.417Z" fill="white"/>
<path d="M219.557 203.5L192.371 174.2C192.371 174.2 192.371 174.199 192.371 174.197C192.752 173.359 193.161 172.537 193.6 171.735C193.641 171.681 193.684 171.627 193.729 171.572L221.525 201.483C220.861 202.148 220.204 202.82 219.557 203.5Z" fill="white"/>
<path d="M236.827 222.112L219.557 203.5C220.204 202.82 220.861 202.148 221.525 201.483L239.635 220.971C238.748 221.377 237.809 221.763 236.827 222.112Z" fill="white"/>
<path d="M239.895 224.172C240.547 223.913 241.193 223.635 241.833 223.337C241.833 223.337 242.191 223.532 239.895 224.172ZM192.371 174.197C192.381 174.141 192.62 173.007 193.6 171.735C193.161 172.537 192.752 173.359 192.371 174.197Z" fill="#6A858C"/>
<path d="M237.139 222.448L236.827 222.112C237.809 221.763 238.748 221.377 239.635 220.971L239.924 221.283C239.047 221.697 238.116 222.092 237.139 222.448Z" fill="white"/>
<path d="M320.357 256.98C310.084 248.729 284.903 228.549 283.752 228.011C282.304 227.333 260.143 219.46 255.899 221.989C251.653 224.52 240.271 238.805 240.271 238.805C240.271 238.805 241.352 247.691 251.28 241.332C258.855 236.481 260.029 235.729 260.161 235.644L260.147 235.653L270.7 238.119C270.7 238.119 257.828 243.495 255.105 246.321C252.383 249.148 248.077 259.971 250.763 262.463C253.448 264.955 256.567 265.168 256.567 265.168C256.567 265.168 251.252 272.715 260.679 277.271C260.679 277.271 262.055 283.615 266.704 286.1C271.355 288.587 280.016 287.707 280.016 287.707C280.016 287.707 284.033 285.331 281.049 281.392C278.065 277.453 272.561 276.909 272.561 276.909L279.384 272.929C279.384 272.929 282.933 274.016 288.192 278.077C288.192 278.077 294.421 270.103 300.641 265.596C307.623 260.536 320.357 256.98 320.357 256.98Z" fill="#F9A78D"/>
<path d="M276.68 260.332C276.677 260.301 276.316 260.307 275.668 260.391C275.02 260.473 274.088 260.66 272.972 261.016C270.749 261.712 267.768 263.253 265.324 265.911C262.879 268.571 261.592 271.671 261.084 273.944C260.823 275.085 260.715 276.029 260.687 276.681C260.657 277.335 260.681 277.696 260.712 277.696C260.808 277.704 260.828 276.255 261.431 274.031C262.016 271.821 263.32 268.835 265.695 266.253C268.069 263.672 270.936 262.123 273.088 261.353C275.253 260.567 276.696 260.425 276.68 260.332Z" fill="#F57F62"/>
<path d="M277.135 248.847C277.131 248.812 276.747 248.841 276.052 248.924C275.704 248.96 275.28 249.017 274.796 249.129C274.311 249.236 273.751 249.329 273.153 249.52C271.943 249.84 270.54 250.363 269.04 251.069C267.553 251.804 265.979 252.737 264.455 253.897C262.943 255.076 261.637 256.36 260.548 257.609C259.481 258.88 258.617 260.103 257.999 261.192C257.663 261.72 257.429 262.239 257.203 262.68C256.971 263.12 256.807 263.515 256.683 263.843C256.425 264.492 256.3 264.856 256.332 264.869C256.424 264.909 256.989 263.469 258.304 261.377C258.952 260.327 259.832 259.145 260.899 257.915C261.988 256.704 263.279 255.455 264.761 254.297C266.259 253.159 267.981 251.877 269.429 251.132C270.892 250.416 272.073 250.22 273.255 249.861C275.613 249.124 277.149 248.947 277.135 248.847Z" fill="#F57F62"/>
<path d="M279.061 235.657C279.076 235.603 278.543 235.397 277.628 235.336C276.719 235.271 275.427 235.413 274.131 235.96C272.377 236.709 271.76 237.441 271.253 238.044C270.663 238.744 270.441 239.271 270.491 239.299C270.608 239.404 271.832 237.455 274.328 236.424C276.801 235.343 279.056 235.815 279.061 235.657Z" fill="#F57F62"/>
<path d="M397.341 193.873C397.341 193.873 429.863 196.993 440.185 225.247C448.379 247.672 452.832 314.855 450.779 316.224L393.363 314.387C392.608 298.004 388.196 285.373 382.012 277.2L397.341 193.873Z" fill="#33535F"/>
<path d="M394.241 314.388C394.269 314.348 394.668 314.573 395.368 315.015C396.072 315.453 397.06 316.132 398.251 317.012C400.637 318.764 403.797 321.385 406.988 324.592C410.183 327.796 412.8 330.953 414.595 333.305C415.491 334.483 416.192 335.453 416.651 336.143C417.112 336.829 417.349 337.221 417.311 337.251C417.225 337.313 416.093 335.879 414.211 333.611C412.325 331.347 409.668 328.263 406.496 325.083C403.329 321.9 400.248 319.243 397.951 317.4C395.656 315.555 394.18 314.477 394.241 314.388Z" fill="#F57F62"/>
<path d="M387.403 245.281C387.592 245.313 386.539 252.484 385.049 261.297C383.56 270.113 382.2 277.232 382.012 277.2C381.823 277.168 382.876 269.999 384.365 261.183C385.853 252.369 387.215 245.249 387.403 245.281Z" fill="#17282F"/>
<path d="M315.143 446.752C315.141 446.728 315.469 446.679 316.097 446.608C316.793 446.537 317.705 446.445 318.841 446.331C321.305 446.097 324.735 445.773 328.94 445.375C337.465 444.557 349.232 443.328 362.193 441.691C375.16 440.048 386.863 438.308 395.323 436.979C399.495 436.316 402.897 435.776 405.34 435.389C406.471 435.217 407.376 435.079 408.068 434.975C408.692 434.887 409.023 434.852 409.027 434.876C409.031 434.9 408.709 434.98 408.092 435.112C407.407 435.249 406.508 435.431 405.387 435.655C403.036 436.116 399.625 436.736 395.403 437.463C386.959 438.917 375.257 440.736 362.281 442.38C349.308 444.017 337.524 445.171 328.984 445.864C324.713 446.212 321.255 446.461 318.863 446.6C317.721 446.661 316.805 446.709 316.108 446.747C315.477 446.773 315.145 446.776 315.143 446.752Z" fill="#17282F"/>
<path d="M310.067 438.169C310.065 438.121 310.908 438.047 312.433 437.955C314.072 437.868 316.252 437.752 318.893 437.611C324.453 437.325 331.933 436.943 340.201 436.519C348.468 436.04 355.947 435.607 361.505 435.284C364.145 435.136 366.325 435.013 367.964 434.921C369.489 434.847 370.335 434.828 370.339 434.876C370.343 434.924 369.504 435.033 367.984 435.191C366.464 435.349 364.263 435.549 361.54 435.773C356.095 436.224 348.565 436.757 340.239 437.212C331.916 437.665 324.373 437.956 318.912 438.101C316.181 438.175 313.971 438.216 312.443 438.225C310.915 438.235 310.069 438.217 310.067 438.169Z" fill="#17282F"/>
<path d="M218.621 316.6C218.832 315.783 219.176 315.015 219.66 314.32C220.62 312.943 222.075 311.893 223.72 311.517C226.456 310.893 229.523 312.175 231.001 314.56C230.903 312.741 232.339 311.047 234.096 310.567C235.852 310.087 237.215 310.764 238.616 311.927C240.019 313.089 240.376 314.015 240.945 315.745C242.345 312.603 249.536 312.988 250.411 315.345C250.411 315.345 256.599 308.572 259.764 311.903C261.079 313.287 260.515 315.409 259.644 317.535C258.481 320.373 257.716 321.557 256.196 324.684L250.339 325.003C249.844 326.836 248.805 334.291 248.587 336.177C248.367 338.063 247.989 339.983 246.987 341.595C245.984 343.207 244.241 344.468 242.343 344.443C240.444 344.416 238.575 342.788 238.687 340.893C238.288 342.459 237.621 344.004 236.467 345.136C235.311 346.267 233.601 346.919 232.037 346.511C230.473 346.103 229.233 344.467 229.551 342.881C227.461 344.328 224.376 343.043 223.051 340.876C221.724 338.709 221.692 336.016 221.773 333.476C221.845 331.225 222.049 328.7 221.163 326.569C221.023 326.233 220.781 325.943 220.701 325.585C220.581 325.055 220.661 324.455 220.624 323.913C220.541 322.733 220.324 321.557 219.919 320.444C219.829 320.2 219.732 319.959 219.624 319.721C219.34 319.091 218.921 318.557 218.6 317.955C218.529 317.821 218.468 317.691 218.452 317.54C218.417 317.235 218.545 316.892 218.621 316.6Z" fill="#F9A78D"/>
<path d="M212.031 313.348C210.465 313.292 208.76 313.616 207.715 314.783C206.476 316.167 206.191 319.479 206.332 321.331C208.503 321.741 209.66 321.257 211.831 321.667C212.288 321.753 212.671 321.639 213.051 321.908C214.051 322.619 213.889 325.013 214.292 326.173C214.991 328.185 217.568 329.168 219.565 328.428C221.561 327.689 222.848 325.564 222.949 323.437C223.051 321.309 222.113 319.229 220.744 317.599C218.603 315.051 215.356 313.467 212.031 313.348Z" fill="#F9A78D"/>
<path d="M248.997 333.068C248.777 333.021 249.671 329.049 250.235 324.107C250.507 321.633 250.569 319.385 250.472 317.764C250.388 316.143 250.197 315.147 250.304 315.12C250.383 315.097 250.747 316.069 250.961 317.72C251.188 319.367 251.201 321.673 250.925 324.18C250.655 326.689 250.185 328.921 249.799 330.521C249.407 332.12 249.088 333.089 248.997 333.068Z" fill="#F57F62"/>
<path d="M238.427 341.603C238.329 341.581 238.58 340.137 239.007 337.816C239.429 335.493 240.024 332.288 240.476 328.725C240.927 325.161 241.087 321.913 241.039 319.564C241.004 317.213 240.833 315.761 240.945 315.745C241.023 315.731 241.368 317.168 241.529 319.544C241.704 321.916 241.62 325.216 241.164 328.811C240.709 332.405 240.035 335.613 239.487 337.916C238.936 340.22 238.516 341.623 238.427 341.603Z" fill="#F57F62"/>
<path d="M229.483 343.127C229.379 343.099 229.748 341.504 230.215 338.911C230.684 336.319 231.201 332.715 231.423 328.705C231.639 324.693 231.517 321.055 231.332 318.427C231.149 315.797 230.956 314.173 231.063 314.157C231.111 314.149 231.212 314.548 231.356 315.276C231.505 316.003 231.667 317.064 231.821 318.381C232.132 321.016 232.335 324.692 232.116 328.743C231.892 332.792 231.292 336.424 230.696 339.008C230.4 340.301 230.123 341.339 229.896 342.045C229.673 342.753 229.529 343.139 229.483 343.127Z" fill="#F57F62"/>
<path d="M217.691 317.016C217.721 316.945 218.493 317.169 219.517 317.939C220.535 318.696 221.763 320.061 222.483 321.897C223.201 323.731 223.256 325.587 222.876 326.84C222.488 328.129 221.679 328.576 221.652 328.495C221.573 328.417 222.177 327.892 222.4 326.72C222.627 325.569 222.504 323.851 221.836 322.152C221.167 320.445 220.091 319.129 219.201 318.316C218.313 317.492 217.637 317.117 217.691 317.016Z" fill="#F57F62"/>
</svg>
