<svg width="634" height="455" viewBox="0 0 634 455" fill="none" xmlns="http://www.w3.org/2000/svg">
<path d="M421.329 295.389C421.329 296.289 421.329 344.012 421.329 344.012H410.465V350.615H421.329V383.957H624.392V353.619H609.351V347.009H624.392V337.097H631.077V332.591H623.14V295.389H421.329Z" fill="#F3F2F1"/>
<path d="M570.468 295.533V383.403H624.392V353.063H609.351V347.01L624.392 347.215V337.301L631.208 337.308L631.077 332.186L623.14 332.036V295.389L570.468 295.533Z" fill="#E7E8E5"/>
<path d="M574.931 350.985C574.931 351.407 538.187 351.746 492.869 351.746C447.537 351.746 410.8 351.407 410.8 350.985C410.8 350.565 447.537 350.225 492.869 350.225C538.187 350.225 574.931 350.565 574.931 350.985Z" fill="#DADBD8"/>
<path d="M574.931 344.012C574.931 344.432 538.187 344.774 492.869 344.774C447.537 344.774 410.8 344.432 410.8 344.012C410.8 343.592 447.537 343.251 492.869 343.251C538.187 343.251 574.931 343.592 574.931 344.012Z" fill="#DADBD8"/>
<path d="M584.851 311.28C584.851 311.701 548.107 312.041 502.789 312.041C457.457 312.041 420.721 311.701 420.721 311.28C420.721 310.86 457.457 310.52 502.789 310.52C548.107 310.52 584.851 310.86 584.851 311.28Z" fill="#DADBD8"/>
<path d="M585.865 362.425C585.865 362.845 549.12 363.187 503.804 363.187C458.471 363.187 421.735 362.845 421.735 362.425C421.735 362.005 458.471 361.664 503.804 361.664C549.12 361.664 585.865 362.005 585.865 362.425Z" fill="#DADBD8"/>
<path d="M633.081 383.948C633.081 384.14 491.351 384.296 316.556 384.296C141.701 384.296 0 384.14 0 383.948C0 383.756 141.701 383.601 316.556 383.601C491.351 383.601 633.081 383.756 633.081 383.948Z" fill="#17282F"/>
<path d="M475.028 344.709C475.028 344.709 504.095 334.433 531.02 344.709L525.811 353.955L477.655 355.808L475.028 344.709Z" fill="#3C1361"/>
<path d="M479.867 292.492L480.376 292.456C482.123 292.329 483.64 293.643 483.767 295.389L490.66 391.015L483.827 391.508L476.932 295.883C476.807 294.136 478.12 292.619 479.867 292.492Z" fill="#DADBD8"/>
<path d="M479.867 292.492C479.899 292.557 479.085 292.456 478.067 293.312C477.583 293.737 477.1 294.463 477.039 295.415C477.041 296.359 477.189 297.503 477.273 298.76C477.667 303.857 478.231 311.176 478.929 320.224C480.268 338.412 482.116 363.541 484.172 391.483L483.801 391.162C484.961 391.077 486.212 390.988 487.468 390.897C488.553 390.819 489.635 390.741 490.635 390.669L490.315 391.04C488.332 362.969 486.548 337.707 485.256 319.419C484.645 310.316 484.152 302.951 483.808 297.821C483.768 297.187 483.731 296.585 483.695 296.02C483.661 295.449 483.64 294.937 483.46 294.492C483.112 293.597 482.436 293.045 481.847 292.776C481.244 292.507 480.724 292.477 480.387 292.489C480.044 292.503 479.867 292.504 479.867 292.492C479.865 292.48 480.04 292.456 480.383 292.42C480.725 292.385 481.263 292.389 481.901 292.651C482.525 292.912 483.256 293.472 483.649 294.417C483.851 294.888 483.887 295.448 483.928 296.003C483.973 296.568 484.023 297.168 484.073 297.803C484.469 302.928 485.037 310.287 485.739 319.384C487.084 337.668 488.941 362.925 491.007 390.989L491.032 391.336L490.685 391.362C489.684 391.433 488.603 391.511 487.519 391.589C486.263 391.68 485.012 391.77 483.852 391.853L483.505 391.879L483.48 391.532C481.507 363.585 479.732 338.45 478.448 320.259C477.841 311.204 477.351 303.88 477.008 298.78C476.945 297.507 476.817 296.405 476.836 295.399C476.925 294.385 477.459 293.636 477.976 293.208C478.499 292.764 479.017 292.613 479.349 292.54C479.688 292.471 479.867 292.492 479.867 292.492Z" fill="#17282F"/>
<path d="M480.337 361.474L490.08 360.77L492.38 392.669C492.575 395.36 490.551 397.699 487.86 397.892C485.169 398.087 482.831 396.063 482.637 393.372L480.337 361.474Z" fill="#33535F"/>
<path d="M477.385 346.901L479.277 346.764L482.261 388.157L480.371 388.294L477.385 346.901Z" fill="#33535F"/>
<path d="M490.08 360.77C490.101 360.981 486.092 361.545 480.267 362.181L480.699 361.67C480.875 363.897 481.065 366.312 481.267 368.857C481.607 373.572 481.855 377.843 481.983 380.939C482.109 384.034 482.116 385.955 481.969 385.965C481.824 385.976 481.555 384.074 481.236 380.993C480.919 377.91 480.552 373.648 480.212 368.933C480.045 366.385 479.888 363.969 479.743 361.739L479.712 361.265L480.176 361.228C486.017 360.758 490.061 360.558 490.08 360.77Z" fill="#17282F"/>
<path d="M497.665 372.331H490.815V295.008H497.665V372.331Z" fill="#DADBD8"/>
<path d="M497.665 372.331C497.657 372.323 497.649 372.182 497.641 371.915C497.636 371.613 497.628 371.227 497.619 370.74C497.607 369.67 497.591 368.17 497.569 366.258C497.545 362.339 497.511 356.736 497.467 349.796C497.429 335.875 497.377 316.607 497.32 295.008L497.665 295.353C495.487 295.353 493.164 295.355 490.819 295.355C491.504 294.661 491.008 295.177 491.161 295.029V295.055V295.105V295.207V295.409V295.816V296.627V298.241C491.161 299.316 491.16 300.385 491.16 301.448C491.159 303.576 491.159 305.68 491.157 307.761C491.153 311.92 491.149 315.98 491.145 319.916C491.131 327.785 491.116 335.162 491.103 341.862C491.036 355.197 490.984 365.827 490.951 372.331L490.815 372.193C492.973 372.227 494.663 372.253 495.86 372.272C496.415 372.285 496.855 372.296 497.193 372.304C497.497 372.313 497.657 372.323 497.665 372.331C497.675 372.34 497.531 372.348 497.241 372.357C496.911 372.365 496.481 372.376 495.939 372.389C494.724 372.408 493.008 372.435 490.815 372.468L490.677 372.469V372.331C490.645 365.827 490.592 355.197 490.525 341.862C490.512 335.162 490.497 327.785 490.483 319.916C490.479 315.98 490.475 311.92 490.471 307.761C490.469 305.68 490.469 303.576 490.468 301.448C490.468 300.385 490.468 299.316 490.467 298.241V296.627V295.816V295.409V295.207V295.105V295.055V295.029C490.624 294.868 490.116 295.355 490.819 294.66C493.164 294.661 495.487 294.661 497.665 294.661H498.013L498.012 295.008C497.953 316.705 497.903 336.063 497.865 350.048C497.821 356.953 497.787 362.531 497.761 366.429C497.741 368.309 497.725 369.783 497.713 370.832C497.704 371.3 497.696 371.672 497.689 371.963C497.681 372.215 497.673 372.339 497.665 372.331Z" fill="#17282F"/>
<path d="M498.987 325.216H489.217V293.233C489.217 290.536 491.404 288.349 494.101 288.349C496.8 288.349 498.987 290.536 498.987 293.233V325.216Z" fill="#33535F"/>
<path d="M500.883 339.961H498.987V298.461H500.883V339.961Z" fill="#33535F"/>
<path d="M489.217 325.216C489.213 325.004 493.251 324.729 499.108 324.513L498.64 324.992C498.624 322.757 498.608 320.336 498.591 317.784C498.591 313.057 498.649 308.779 498.745 305.681C498.841 302.584 498.973 300.669 499.119 300.669C499.265 300.669 499.397 302.584 499.493 305.681C499.588 308.779 499.648 313.057 499.648 317.784C499.631 320.336 499.613 322.757 499.599 324.992L499.595 325.468L499.129 325.472C493.269 325.519 489.223 325.428 489.217 325.216Z" fill="#17282F"/>
<path d="M511.472 390.477H504.621V313.153H511.472V390.477Z" fill="#DADBD8"/>
<path d="M511.472 390.477C511.464 390.469 511.456 390.328 511.448 390.062C511.443 389.758 511.435 389.372 511.425 388.885C511.413 387.817 511.397 386.317 511.376 384.404C511.352 380.485 511.317 374.881 511.273 367.943C511.236 354.021 511.184 334.752 511.127 313.153L511.472 313.5C509.293 313.5 506.971 313.5 504.625 313.501C505.311 312.807 504.815 313.323 504.968 313.175V313.2V313.251V313.353V313.556V313.961V314.772V316.388C504.968 317.461 504.967 318.531 504.967 319.595C504.965 321.721 504.965 323.827 504.964 325.907C504.96 330.067 504.956 334.125 504.952 338.063C504.937 345.931 504.923 353.307 504.909 360.007C504.843 373.343 504.791 383.972 504.757 390.476L504.621 390.34C506.78 390.374 508.469 390.398 509.667 390.417C510.221 390.431 510.661 390.441 511 390.451C511.304 390.46 511.464 390.468 511.472 390.477C511.481 390.485 511.337 390.493 511.048 390.504C510.717 390.512 510.288 390.522 509.745 390.536C508.531 390.555 506.815 390.58 504.621 390.613L504.484 390.616V390.476C504.452 383.972 504.399 373.343 504.332 360.007C504.319 353.307 504.304 345.931 504.289 338.063C504.285 334.125 504.281 330.067 504.277 325.907C504.276 323.827 504.276 321.721 504.275 319.595C504.275 318.531 504.275 317.461 504.273 316.388V314.772V313.961V313.556V313.353V313.251V313.2V313.175C504.431 313.013 503.923 313.5 504.625 312.807C506.971 312.807 509.293 312.807 511.472 312.808H511.82L511.819 313.153C511.76 334.852 511.709 354.209 511.672 368.195C511.628 375.1 511.593 380.676 511.568 384.576C511.548 386.455 511.532 387.928 511.52 388.979C511.511 389.445 511.503 389.819 511.496 390.108C511.488 390.36 511.48 390.485 511.472 390.477Z" fill="#17282F"/>
<path d="M512.793 343.362H503.024V311.38C503.024 308.683 505.211 306.496 507.908 306.496C510.607 306.496 512.793 308.683 512.793 311.38V343.362Z" fill="#33535F"/>
<path d="M514.689 358.108H512.793V316.607H514.689V358.108Z" fill="#33535F"/>
<path d="M503.024 343.362C503.02 343.15 507.057 342.876 512.915 342.66L512.447 343.139C512.432 340.904 512.415 338.483 512.397 335.929C512.397 331.203 512.456 326.924 512.552 323.827C512.648 320.731 512.78 318.815 512.925 318.815C513.072 318.815 513.204 320.731 513.3 323.827C513.395 326.924 513.455 331.203 513.455 335.929C513.437 338.483 513.42 340.904 513.405 343.139L513.401 343.613L512.936 343.617C507.076 343.665 503.029 343.574 503.024 343.362Z" fill="#17282F"/>
<path d="M524.491 369.497H517.639V292.175H524.491V369.497Z" fill="#DADBD8"/>
<path d="M524.491 369.497C524.483 369.489 524.475 369.349 524.467 369.081C524.46 368.78 524.452 368.393 524.443 367.907C524.431 366.839 524.415 365.339 524.395 363.425C524.369 359.507 524.335 353.903 524.291 346.963C524.253 333.041 524.203 313.773 524.144 292.175L524.491 292.52C522.311 292.521 519.988 292.521 517.643 292.521C518.328 291.828 517.833 292.344 517.985 292.196V292.221V292.272V292.373V292.577V292.983V293.793V295.408C517.985 296.483 517.985 297.552 517.985 298.616C517.984 300.743 517.983 302.848 517.981 304.928C517.977 309.087 517.975 313.147 517.971 317.084C517.955 324.952 517.94 332.328 517.927 339.028C517.861 352.364 517.808 362.993 517.776 369.497L517.639 369.362C519.799 369.395 521.488 369.42 522.684 369.439C523.24 369.452 523.68 369.463 524.017 369.47C524.321 369.481 524.481 369.489 524.491 369.497C524.499 369.507 524.356 369.515 524.067 369.524C523.736 369.533 523.305 369.544 522.763 369.557C521.548 369.576 519.832 369.601 517.639 369.635L517.503 369.637L517.501 369.497C517.469 362.993 517.416 352.364 517.351 339.028C517.337 332.328 517.323 324.952 517.307 317.084C517.303 313.147 517.3 309.087 517.296 304.928C517.295 302.848 517.293 300.743 517.292 298.616C517.292 297.552 517.292 296.483 517.292 295.408V293.793V292.983V292.577V292.373V292.272V292.221V292.196C517.448 292.035 516.941 292.521 517.643 291.828C519.988 291.828 522.311 291.828 524.491 291.828H524.837L524.836 292.175C524.779 313.873 524.727 333.231 524.689 347.216C524.645 354.121 524.611 359.697 524.587 363.597C524.565 365.476 524.549 366.95 524.539 368C524.528 368.467 524.52 368.84 524.515 369.129C524.507 369.381 524.499 369.505 524.491 369.497Z" fill="#17282F"/>
<path d="M525.811 322.382H516.041V290.401C516.041 287.703 518.229 285.516 520.927 285.516C523.624 285.516 525.811 287.703 525.811 290.401V322.382Z" fill="#33535F"/>
<path d="M527.707 337.129H525.811V295.628H527.707V337.129Z" fill="#33535F"/>
<path d="M516.041 322.382C516.037 322.17 520.076 321.896 525.932 321.681L525.464 322.16C525.449 319.925 525.432 317.504 525.415 314.951C525.415 310.224 525.475 305.945 525.569 302.848C525.665 299.752 525.797 297.836 525.944 297.836C526.089 297.836 526.221 299.752 526.317 302.848C526.413 305.945 526.472 310.224 526.472 314.951C526.455 317.504 526.437 319.925 526.423 322.16L526.42 322.635L525.955 322.639C520.093 322.687 516.047 322.595 516.041 322.382Z" fill="#17282F"/>
<path d="M524.731 408.868C510.203 415.719 495.56 415.612 480.807 408.868L475.028 344.71C492.708 349.891 511.467 349.393 531.02 344.71L524.731 408.868Z" fill="#3C1361"/>
<path d="M531.029 344.277C531.044 344.323 530.3 344.588 528.94 345.031C527.584 345.487 525.588 346.041 523.097 346.628C520.609 347.225 517.608 347.775 514.252 348.225C510.893 348.64 507.177 348.935 503.268 348.984C499.359 349.007 495.637 348.78 492.269 348.428C488.907 348.039 485.895 347.545 483.396 346.993C480.896 346.453 478.889 345.936 477.525 345.505C476.157 345.088 475.409 344.836 475.423 344.789C475.436 344.744 476.211 344.908 477.596 345.244C478.977 345.593 480.992 346.036 483.492 346.512C485.991 346.999 488.992 347.44 492.336 347.791C495.685 348.107 499.38 348.312 503.263 348.289C507.143 348.24 510.832 347.967 514.173 347.589C517.511 347.177 520.503 346.681 522.992 346.148C525.483 345.627 527.491 345.146 528.865 344.77C530.244 344.409 531.015 344.231 531.029 344.277Z" fill="#17282F"/>
<path d="M291.708 405.996L180.173 408.963L291.708 454.293L411.672 447.205L291.708 405.996Z" fill="#DADBD8"/>
<path d="M259.923 401.492L148.387 404.458L259.923 449.789L379.885 442.703L259.923 401.492Z" fill="#F3F2F1"/>
<path d="M155.659 389.701L267.195 435.032V443.269L155.659 396.357V389.701Z" fill="#DADBD8"/>
<path d="M267.195 443.269L387.157 435.607V427.946L267.195 435.032V443.269Z" fill="#E7E8E5"/>
<path d="M267.195 386.735L155.659 389.701L267.195 435.032L387.157 427.945L267.195 386.735Z" fill="white"/>
<path d="M267.195 386.735C267.195 386.735 267.385 386.784 267.759 386.904C268.147 387.031 268.697 387.212 269.419 387.448C270.899 387.945 273.064 388.674 275.88 389.62C281.552 391.546 289.833 394.362 300.348 397.935C321.416 405.14 351.423 415.401 387.257 427.656C387.417 427.711 387.503 427.884 387.448 428.044C387.407 428.165 387.296 428.243 387.176 428.251C354.107 430.216 315.62 432.504 274.737 434.935C272.207 435.084 269.687 435.233 267.215 435.379L267.064 435.353C225.989 418.639 187.779 403.089 155.549 389.974C155.399 389.912 155.327 389.741 155.387 389.591L155.652 389.408C189.237 388.567 217.123 387.868 236.633 387.38C246.363 387.156 254 386.98 259.225 386.858C261.815 386.809 263.803 386.77 265.164 386.744C266.505 386.724 267.195 386.735 267.195 386.735C267.195 386.735 266.496 386.784 265.151 386.835C263.787 386.88 261.795 386.948 259.2 387.036C253.972 387.193 246.332 387.424 236.597 387.717C217.1 388.265 189.232 389.049 155.667 389.995L155.769 389.429C188.011 402.517 226.236 418.032 267.325 434.711L267.173 434.687C269.645 434.54 272.165 434.391 274.696 434.241C315.581 431.841 354.069 429.581 387.14 427.64L387.059 428.235C351.276 415.887 321.313 405.548 300.276 398.289C289.777 394.644 281.511 391.774 275.849 389.808C273.039 388.821 270.88 388.063 269.403 387.545C268.685 387.288 268.137 387.091 267.751 386.952C267.38 386.816 267.195 386.735 267.195 386.735Z" fill="#17282F"/>
<path d="M267.111 443.579C266.919 443.579 266.764 441.693 266.764 439.368C266.764 437.043 266.919 435.157 267.111 435.157C267.303 435.157 267.457 437.043 267.457 439.368C267.457 441.693 267.303 443.579 267.111 443.579Z" fill="#17282F"/>
<path d="M343.783 419.384C343.795 419.576 325.6 420.821 303.151 422.165C280.693 423.509 262.485 424.444 262.473 424.253C262.463 424.061 280.652 422.816 303.109 421.472C325.559 420.128 343.772 419.193 343.783 419.384Z" fill="#17282F"/>
<path d="M331.953 414.82C331.964 415.012 313.771 416.256 291.321 417.601C268.864 418.945 250.656 419.88 250.644 419.688C250.632 419.497 268.823 418.252 291.28 416.908C313.729 415.564 331.941 414.629 331.953 414.82Z" fill="#17282F"/>
<path d="M320.123 410.256C320.135 410.446 301.941 411.692 279.492 413.036C257.035 414.381 238.825 415.316 238.815 415.124C238.803 414.933 256.992 413.688 279.449 412.344C301.899 410.999 320.112 410.064 320.123 410.256Z" fill="#17282F"/>
<path d="M306.363 405.692C306.373 405.882 288.18 407.128 265.731 408.472C243.273 409.817 225.065 410.752 225.053 410.56C225.041 410.369 243.232 409.124 265.689 407.779C288.139 406.435 306.351 405.5 306.363 405.692Z" fill="#17282F"/>
<path d="M294.564 401.128C294.576 401.319 276.383 402.564 253.933 403.908C231.476 405.253 213.267 406.188 213.256 405.996C213.244 405.805 231.435 404.56 253.892 403.215C276.341 401.87 294.553 400.936 294.564 401.128Z" fill="#17282F"/>
<path d="M280.145 396.483C280.157 396.674 261.963 397.919 239.513 399.263C217.056 400.608 198.848 401.543 198.836 401.351C198.825 401.16 217.015 399.915 239.472 398.569C261.921 397.225 280.135 396.291 280.145 396.483Z" fill="#17282F"/>
<path d="M265.732 394.88L260.152 391.964L262.889 389.497L265.732 394.88Z" fill="#17282F"/>
<path d="M252.585 388.47L259.115 382.664L262.943 389.729L260.152 391.964L252.585 388.47Z" fill="white"/>
<path d="M142.719 190.848L179.956 178.433L200.696 160.907L205.184 168.011L222.583 164.024L271.824 176.82L279.768 190.864L321.803 202.363L321.992 261.309L314.361 369.164L315.476 386.307H114.371L111.053 314.667L110.901 270.101L142.719 190.848Z" fill="#3C1361"/>
<path d="M249.075 355.562L292.489 353.458C292.489 353.458 300.912 358.262 303.099 372.029C305.287 385.798 303.099 385.798 303.099 385.798L281.235 393.179L234.851 392.112L218.028 370.981L230.703 363.499L249.075 355.562Z" fill="#F8A58D"/>
<path d="M98.9011 339.672C98.9011 339.672 140.537 274.019 133.531 283.517C132.67 284.684 137.763 279.752 144.321 263.652C150.621 248.193 167.048 183.291 167.048 183.291L129.528 193.244C119.658 195.863 111.627 196.713 103.122 202.363C95.7208 207.28 87.9927 216.941 82.9683 224.269C64.2417 251.587 29.9579 304.793 25.6251 311.595C19.4417 321.303 6.92293 346.357 7.06095 361.311C7.18127 374.34 9.71512 385.946 29.6031 396.327C47.9489 405.903 165.236 399.232 165.236 399.232L164.591 350.472L98.9011 339.672Z" fill="#3C1361"/>
<path d="M438.024 327.164C436.304 322.876 370.727 250.368 337.801 216.809C327.919 206.736 321.803 202.363 321.803 202.363L310.956 273.04C310.956 273.04 314.685 289.332 316.953 301.391C317.443 303.993 351.499 327.164 351.499 327.164L358.797 331.837L292.225 349.432L295.005 391.725L414.187 388.591C429.661 382.669 454.305 367.736 438.024 327.164Z" fill="#3C1361"/>
<path d="M414.187 388.591C414.187 388.591 413.983 388.617 413.584 388.639C413.16 388.657 412.572 388.682 411.813 388.716C410.227 388.77 407.932 388.852 404.983 388.955C399.013 389.136 390.4 389.397 379.708 389.721C358.259 390.313 328.476 391.135 295.013 392.056L294.696 392.065L294.675 391.748C294.415 387.791 294.137 383.587 293.857 379.333C293.181 369.012 292.524 358.969 291.901 349.453L291.884 349.172L292.16 349.115C299.291 347.641 306.111 345.8 312.643 344.032C319.165 342.223 325.411 340.492 331.325 338.852C343.153 335.572 353.695 332.792 362.567 330.877C371.429 328.923 378.62 327.853 383.587 327.46C386.065 327.189 387.993 327.189 389.293 327.169C389.925 327.162 390.412 327.156 390.771 327.152C391.103 327.151 391.271 327.165 391.271 327.165C391.271 327.165 391.101 327.191 390.771 327.211C390.413 327.228 389.927 327.252 389.296 327.284C387.999 327.343 386.077 327.379 383.608 327.682C378.659 328.145 371.495 329.276 362.656 331.283C353.809 333.252 343.289 336.076 331.476 339.393C325.565 341.048 319.324 342.796 312.804 344.623C306.271 346.407 299.449 348.26 292.289 349.749L292.548 349.411C293.176 358.927 293.839 368.969 294.52 379.291C294.8 383.543 295.076 387.748 295.335 391.704L294.996 391.395C328.46 390.557 358.247 389.811 379.697 389.274C390.391 389.035 399.005 388.843 404.976 388.711C407.927 388.658 410.223 388.617 411.809 388.589C412.569 388.582 413.157 388.577 413.583 388.574C413.981 388.575 414.187 388.591 414.187 388.591Z" fill="#17282F"/>
<path d="M257.692 373.137C257.476 372.556 256.995 372.119 256.532 371.707C254.177 369.612 251.824 367.517 249.471 365.423L245.383 377.601C247.1 378.915 249.348 379.511 251.491 379.22C253.632 378.931 255.641 377.757 256.947 376.035C257.576 375.205 258.057 374.113 257.692 373.137Z" fill="#6F3530"/>
<path d="M162.943 305.183L252.585 388.47L261.049 392.483L265.732 394.88L263.545 390.844L259.115 382.664L168.363 299.313C166.824 297.901 164.456 297.912 162.931 299.34C161.241 300.923 161.247 303.607 162.943 305.183Z" fill="#33535F"/>
<path d="M164.611 352.007L171.639 353.255C171.639 353.255 208.053 339.816 213.255 339.137C217.275 338.613 236.427 343.116 244.919 345.188C248.341 346.023 250.845 349.109 250.688 352.628L250.68 352.788C250.511 355.62 248.615 358.064 245.991 359.141C245.991 359.141 253.144 361.36 249.908 368.92C247.512 374.517 239.963 373.652 239.963 373.652L227.365 373.893C227.365 373.893 230.579 374.858 235.423 375.992C240.616 377.208 242.007 378.146 242.007 378.146C242.007 378.146 249.609 385.457 242.265 388.507C237.783 390.369 234.583 389.864 234.583 389.864C234.583 389.864 236.777 397.717 230.896 399.075C225.016 400.431 186.168 397.474 186.168 397.474C186.168 397.474 184.109 396.32 176.193 395.641L165.236 394.88L164.611 352.007Z" fill="#F8A58D"/>
<path d="M164.611 352.007C164.611 352.007 164.629 352.277 164.644 352.78C164.657 353.307 164.676 354.044 164.7 355.005C164.741 356.974 164.803 359.837 164.88 363.523C165.019 370.915 165.22 381.6 165.469 394.877L165.252 394.648C168.416 394.862 171.78 395.088 175.311 395.325C177.076 395.441 178.889 395.631 180.725 395.893C182.569 396.191 184.42 396.448 186.303 397.235L186.189 397.201C194.308 397.785 203.131 398.362 212.496 398.781C217.177 398.976 222.001 399.169 226.923 399.081C228.145 399.031 229.395 399.001 230.579 398.796C231.751 398.572 232.844 398.004 233.547 397.051C234.267 396.112 234.569 394.884 234.633 393.656C234.704 392.428 234.567 391.151 234.268 389.952L234.152 389.491L234.633 389.541C236.196 389.708 237.888 389.489 239.493 389.085C241.088 388.652 242.776 388.112 243.996 387.056C245.268 385.992 245.381 384.145 244.697 382.608C244.072 381.041 242.972 379.62 241.777 378.387L241.821 378.423C240.116 377.525 237.896 376.95 235.769 376.419C232.915 375.676 230.079 374.94 227.271 374.211L224.945 373.607L227.36 373.562C231.624 373.48 235.829 373.401 239.956 373.323H239.969L240 373.325C241.699 373.457 243.475 373.291 245.077 372.751C246.695 372.235 248.124 371.228 249.035 369.849C249.263 369.507 249.428 369.125 249.621 368.762L250.048 367.581C250.165 367.182 250.233 366.775 250.329 366.372C250.38 365.967 250.404 365.557 250.42 365.152C250.396 363.52 249.651 361.984 248.431 360.927C247.821 360.403 247.132 359.963 246.399 359.641L246.123 359.525L245.985 359.474L245.92 359.451C245.939 359.979 245.852 358.72 245.88 358.844L245.913 358.828C246.093 358.743 246.281 358.674 246.456 358.575C246.809 358.392 247.152 358.187 247.469 357.948C248.755 357.016 249.711 355.657 250.132 354.162C250.548 352.664 250.441 351.035 249.828 349.632C249.216 348.225 248.135 347.051 246.835 346.292C245.552 345.503 243.991 345.307 242.497 344.908C241.001 344.552 239.521 344.2 238.056 343.851C235.124 343.164 232.252 342.512 229.443 341.905C226.633 341.297 223.884 340.739 221.201 340.257C219.859 340.017 218.533 339.803 217.223 339.625C215.92 339.474 214.603 339.284 213.375 339.384C210.9 339.82 208.501 340.644 206.209 341.348C203.912 342.074 201.704 342.812 199.585 343.527C195.357 344.988 191.465 346.333 187.945 347.549C180.951 350.041 175.436 352.005 171.673 353.346L171.647 353.356L171.621 353.351C169.261 352.905 167.523 352.576 166.351 352.355C165.784 352.244 165.359 352.162 165.049 352.101C164.761 352.044 164.611 352.007 164.611 352.007C164.605 352 164.739 352.019 165.019 352.062C165.324 352.111 165.744 352.177 166.301 352.267C167.493 352.465 169.259 352.758 171.656 353.158L171.605 353.163C175.321 351.764 180.816 349.727 187.823 347.205C191.327 345.944 195.209 344.568 199.444 343.112C201.561 342.385 203.767 341.636 206.065 340.899C208.376 340.18 210.719 339.352 213.317 338.884C214.667 338.77 215.961 338.964 217.289 339.111C218.612 339.285 219.945 339.497 221.293 339.733C223.989 340.207 226.744 340.757 229.56 341.358C232.375 341.958 235.252 342.603 238.188 343.283C239.655 343.628 241.137 343.977 242.636 344.331C243.384 344.511 244.136 344.692 244.892 344.874C245.668 345.063 246.437 345.358 247.139 345.77C248.547 346.588 249.72 347.856 250.389 349.387C251.063 350.919 251.184 352.689 250.731 354.329C250.272 355.967 249.233 357.443 247.843 358.455C247.499 358.713 247.128 358.937 246.744 359.136C246.556 359.243 246.353 359.32 246.157 359.412L246.12 359.429C246.101 359.564 246.084 358.312 246.115 358.848L246.197 358.877L246.351 358.935L246.652 359.062C247.447 359.408 248.185 359.876 248.851 360.448C249.511 361.028 250.061 361.744 250.456 362.544C250.872 363.345 251.009 364.252 251.064 365.14C251.048 365.584 251.023 366.032 250.967 366.472C250.867 366.903 250.792 367.344 250.667 367.768L250.217 369.015C250.011 369.412 249.827 369.828 249.577 370.204C248.58 371.725 247.003 372.823 245.285 373.37C243.565 373.944 241.756 374.119 239.925 373.979L239.969 373.981C235.843 374.062 231.637 374.141 227.372 374.224L227.461 373.575C230.259 374.301 233.083 375.033 235.925 375.772C238.109 376.329 240.241 376.843 242.192 377.872L242.212 377.882L242.237 377.908C243.505 379.22 244.625 380.657 245.313 382.364C245.672 383.2 245.852 384.151 245.74 385.091C245.676 386.057 245.1 386.907 244.445 387.54C243.02 388.756 241.305 389.265 239.655 389.723C237.972 390.137 236.275 390.372 234.532 390.187L234.897 389.776C235.219 391.076 235.356 392.376 235.283 393.696C235.211 394.999 234.891 396.353 234.064 397.437C233.259 398.536 231.975 399.188 230.708 399.424C229.427 399.645 228.183 399.667 226.94 399.717C221.98 399.8 217.157 399.597 212.468 399.393C203.092 398.955 194.271 398.357 186.148 397.746L186.109 397.744L186.035 397.712C184.369 397.013 182.443 396.701 180.648 396.417C178.827 396.15 177.035 395.956 175.272 395.833C171.744 395.58 168.381 395.34 165.22 395.113L165.004 395.099L165.003 394.884C164.864 381.539 164.752 370.799 164.675 363.369C164.645 359.708 164.624 356.864 164.608 354.908C164.604 353.968 164.601 353.244 164.6 352.729C164.6 352.243 164.611 352.007 164.611 352.007Z" fill="#6F3530"/>
<path d="M245.383 359.14C245.367 359.324 240.892 359.062 235.392 358.556C229.889 358.051 225.444 357.493 225.461 357.311C225.477 357.128 229.951 357.389 235.453 357.895C240.953 358.4 245.4 358.957 245.383 359.14Z" fill="#6F3530"/>
<path d="M206.073 394.88C206.035 394.948 205.504 394.752 204.884 394.105C204.268 393.476 203.608 392.331 203.555 390.931C203.507 389.529 204.081 388.34 204.649 387.667C205.223 386.977 205.736 386.743 205.78 386.808C205.845 386.888 205.456 387.246 205.032 387.94C204.607 388.623 204.177 389.695 204.219 390.907C204.265 392.119 204.771 393.156 205.245 393.805C205.719 394.467 206.133 394.796 206.073 394.88Z" fill="#6F3530"/>
<path d="M205.491 381.7C205.477 381.772 204.811 381.724 203.941 381.139C203.088 380.577 202.072 379.365 201.884 377.725C201.713 376.084 202.447 374.681 203.157 373.95C203.88 373.191 204.521 373 204.549 373.068C204.607 373.16 204.08 373.489 203.519 374.251C202.959 374.992 202.397 376.251 202.545 377.653C202.704 379.055 203.521 380.164 204.228 380.767C204.941 381.389 205.527 381.597 205.491 381.7Z" fill="#6F3530"/>
<path d="M205.264 366.353C205.22 366.412 204.591 366.045 203.955 365.085C203.323 364.152 202.757 362.544 203.061 360.774C203.375 359.004 204.452 357.682 205.363 357.017C206.287 356.331 207.001 356.199 207.023 356.269C207.067 356.368 206.441 356.653 205.665 357.377C204.892 358.085 203.993 359.319 203.716 360.888C203.447 362.457 203.875 363.923 204.361 364.849C204.847 365.793 205.339 366.275 205.264 366.353Z" fill="#6F3530"/>
<path d="M209.889 346.658C209.828 346.709 209.536 346.501 209.296 345.991C209.053 345.488 208.937 344.676 209.172 343.845C209.407 343.015 209.932 342.384 210.401 342.081C210.873 341.774 211.231 341.748 211.256 341.823C211.335 341.987 210.187 342.589 209.812 344.027C209.379 345.445 210.041 346.562 209.889 346.658Z" fill="#6F3530"/>
<path d="M228.356 373.652C228.353 373.836 225.92 373.94 222.923 373.885C219.924 373.831 217.497 373.637 217.5 373.455C217.504 373.27 219.936 373.167 222.935 373.221C225.932 373.276 228.36 373.468 228.356 373.652Z" fill="#6F3530"/>
<path d="M234.248 389.864C234.209 390.044 229.809 389.258 224.421 388.109C219.032 386.961 214.696 385.884 214.735 385.705C214.772 385.525 219.171 386.311 224.56 387.46C229.948 388.608 234.285 389.684 234.248 389.864Z" fill="#6F3530"/>
<path d="M137.376 271.589C137.353 271.581 137.431 271.296 137.597 270.76C137.747 270.217 138.059 269.451 138.316 268.416C138.923 266.377 139.607 263.368 140.12 259.603C140.62 255.839 140.917 251.305 140.692 246.287C140.431 241.28 139.721 235.757 137.937 230.255C136.1 224.78 133.349 219.901 130.152 216.053C127 212.151 123.393 209.333 120.195 207.317C116.954 205.349 114.106 204.139 112.098 203.448C111.109 203.051 110.303 202.861 109.775 202.665C109.243 202.489 108.966 202.385 108.971 202.363C108.977 202.341 109.266 202.401 109.812 202.536C110.352 202.691 111.174 202.841 112.181 203.203C114.226 203.823 117.128 204.976 120.44 206.916C123.706 208.903 127.399 211.724 130.623 215.663C133.896 219.549 136.701 224.485 138.569 230.047C140.379 235.632 141.073 241.209 141.304 246.26C141.497 251.321 141.149 255.887 140.585 259.669C140.008 263.452 139.249 266.465 138.564 268.492C138.267 269.519 137.913 270.277 137.724 270.805C137.516 271.328 137.397 271.599 137.376 271.589Z" fill="#17282F"/>
<path d="M321.803 259.383C321.825 259.384 321.828 259.679 321.812 260.237C321.785 260.864 321.751 261.675 321.709 262.68C321.585 264.88 321.416 267.928 321.207 271.657C320.715 279.307 320.043 289.74 319.3 301.267C318.483 312.792 317.743 323.223 317.2 330.868C316.904 334.593 316.661 337.636 316.487 339.832C316.393 340.835 316.319 341.643 316.26 342.267C316.2 342.823 316.159 343.115 316.136 343.112C316.112 343.111 316.111 342.816 316.127 342.257C316.153 341.629 316.187 340.819 316.229 339.813C316.352 337.612 316.523 334.565 316.731 330.835C317.223 323.187 317.895 312.753 318.637 301.225C319.455 289.704 320.195 279.277 320.737 271.632C321.033 267.907 321.276 264.864 321.451 262.667C321.544 261.664 321.619 260.856 321.677 260.231C321.737 259.673 321.779 259.381 321.803 259.383Z" fill="#17282F"/>
<path d="M244.044 246.059C244.033 246.069 243.884 245.947 243.607 245.699C243.299 245.415 242.897 245.047 242.393 244.584C241.308 243.553 239.783 242.104 237.859 240.277C235.915 238.387 233.571 236.108 230.887 233.5C228.223 230.848 225.181 227.903 222.049 224.469L222.537 224.347C221.061 230.752 219.396 237.972 217.617 245.685L217.432 246.492L217.016 245.776C215.16 242.576 213.243 239.237 211.323 235.804C202.669 220.324 195.217 206.111 189.636 195.927C186.855 190.876 184.596 186.773 183.003 183.88C182.236 182.496 181.631 181.403 181.191 180.609C181.004 180.261 180.855 179.979 180.733 179.751C180.633 179.556 180.587 179.452 180.596 179.447C180.607 179.441 180.672 179.532 180.792 179.717C180.928 179.936 181.097 180.207 181.307 180.543C181.772 181.321 182.415 182.393 183.228 183.752C184.869 186.555 187.217 190.628 190.048 195.7C195.737 205.831 203.256 220.011 211.903 235.479C213.82 238.909 215.733 242.247 217.581 245.447L216.98 245.537C218.789 237.831 220.483 230.617 221.985 224.217L222.109 223.689L222.475 224.095C225.557 227.515 228.583 230.497 231.213 233.172C233.86 235.816 236.172 238.125 238.091 240.041C239.967 241.916 241.456 243.401 242.515 244.459C242.995 244.948 243.376 245.336 243.668 245.635C243.925 245.904 244.053 246.048 244.044 246.059Z" fill="#17282F"/>
<path d="M246.575 244.395C246.547 244.372 246.911 243.885 247.588 242.981C248.301 242.008 249.268 240.689 250.468 239.052C252.913 235.659 256.339 230.801 260.317 225.007L260.536 224.688L260.792 224.98C262.459 226.875 264.46 228.667 266.749 230.281C269.031 231.905 271.552 233.423 274.036 235.152L273.524 235.348C273.559 235.201 273.596 235.043 273.635 234.883C276.303 223.851 278.675 213.861 279.752 206.509C280.321 202.841 280.661 199.855 280.864 197.787C280.959 196.809 281.035 196.019 281.095 195.405C281.152 194.861 281.193 194.576 281.216 194.577C281.239 194.577 281.243 194.867 281.228 195.413C281.208 195.961 281.193 196.771 281.121 197.808C280.997 199.885 280.728 202.889 280.217 206.579C279.256 213.972 276.948 224.012 274.281 235.037C274.243 235.196 274.205 235.356 274.171 235.503L274.057 235.977L273.657 235.699C271.193 233.981 268.679 232.463 266.372 230.808C264.059 229.164 262.019 227.317 260.339 225.376L260.813 225.349C256.787 231.12 253.292 235.931 250.759 239.267C249.491 240.933 248.463 242.231 247.739 243.1C247.38 243.539 247.087 243.861 246.892 244.08C246.696 244.299 246.588 244.405 246.575 244.395Z" fill="#17282F"/>
<path d="M242.657 342.483C242.633 342.483 242.623 342.144 242.623 341.501C242.631 340.796 242.64 339.862 242.653 338.691C242.704 336.18 242.777 332.668 242.865 328.36C243.029 319.573 243.253 307.555 243.501 294.276C243.636 280.991 243.757 268.968 243.845 260.181C243.881 255.872 243.911 252.36 243.931 249.848C243.952 248.679 243.968 247.744 243.981 247.039C244 246.396 244.02 246.059 244.044 246.059C244.067 246.059 244.091 246.396 244.115 247.037C244.133 247.744 244.159 248.679 244.189 249.847C244.22 252.359 244.263 255.871 244.316 260.181C244.376 268.908 244.357 280.967 244.167 294.285C243.973 307.599 243.647 319.652 243.335 328.374C243.159 332.68 243.015 336.189 242.912 338.7C242.847 339.868 242.795 340.801 242.756 341.507C242.713 342.146 242.68 342.484 242.657 342.483Z" fill="#17282F"/>
<path d="M165.236 399.232C165.216 399.232 165.191 398.904 165.163 398.274C165.14 397.591 165.109 396.672 165.071 395.512C165.013 393.046 164.935 389.565 164.836 385.248C164.691 376.468 164.491 364.3 164.263 350.476L164.548 350.797C161.347 350.263 158.008 349.705 154.601 349.137C138.599 346.421 124.115 343.963 113.564 342.172C108.362 341.257 104.133 340.513 101.141 339.986C99.7198 339.722 98.5948 339.513 97.7694 339.358C97.4178 339.286 97.1307 339.228 96.8954 339.18C96.699 339.134 96.599 339.107 96.6011 339.096C96.6031 339.084 96.7063 339.091 96.9063 339.112C97.1454 339.144 97.4355 339.181 97.7912 339.227C98.6219 339.351 99.7536 339.519 101.183 339.731C104.182 340.207 108.422 340.88 113.637 341.708C124.193 343.45 138.681 345.839 154.691 348.479C158.096 349.051 161.433 349.61 164.633 350.146L164.915 350.195L164.917 350.468C165.056 364.293 165.177 376.463 165.265 385.243C165.281 389.562 165.295 393.043 165.303 395.509C165.295 396.669 165.288 397.589 165.284 398.272C165.272 398.903 165.256 399.232 165.236 399.232Z" fill="#17282F"/>
<path d="M98.9011 339.672C98.9136 339.803 96.6694 339.956 93.1636 340.788C91.4088 341.192 89.3594 341.833 87.1432 342.691C84.9418 343.585 82.5818 344.72 80.2344 346.14C77.9022 347.587 75.8198 349.175 74.0219 350.729C72.2511 352.315 70.749 353.849 69.5922 355.229C67.2588 357.975 66.1036 359.905 65.9932 359.835C65.9542 359.811 66.223 359.319 66.7459 358.446C67.0011 358.005 67.3298 357.477 67.7594 356.896C68.1828 356.311 68.6364 355.62 69.2303 354.929C70.3536 353.495 71.8402 351.905 73.614 350.272C75.4151 348.669 77.5188 347.041 79.887 345.574C82.2698 344.131 84.6755 342.996 86.9208 342.12C89.1818 341.281 91.273 340.679 93.061 340.329C93.9459 340.113 94.7672 340.024 95.4807 339.912C96.1938 339.793 96.814 339.74 97.3224 339.713C98.337 339.643 98.8974 339.627 98.9011 339.672Z" fill="#17282F"/>
<path d="M133.531 283.517C133.549 283.529 133.448 283.737 133.236 284.123C132.98 284.569 132.664 285.121 132.28 285.791C131.375 287.309 130.151 289.364 128.659 291.864C125.578 296.976 121.28 304.016 116.499 311.768C111.716 319.524 107.356 326.525 104.171 331.575C102.606 334.029 101.321 336.046 100.371 337.536C99.9443 338.179 99.5938 338.708 99.3094 339.137C99.0605 339.5 98.9203 339.686 98.9011 339.672C98.8818 339.66 98.9839 339.452 99.1965 339.067C99.4527 338.619 99.7683 338.068 100.152 337.398C101.058 335.879 102.282 333.825 103.773 331.324C106.855 326.212 111.152 319.173 115.934 311.419C120.714 303.668 125.074 296.669 128.258 291.62C129.823 289.164 131.108 287.148 132.059 285.657C132.486 285.013 132.836 284.483 133.121 284.053C133.371 283.691 133.511 283.505 133.531 283.517Z" fill="#17282F"/>
<path d="M111.984 334.78L111.357 321.241L111.307 320.159C112.924 317.556 114.638 314.787 116.41 311.913C123.583 300.481 130.801 288.88 133.356 284.451C134.417 302.709 125.858 322.968 111.984 334.78Z" fill="#9C64CE"/>
<path d="M116.41 311.913C116.44 311.865 116.469 311.817 116.499 311.768C121.28 304.016 125.578 296.976 128.659 291.864C130.151 289.364 131.375 287.309 132.28 285.791C132.664 285.121 132.98 284.569 133.236 284.123C133.268 284.064 133.298 284.009 133.325 283.959C133.336 284.123 133.347 284.287 133.356 284.451C130.801 288.88 123.583 300.481 116.41 311.913ZM127.472 292.867L133.264 283.148C133.281 283.357 133.297 283.569 133.313 283.78C133.258 283.855 133.195 283.947 133.121 284.053C132.836 284.483 132.486 285.013 132.059 285.657C131.108 287.148 129.823 289.164 128.258 291.62C128.004 292.023 127.742 292.439 127.472 292.867Z" fill="#9C64CE"/>
<path d="M111.307 320.159L111.301 320.008L127.472 292.867C127.742 292.439 128.004 292.023 128.258 291.62C129.823 289.164 131.108 287.148 132.059 285.657C132.485 285.013 132.836 284.483 133.121 284.053C133.195 283.947 133.258 283.855 133.313 283.78C133.317 283.84 133.321 283.899 133.325 283.959C133.298 284.009 133.268 284.064 133.236 284.123C132.98 284.569 132.664 285.121 132.28 285.791C131.375 287.309 130.151 289.364 128.659 291.864C125.578 296.976 121.28 304.016 116.499 311.768C116.469 311.817 116.44 311.865 116.41 311.913C114.637 314.787 112.924 317.556 111.307 320.159Z" fill="#0F191D"/>
<path d="M215.857 254.989L190.256 197.06C195.764 207.151 202.985 220.889 211.323 235.804C213.243 239.237 215.16 242.576 217.016 245.776L217.432 246.492L217.617 245.685C219.348 238.181 220.971 231.145 222.417 224.871C225.42 228.133 228.327 230.952 230.887 233.5C233.571 236.108 235.915 238.387 237.859 240.277C238.567 240.949 239.22 241.569 239.817 242.137L225.461 236.976L215.857 254.989Z" fill="#9C64CE"/>
<path d="M217.432 246.492L217.016 245.776C215.16 242.576 213.243 239.237 211.323 235.804C202.985 220.889 195.764 207.151 190.256 197.06L189.159 194.577L217.299 245.611L222.261 224.281L240.108 242.241L239.817 242.137C239.22 241.569 238.567 240.949 237.859 240.277C235.915 238.387 233.571 236.108 230.887 233.5C228.327 230.952 225.42 228.133 222.417 224.871C220.971 231.145 219.348 238.181 217.617 245.685L217.432 246.492Z" fill="#0F191D"/>
<path d="M357.811 331.919C358.015 331.811 358.219 331.704 358.421 331.597L358.66 331.751C358.511 331.785 358.361 331.82 358.211 331.855L357.811 331.919Z" fill="#A7A9A8"/>
<path d="M358.66 331.751L358.421 331.598C368.408 326.358 377.915 322.236 388.824 322.236C390.116 322.236 391.427 322.294 392.763 322.415C393.912 322.519 396.933 322.862 397.927 323.448C398.921 324.034 400.119 326.016 399.993 327.164C398.407 327.12 396.832 327.098 395.275 327.098C393.843 327.098 392.42 327.116 391.009 327.153C390.949 327.152 390.879 327.152 390.797 327.152C390.788 327.152 390.779 327.152 390.771 327.152C390.412 327.156 389.925 327.162 389.293 327.169C387.993 327.189 386.065 327.189 383.587 327.46C381.908 327.593 379.975 327.803 377.809 328.099C371.913 328.8 366.136 329.879 360.369 331.362C359.807 331.488 359.236 331.617 358.66 331.751Z" fill="#9C64CE"/>
<path d="M358.211 331.855C358.361 331.82 358.511 331.785 358.66 331.751C359.236 331.617 359.807 331.488 360.369 331.362C359.893 331.484 359.417 331.609 358.94 331.737L358.211 331.855ZM377.809 328.098C379.975 327.803 381.908 327.593 383.587 327.46C386.065 327.189 387.993 327.189 389.293 327.169C389.925 327.162 390.412 327.156 390.771 327.152C390.779 327.152 390.788 327.152 390.797 327.152C390.879 327.152 390.949 327.152 391.009 327.153C386.517 327.274 382.133 327.584 377.809 328.098Z" fill="#0F191D"/>
<path d="M319.163 303.212C319.208 302.567 319.255 301.919 319.3 301.267C320.043 289.74 320.715 279.307 321.207 271.657C321.416 267.928 321.585 264.88 321.709 262.68C321.739 261.96 321.765 261.34 321.787 260.815C322.127 255.668 322.361 252.105 322.376 251.849C330.064 268.472 327.435 286.883 319.163 303.212Z" fill="#9C64CE"/>
<path d="M318.969 303.592C319.013 302.865 320.824 275.441 321.787 260.815C321.765 261.34 321.739 261.96 321.709 262.68C321.585 264.88 321.416 267.928 321.207 271.657C320.715 279.307 320.043 289.74 319.3 301.267C319.255 301.919 319.208 302.567 319.163 303.212C319.099 303.339 319.033 303.465 318.969 303.592Z" fill="#0F191D"/>
<path d="M248.327 7.73462C251.769 2.99062 258.44 0.881267 263.984 2.78527C271.475 -1.51207 281.899 0.255931 287.555 6.7826C293.053 4.54926 299.699 5.41727 304.44 8.98927C309.181 12.5599 311.848 18.7093 311.219 24.6106C317.231 24.5586 323.052 28.6826 324.996 34.372C326.94 40.0626 324.859 46.8866 320.071 50.5239C326.151 53.5586 329.252 61.4919 326.844 67.8453C324.436 74.1999 316.855 78.0826 310.291 76.3253L248.479 24.1559C244.948 19.4746 244.884 12.4799 248.327 7.73462Z" fill="#17282F"/>
<path d="M262.031 16.3347L259.017 15.8813C226.244 12.9013 205.404 39.0693 203.332 71.912L193.08 168.657L245.787 238.931L262.763 213.945L268.032 184.795C268.032 184.795 299.993 184.628 305.068 153.46C307.517 138.407 310.041 106.999 311.996 78.5466C314.097 47.9573 292.352 20.8867 262.031 16.3347Z" fill="#F8A58D"/>
<path d="M267.985 184.833C267.985 184.833 248.176 182.995 229.179 166.669C229.179 166.669 235.361 190.637 266.631 192.548L267.985 184.833Z" fill="#6F3530"/>
<path d="M296.555 110.041C296.285 112.409 294.057 114.132 291.58 113.895C289.107 113.657 287.316 111.552 287.587 109.184C287.857 106.817 290.084 105.091 292.557 105.327C295.035 105.564 296.825 107.675 296.555 110.041Z" fill="#17282F"/>
<path d="M303.1 94.456C302.46 94.9533 299.459 91.9467 294.656 91.2387C289.872 90.4627 285.979 92.4027 285.548 91.7374C285.331 91.4387 286.052 90.4733 287.752 89.5867C289.429 88.7013 292.165 88.008 295.153 88.4694C298.14 88.9347 300.488 90.412 301.765 91.756C303.071 93.1093 303.412 94.236 303.1 94.456Z" fill="#17282F"/>
<path d="M255.907 104.684C255.637 107.051 253.409 108.773 250.932 108.536C248.459 108.3 246.668 106.193 246.939 103.825C247.209 101.459 249.439 99.732 251.911 99.968C254.388 100.204 256.179 102.316 255.907 104.684Z" fill="#17282F"/>
<path d="M257.293 86.8947C256.652 87.3934 253.645 84.3854 248.848 83.6787C244.064 82.904 240.171 84.8427 239.739 84.1774C239.523 83.8787 240.237 82.912 241.945 82.0267C243.621 81.1414 246.357 80.4481 249.345 80.9081C252.331 81.3734 254.68 82.852 255.957 84.1947C257.259 85.548 257.603 86.6747 257.293 86.8947Z" fill="#17282F"/>
<path d="M267.759 124.832C267.777 124.555 270.837 124.488 275.763 124.596C277.007 124.655 278.204 124.584 278.536 123.779C278.957 122.936 278.643 121.539 278.264 120.023C277.557 116.885 276.817 113.596 276.041 110.149C273.003 96.1079 271.001 84.6386 271.567 84.5213C272.133 84.404 275.056 95.6893 278.092 109.729C278.812 113.187 279.501 116.484 280.155 119.636C280.408 121.099 280.969 122.799 280.068 124.541C279.6 125.407 278.601 125.937 277.784 126.031C276.963 126.152 276.272 126.061 275.66 126.007C270.756 125.537 267.736 125.107 267.759 124.832Z" fill="#17282F"/>
<path d="M259.412 73.1974C258.655 74.3574 254.691 72.6187 249.656 71.9481C244.637 71.1614 240.283 71.6934 239.952 70.3761C239.816 69.7507 240.827 68.7414 242.748 67.944C244.655 67.1454 247.477 66.6641 250.492 67.0987C253.504 67.5401 256.028 68.7947 257.573 70.0947C259.132 71.3961 259.753 72.6427 259.412 73.1974Z" fill="#17282F"/>
<path d="M303.988 81.1321C303.063 82.1747 299.804 80.8094 295.797 80.488C291.801 80.0254 288.34 80.7294 287.636 79.5267C287.331 78.9454 287.939 77.8801 289.493 76.9387C291.024 75.9987 293.528 75.3147 296.279 75.584C299.028 75.856 301.349 77.0121 302.669 78.2321C304.009 79.4574 304.4 80.6214 303.988 81.1321Z" fill="#17282F"/>
<path d="M311.143 63.7747C311.143 63.7747 305.843 42.9827 297.099 37.004C286.512 29.7654 279.716 41.5573 269.295 36.884C258.872 32.2093 248.771 25.272 236.389 32.012C222.84 39.3893 227.571 46.704 224.739 60.4467C213.257 116.161 200.613 130.507 201.668 103.609C201.784 100.663 194.085 97.1493 194.732 84.724C195.571 68.6093 197.856 49.2347 203.092 38.4973C207.505 29.4467 213.907 23.696 224.705 17.9187C241.752 8.79867 262.849 11.7147 276.935 15.3013C291.02 18.888 316.121 39.4854 311.143 63.7747Z" fill="#17282F"/>
<path d="M203.785 103.059C204.313 98.2094 200.732 93.78 195.861 93.516C189.953 93.196 182.977 95.5294 181.555 107.621C179.031 129.072 201.088 127.18 201.197 126.571C201.271 126.155 202.809 112.044 203.785 103.059Z" fill="#F8A58D"/>
<path d="M197.479 117.951C197.393 117.871 197.075 118.169 196.408 118.384C195.76 118.593 194.679 118.663 193.609 118.112C191.44 117.013 189.956 113.192 190.307 109.313C190.481 107.355 191.109 105.544 191.983 104.087C192.821 102.593 193.965 101.617 195.129 101.549C196.296 101.42 197.024 102.197 197.215 102.832C197.432 103.467 197.245 103.879 197.355 103.929C197.408 103.989 197.857 103.623 197.789 102.716C197.749 102.28 197.559 101.744 197.103 101.275C196.637 100.793 195.905 100.492 195.101 100.485C193.433 100.404 191.765 101.751 190.805 103.351C189.755 104.948 189.004 106.977 188.807 109.177C188.436 113.516 190.172 117.821 193.168 119.081C194.631 119.653 195.943 119.347 196.653 118.917C197.38 118.464 197.548 117.999 197.479 117.951Z" fill="#6F3530"/>
<path d="M210.413 61.7587C212.901 64.068 215.537 66.4587 218.829 67.2907C222.12 68.124 226.228 66.7787 227.289 63.5533C227.765 62.1053 227.661 60.328 228.811 59.3253C230.181 58.1307 232.268 58.8827 234.029 59.34C240.136 60.9307 247.152 57.4947 249.639 51.6947C250.865 54.3013 254.576 54.7547 257.204 53.5693C259.831 52.3853 261.753 50.0893 263.951 48.224C266.147 46.3587 269.067 44.8333 271.828 45.6587C273.373 46.1187 274.709 47.28 276.319 47.3773C279.16 47.5507 281.021 44.472 281.863 41.7533C282.705 39.0347 283.523 35.8373 286.124 34.6813C288.535 33.6107 291.265 34.8493 293.789 35.6173C296.312 36.3853 299.735 36.2787 300.775 33.8547C301.32 32.5827 300.961 31.104 300.401 29.8387C297.863 24.1067 290.963 20.6933 284.865 22.1547C283.836 14.7867 278.064 8.30535 270.863 6.43602C263.661 4.56402 255.464 7.416 250.98 13.352C247.081 8.58133 240.784 5.87736 234.64 6.34136C228.496 6.80402 222.675 10.42 219.536 15.7213C214.548 13.576 208.328 14.6947 204.4 18.4453C200.473 22.196 199.069 28.3587 200.983 33.44C196.816 35.056 192.957 38.376 192.215 42.784C191.472 47.1907 195.116 52.24 199.555 51.716C197.315 54.8987 198.016 59.7787 201.06 62.2013C204.105 64.624 209.019 64.2107 211.616 61.3133" fill="#17282F"/>
<path d="M254.736 130.691C254.325 130.405 253.853 130.105 253.365 130.208C252.927 130.3 252.623 130.691 252.381 131.068C250.416 134.151 250.196 138.269 251.823 141.543L251.872 141.641C254.303 146.397 261.12 146.544 264.161 142.152L266.439 138.864C263.757 136.995 257.416 132.557 254.736 130.691Z" fill="#6F3530"/>
<path d="M262.697 143.713C262.863 143.799 260.915 145.661 256.969 145.464C256.031 145.42 254.844 145.057 253.935 144.417C252.991 143.833 251.969 142.977 251.343 141.769C250.149 139.38 250.017 136.475 250.552 133.635C250.697 132.911 250.827 132.264 251.088 131.519C251.367 130.829 251.748 130 252.719 129.595C253.736 129.207 254.657 129.769 255.155 130.136C255.661 130.512 256.161 130.883 256.655 131.249C258.463 132.623 260.168 133.92 261.769 135.137C264.656 137.384 266.384 138.853 266.269 139.012C266.155 139.172 264.219 137.989 261.181 135.951C259.524 134.811 257.759 133.595 255.888 132.308C254.931 131.691 253.715 130.568 253.219 130.892C252.556 131.133 252.177 132.613 251.947 133.897C251.439 136.511 251.577 139.181 252.504 141.171C252.972 142.139 253.741 142.853 254.585 143.437C255.425 144.071 256.204 144.333 257.084 144.468C260.588 144.901 262.628 143.508 262.697 143.713Z" fill="#17282F"/>
<path d="M197.996 51.4347C197.931 51.3667 197.333 53.1707 198.709 55.7387C199.399 56.9627 200.687 58.3214 202.605 58.9321C204.479 59.5441 206.908 59.4254 208.956 58.0761L208.073 57.8054C208.855 59.8027 209.967 61.8841 211.536 63.7694C212.548 64.9721 213.711 66.0427 215.063 66.7721C216.38 67.5414 217.967 67.8321 219.3 67.8174C222.051 67.9254 224.629 66.8268 225.992 65.2081C227.391 63.6361 227.995 62.0707 228.387 61.0254C228.768 59.9654 228.88 59.3521 228.811 59.3254C228.72 59.2907 228.452 59.8507 227.943 60.8321C227.429 61.7987 226.705 63.2561 225.361 64.5961C222.879 67.3547 216.051 67.9281 212.488 62.9707C211.029 61.2214 209.947 59.2481 209.173 57.3707L208.891 56.6854L208.289 57.1001C206.62 58.2494 204.528 58.4321 202.896 57.9681C201.235 57.5134 200.049 56.4107 199.339 55.3507C197.916 53.1494 198.191 51.4081 197.996 51.4347Z" fill="#33535F"/>
<path d="M245.655 8.73332C245.632 8.80532 246.189 8.96663 247.083 9.5133C247.952 10.0613 249.207 11.0706 249.976 12.8306L250.169 13.276L250.524 12.924C252.921 10.548 256.784 7.60797 262.101 6.11597C264.741 5.39064 267.728 5.06799 270.783 5.53332C273.827 5.97465 276.879 7.33066 279.436 9.47466C281.425 11.1373 283 13.192 284.053 15.3853C285.072 17.5946 285.544 19.948 285.433 22.1733L285.4 22.86L286.075 22.7786C289.416 22.3786 292.588 23.4933 294.784 25.1906C297.016 26.8946 298.257 29.168 298.857 31.1213C300.015 35.1346 299.016 37.6413 299.239 37.644C299.285 37.66 299.552 37.0867 299.759 35.9373C299.952 34.7973 300.069 33.0453 299.527 30.932C298.995 28.8466 297.752 26.3493 295.379 24.436C293.049 22.54 289.64 21.2507 285.939 21.6413L286.579 22.2453C286.733 19.8253 286.243 17.2587 285.156 14.8707C284.039 12.4987 282.357 10.2973 280.233 8.52131C277.511 6.23331 274.217 4.78796 270.959 4.34396C267.701 3.8773 264.552 4.26399 261.804 5.07199C256.268 6.73332 252.375 9.90131 250.039 12.4586L250.587 12.552C249.644 10.6546 248.221 9.67732 247.255 9.20132C246.26 8.72932 245.665 8.68799 245.655 8.73332Z" fill="#33535F"/>
</svg>
